IBM Plex Mono-Bold Italic.ufo
<glyph name="exclam" format="2">
  <advance width="600"/>
  <unicode hex="0021"/>
  <outline>
    <contour>
      <point x="321" y="243" type="line"/>
      <point x="417" y="495" type="line"/>
      <point x="451" y="698" type="line"/>
      <point x="290" y="698" type="line"/>
      <point x="257" y="495" type="line"/>
      <point x="269" y="243" type="line"/>
    </contour>
    <contour>
      <point x="256" y="-12" type="curve" smooth="yes"/>
      <point x="322" y="-12"/>
      <point x="354" y="21"/>
      <point x="361" y="63" type="curve" smooth="yes"/>
      <point x="366" y="93"/>
      <point x="367" y="103"/>
      <point x="367" y="111" type="curve" smooth="yes"/>
      <point x="367" y="146"/>
      <point x="341" y="174"/>
      <point x="279" y="174" type="curve" smooth="yes"/>
      <point x="213" y="174"/>
      <point x="181" y="141"/>
      <point x="174" y="99" type="curve" smooth="yes"/>
      <point x="169" y="69"/>
      <point x="168" y="59"/>
      <point x="168" y="51" type="curve" smooth="yes"/>
      <point x="168" y="16"/>
      <point x="194" y="-12"/>
    </contour>
  </outline>
</glyph>
<glyph name="numbersign" format="2">
  <advance width="600"/>
  <unicode hex="0023"/>
  <outline>
    <contour>
      <point x="42" y="0" type="line"/>
      <point x="157" y="0" type="line"/>
      <point x="396" y="698" type="line"/>
      <point x="281" y="698" type="line"/>
      <point x="214" y="503" type="line"/>
      <point x="88" y="503" type="line"/>
      <point x="70" y="395" type="line"/>
      <point x="177" y="395" type="line"/>
      <point x="146" y="303" type="line"/>
      <point x="17" y="303" type="line"/>
      <point x="-1" y="195" type="line"/>
      <point x="109" y="195" type="line"/>
    </contour>
    <contour>
      <point x="236" y="0" type="line"/>
      <point x="351" y="0" type="line"/>
      <point x="418" y="195" type="line"/>
      <point x="544" y="195" type="line"/>
      <point x="562" y="303" type="line"/>
      <point x="455" y="303" type="line"/>
      <point x="486" y="395" type="line"/>
      <point x="615" y="395" type="line"/>
      <point x="633" y="503" type="line"/>
      <point x="523" y="503" type="line"/>
      <point x="590" y="698" type="line"/>
      <point x="475" y="698" type="line"/>
    </contour>
  </outline>
</glyph>
<glyph name="parenleft" format="2">
  <advance width="600"/>
  <unicode hex="0028"/>
  <outline>
    <contour>
      <point x="170" y="239" type="curve" smooth="yes"/>
      <point x="170" y="82"/>
      <point x="235" y="-58"/>
      <point x="316" y="-137" type="curve"/>
      <point x="447" y="-137" type="line"/>
      <point x="367" y="-57"/>
      <point x="291" y="82"/>
      <point x="291" y="213" type="curve" smooth="yes"/>
      <point x="291" y="234"/>
      <point x="292" y="251"/>
      <point x="296" y="275" type="curve" smooth="yes"/>
      <point x="312" y="370" type="line" smooth="yes"/>
      <point x="337" y="520"/>
      <point x="453" y="659"/>
      <point x="596" y="760" type="curve"/>
      <point x="453" y="760" type="line"/>
      <point x="301" y="659"/>
      <point x="170" y="461"/>
    </contour>
  </outline>
</glyph>
<glyph name="asterisk" format="2">
  <advance width="600"/>
  <unicode hex="002A"/>
  <guideline x="268" y="459" angle="80.5" identifier="QKF5MmWgRm"/>
  <outline>
    <contour>
      <point x="290" y="201" type="line"/>
      <point x="378" y="51" type="line"/>
      <point x="487" y="120" type="line"/>
      <point x="399" y="263" type="line"/>
      <point x="580" y="328" type="line"/>
      <point x="559" y="442" type="line"/>
      <point x="381" y="381" type="line"/>
      <point x="411" y="559" type="line"/>
      <point x="285" y="559" type="line"/>
      <point x="255" y="381" type="line"/>
      <point x="97" y="442" type="line"/>
      <point x="42" y="331" type="line"/>
      <point x="200" y="270" type="line"/>
      <point x="63" y="120" type="line"/>
      <point x="159" y="51" type="line"/>
    </contour>
  </outline>
</glyph>
<glyph name="plus" format="2">
  <advance width="600"/>
  <unicode hex="002B"/>
  <outline>
    <contour>
      <point x="331" y="62" type="line"/>
      <point x="362" y="247" type="line"/>
      <point x="537" y="247" type="line"/>
      <point x="557" y="363" type="line"/>
      <point x="381" y="363" type="line"/>
      <point x="412" y="548" type="line"/>
      <point x="286" y="548" type="line"/>
      <point x="255" y="363" type="line"/>
      <point x="81" y="363" type="line"/>
      <point x="61" y="247" type="line"/>
      <point x="236" y="247" type="line"/>
      <point x="205" y="62" type="line"/>
    </contour>
  </outline>
</glyph>
<glyph name="comma" format="2">
  <advance width="600"/>
  <unicode hex="002C"/>
  <outline>
    <contour>
      <point x="102" y="-151" type="line"/>
      <point x="215" y="-151" type="line"/>
      <point x="398" y="173" type="line"/>
      <point x="211" y="173" type="line"/>
    </contour>
  </outline>
</glyph>
<glyph name="hyphen" format="2">
  <advance width="600"/>
  <unicode hex="002D"/>
  <outline>
    <contour>
      <point x="456" y="235" type="line"/>
      <point x="479" y="375" type="line"/>
      <point x="162" y="375" type="line"/>
      <point x="139" y="235" type="line"/>
    </contour>
  </outline>
</glyph>
<glyph name="slash" format="2">
  <advance width="600"/>
  <unicode hex="002F"/>
  <outline>
    <contour>
      <point x="135" y="-138" type="line"/>
      <point x="599" y="760" type="line"/>
      <point x="465" y="760" type="line"/>
      <point x="1" y="-138" type="line"/>
    </contour>
  </outline>
</glyph>
<glyph name="one" format="2">
  <advance width="600"/>
  <unicode hex="0031"/>
  <outline>
    <contour>
      <point x="531" y="0" type="line"/>
      <point x="551" y="120" type="line"/>
      <point x="402" y="120" type="line"/>
      <point x="498" y="698" type="line"/>
      <point x="266" y="698" type="line"/>
      <point x="66" y="478" type="line"/>
      <point x="154" y="403" type="line"/>
      <point x="323" y="589" type="line"/>
      <point x="332" y="589" type="line"/>
      <point x="254" y="120" type="line"/>
      <point x="67" y="120" type="line"/>
      <point x="47" y="0" type="line"/>
    </contour>
  </outline>
</glyph>
<glyph name="four" format="2">
  <advance width="600"/>
  <unicode hex="0034"/>
  <outline>
    <contour>
      <point x="442" y="0" type="line"/>
      <point x="464" y="134" type="line"/>
      <point x="553" y="134" type="line"/>
      <point x="572" y="249" type="line"/>
      <point x="483" y="249" type="line"/>
      <point x="558" y="698" type="line"/>
      <point x="379" y="698" type="line"/>
      <point x="28" y="264" type="line"/>
      <point x="6" y="134" type="line"/>
      <point x="320" y="134" type="line"/>
      <point x="298" y="0" type="line"/>
    </contour>
    <contour>
      <point x="378" y="530" type="line"/>
      <point x="386" y="530" type="line"/>
      <point x="339" y="249" type="line"/>
      <point x="151" y="249" type="line"/>
    </contour>
  </outline>
</glyph>
<glyph name="five" format="2">
  <advance width="600"/>
  <unicode hex="0035"/>
  <outline>
    <contour>
      <point x="593" y="698" type="line"/>
      <point x="162" y="698" type="line"/>
      <point x="70" y="303" type="line"/>
      <point x="188" y="287" type="line"/>
      <point x="212" y="308"/>
      <point x="251" y="336"/>
      <point x="306" y="336" type="curve" smooth="yes"/>
      <point x="366" y="336"/>
      <point x="401" y="305"/>
      <point x="401" y="252" type="curve" smooth="yes"/>
      <point x="401" y="238"/>
      <point x="400" y="224"/>
      <point x="398" y="212" type="curve" smooth="yes"/>
      <point x="388" y="152"/>
      <point x="345" y="109"/>
      <point x="271" y="109" type="curve" smooth="yes"/>
      <point x="199" y="109"/>
      <point x="156" y="148"/>
      <point x="135" y="199" type="curve"/>
      <point x="18" y="124" type="line"/>
      <point x="51" y="53"/>
      <point x="117" y="-12"/>
      <point x="268" y="-12" type="curve" smooth="yes"/>
      <point x="464" y="-12"/>
      <point x="563" y="126"/>
      <point x="563" y="262" type="curve" smooth="yes"/>
      <point x="563" y="385"/>
      <point x="482" y="456"/>
      <point x="373" y="456" type="curve" smooth="yes"/>
      <point x="285" y="456"/>
      <point x="244" y="416"/>
      <point x="204" y="346" type="curve"/>
      <point x="196" y="346" type="line"/>
      <point x="248" y="569" type="line"/>
      <point x="571" y="569" type="line"/>
    </contour>
  </outline>
</glyph>
<glyph name="seven" format="2">
  <advance width="600"/>
  <unicode hex="0037"/>
  <outline>
    <contour>
      <point x="270" y="0" type="line"/>
      <point x="595" y="569" type="line"/>
      <point x="617" y="698" type="line"/>
      <point x="115" y="698" type="line"/>
      <point x="74" y="450" type="line"/>
      <point x="200" y="450" type="line"/>
      <point x="221" y="577" type="line"/>
      <point x="446" y="577" type="line"/>
      <point x="110" y="0" type="line"/>
    </contour>
  </outline>
</glyph>
<glyph name="eight" format="2">
  <advance width="600"/>
  <unicode hex="0038"/>
  <outline>
    <contour>
      <point x="269" y="-12" type="curve" smooth="yes"/>
      <point x="460" y="-12"/>
      <point x="556" y="103"/>
      <point x="556" y="213" type="curve" smooth="yes"/>
      <point x="556" y="288"/>
      <point x="512" y="340"/>
      <point x="442" y="360" type="curve"/>
      <point x="443" y="367" type="line"/>
      <point x="533" y="399"/>
      <point x="588" y="460"/>
      <point x="588" y="543" type="curve" smooth="yes"/>
      <point x="588" y="642"/>
      <point x="513" y="710"/>
      <point x="367" y="710" type="curve" smooth="yes"/>
      <point x="182" y="710"/>
      <point x="100" y="604"/>
      <point x="100" y="506" type="curve" smooth="yes"/>
      <point x="100" y="437"/>
      <point x="136" y="391"/>
      <point x="194" y="368" type="curve"/>
      <point x="193" y="361" type="line"/>
      <point x="88" y="337"/>
      <point x="24" y="263"/>
      <point x="24" y="166" type="curve" smooth="yes"/>
      <point x="24" y="61"/>
      <point x="109" y="-12"/>
    </contour>
    <contour>
      <point x="275" y="102" type="curve" smooth="yes"/>
      <point x="211" y="102"/>
      <point x="178" y="131"/>
      <point x="178" y="177" type="curve" smooth="yes"/>
      <point x="178" y="188"/>
      <point x="178" y="194"/>
      <point x="181" y="212" type="curve" smooth="yes"/>
      <point x="190" y="266"/>
      <point x="231" y="302"/>
      <point x="303" y="302" type="curve" smooth="yes"/>
      <point x="367" y="302"/>
      <point x="400" y="273"/>
      <point x="400" y="227" type="curve" smooth="yes"/>
      <point x="400" y="216"/>
      <point x="400" y="210"/>
      <point x="397" y="192" type="curve" smooth="yes"/>
      <point x="388" y="138"/>
      <point x="347" y="102"/>
    </contour>
    <contour>
      <point x="329" y="411" type="curve" smooth="yes"/>
      <point x="269" y="411"/>
      <point x="237" y="437"/>
      <point x="237" y="480" type="curve" smooth="yes"/>
      <point x="237" y="488"/>
      <point x="238" y="499"/>
      <point x="240" y="511" type="curve" smooth="yes"/>
      <point x="249" y="565"/>
      <point x="287" y="596"/>
      <point x="352" y="596" type="curve" smooth="yes"/>
      <point x="412" y="596"/>
      <point x="444" y="570"/>
      <point x="444" y="527" type="curve" smooth="yes"/>
      <point x="444" y="519"/>
      <point x="443" y="508"/>
      <point x="441" y="496" type="curve" smooth="yes"/>
      <point x="432" y="442"/>
      <point x="394" y="411"/>
    </contour>
  </outline>
</glyph>
<glyph name="less" format="2">
  <advance width="600"/>
  <unicode hex="003C"/>
  <outline>
    <contour>
      <point x="473" y="7" type="line"/>
      <point x="495" y="138" type="line"/>
      <point x="224" y="296" type="line"/>
      <point x="225" y="304" type="line"/>
      <point x="548" y="461" type="line"/>
      <point x="572" y="604" type="line"/>
      <point x="104" y="375" type="line"/>
      <point x="81" y="237" type="line"/>
    </contour>
  </outline>
</glyph>
<glyph name="equal" format="2">
  <advance width="600"/>
  <unicode hex="003D"/>
  <outline>
    <contour>
      <point x="556" y="362" type="line"/>
      <point x="576" y="478" type="line"/>
      <point x="100" y="478" type="line"/>
      <point x="80" y="362" type="line"/>
    </contour>
    <contour>
      <point x="518" y="132" type="line"/>
      <point x="538" y="248" type="line"/>
      <point x="62" y="248" type="line"/>
      <point x="42" y="132" type="line"/>
    </contour>
  </outline>
</glyph>
<glyph name="greater" format="2">
  <advance width="600"/>
  <unicode hex="003E"/>
  <outline>
    <contour>
      <point x="45" y="6" type="line"/>
      <point x="514" y="237" type="line"/>
      <point x="537" y="375" type="line"/>
      <point x="144" y="604" type="line"/>
      <point x="122" y="473" type="line"/>
      <point x="394" y="316" type="line"/>
      <point x="393" y="308" type="line"/>
      <point x="69" y="151" type="line"/>
    </contour>
  </outline>
</glyph>
<glyph name="C" format="2">
  <advance width="600"/>
  <unicode hex="0043"/>
  <anchor x="293.0" y="0.0" name="bottom"/>
  <anchor x="373.0" y="698.0" name="top"/>
  <outline>
    <contour>
      <point x="290" y="-12" type="curve" smooth="yes"/>
      <point x="425" y="-12"/>
      <point x="504" y="58"/>
      <point x="559" y="189" type="curve"/>
      <point x="432" y="227" type="line"/>
      <point x="405" y="161"/>
      <point x="364" y="108"/>
      <point x="300" y="108" type="curve" smooth="yes"/>
      <point x="227" y="108"/>
      <point x="199" y="151"/>
      <point x="199" y="221" type="curve" smooth="yes"/>
      <point x="199" y="253"/>
      <point x="203" y="275"/>
      <point x="207" y="299" type="curve" smooth="yes"/>
      <point x="225" y="408" type="line" smooth="yes"/>
      <point x="244" y="520"/>
      <point x="285" y="590"/>
      <point x="367" y="590" type="curve" smooth="yes"/>
      <point x="439" y="590"/>
      <point x="457" y="542"/>
      <point x="461" y="476" type="curve"/>
      <point x="604" y="505" type="line"/>
      <point x="597" y="626"/>
      <point x="528" y="710"/>
      <point x="373" y="710" type="curve" smooth="yes"/>
      <point x="176" y="710"/>
      <point x="50" y="525"/>
      <point x="50" y="254" type="curve" smooth="yes"/>
      <point x="50" y="87"/>
      <point x="126" y="-12"/>
    </contour>
  </outline>
</glyph>
<glyph name="D" format="2">
  <advance width="600"/>
  <unicode hex="0044"/>
  <anchor x="238.0" y="0.0" name="bottom"/>
  <anchor x="345.0" y="698.0" name="top"/>
  <outline>
    <contour>
      <point x="25" y="0" type="line"/>
      <point x="252" y="0" type="line" smooth="yes"/>
      <point x="469" y="0"/>
      <point x="588" y="166"/>
      <point x="588" y="441" type="curve" smooth="yes"/>
      <point x="588" y="606"/>
      <point x="503" y="698"/>
      <point x="347" y="698" type="curve" smooth="yes"/>
      <point x="142" y="698" type="line"/>
    </contour>
    <contour>
      <point x="192" y="117" type="line"/>
      <point x="269" y="581" type="line"/>
      <point x="334" y="581" type="line" smooth="yes"/>
      <point x="405" y="581"/>
      <point x="439" y="545"/>
      <point x="439" y="469" type="curve" smooth="yes"/>
      <point x="439" y="450"/>
      <point x="437" y="425"/>
      <point x="433" y="401" type="curve" smooth="yes"/>
      <point x="412" y="275" type="line" smooth="yes"/>
      <point x="394" y="167"/>
      <point x="344" y="117"/>
      <point x="255" y="117" type="curve" smooth="yes"/>
    </contour>
  </outline>
</glyph>
<glyph name="E" format="2">
  <advance width="600"/>
  <unicode hex="0045"/>
  <anchor x="283.0" y="0.0" name="bottom"/>
  <anchor x="484.0" y="0.0" name="bottomright"/>
  <anchor x="373.0" y="698.0" name="top"/>
  <outline>
    <contour>
      <point x="484" y="0" type="line"/>
      <point x="504" y="122" type="line"/>
      <point x="205" y="122" type="line"/>
      <point x="233" y="292" type="line"/>
      <point x="520" y="292" type="line"/>
      <point x="540" y="414" type="line"/>
      <point x="254" y="414" type="line"/>
      <point x="281" y="576" type="line"/>
      <point x="581" y="576" type="line"/>
      <point x="601" y="698" type="line"/>
      <point x="155" y="698" type="line"/>
      <point x="38" y="0" type="line"/>
    </contour>
  </outline>
</glyph>
<glyph name="F" format="2">
  <advance width="600"/>
  <unicode hex="0046"/>
  <anchor x="112.0" y="0.0" name="bottom"/>
  <anchor x="386.0" y="698.0" name="top"/>
  <outline>
    <contour>
      <point x="185" y="0" type="line"/>
      <point x="234" y="292" type="line"/>
      <point x="516" y="292" type="line"/>
      <point x="536" y="414" type="line"/>
      <point x="254" y="414" type="line"/>
      <point x="281" y="576" type="line"/>
      <point x="597" y="576" type="line"/>
      <point x="617" y="698" type="line"/>
      <point x="155" y="698" type="line"/>
      <point x="38" y="0" type="line"/>
    </contour>
  </outline>
</glyph>
<glyph name="G" format="2">
  <advance width="600"/>
  <unicode hex="0047"/>
  <anchor x="298.0" y="0.0" name="bottom"/>
  <anchor x="366.0" y="698.0" name="top"/>
  <outline>
    <contour>
      <point x="373" y="0" type="line"/>
      <point x="504" y="0" type="line"/>
      <point x="566" y="372" type="line"/>
      <point x="312" y="372" type="line"/>
      <point x="295" y="267" type="line"/>
      <point x="418" y="267" type="line"/>
      <point x="410" y="219" type="line" smooth="yes"/>
      <point x="400" y="159"/>
      <point x="359" y="108"/>
      <point x="289" y="108" type="curve" smooth="yes"/>
      <point x="225" y="108"/>
      <point x="196" y="154"/>
      <point x="196" y="224" type="curve" smooth="yes"/>
      <point x="196" y="251"/>
      <point x="200" y="287"/>
      <point x="204" y="311" type="curve" smooth="yes"/>
      <point x="221" y="413" type="line" smooth="yes"/>
      <point x="239" y="521"/>
      <point x="279" y="590"/>
      <point x="355" y="590" type="curve" smooth="yes"/>
      <point x="424" y="590"/>
      <point x="441" y="536"/>
      <point x="446" y="476" type="curve"/>
      <point x="589" y="504" type="line"/>
      <point x="580" y="625"/>
      <point x="513" y="710"/>
      <point x="368" y="710" type="curve" smooth="yes"/>
      <point x="154" y="710"/>
      <point x="45" y="510"/>
      <point x="45" y="245" type="curve" smooth="yes"/>
      <point x="45" y="77"/>
      <point x="116" y="-12"/>
      <point x="230" y="-12" type="curve" smooth="yes"/>
      <point x="311" y="-12"/>
      <point x="346" y="39"/>
      <point x="381" y="101" type="curve"/>
      <point x="390" y="101" type="line"/>
    </contour>
  </outline>
</glyph>
<glyph name="H" format="2">
  <advance width="600"/>
  <unicode hex="0048"/>
  <anchor x="256.0" y="0.0" name="bottom"/>
  <anchor x="374.0" y="698.0" name="top"/>
  <outline>
    <contour>
      <point x="348" y="0" type="line"/>
      <point x="496" y="0" type="line"/>
      <point x="612" y="698" type="line"/>
      <point x="464" y="698" type="line"/>
      <point x="417" y="414" type="line"/>
      <point x="237" y="414" type="line"/>
      <point x="284" y="698" type="line"/>
      <point x="136" y="698" type="line"/>
      <point x="20" y="0" type="line"/>
      <point x="168" y="0" type="line"/>
      <point x="217" y="293" type="line"/>
      <point x="397" y="293" type="line"/>
    </contour>
  </outline>
</glyph>
<glyph name="J" format="2">
  <advance width="600"/>
  <unicode hex="004A"/>
  <anchor x="241.0" y="0.0" name="bottom"/>
  <anchor x="392.0" y="698.0" name="top"/>
  <outline>
    <contour>
      <point x="201" y="698" type="line"/>
      <point x="181" y="576" type="line"/>
      <point x="415" y="576" type="line"/>
      <point x="353" y="206" type="line" smooth="yes"/>
      <point x="342" y="140"/>
      <point x="307" y="108"/>
      <point x="254" y="108" type="curve" smooth="yes"/>
      <point x="190" y="108"/>
      <point x="171" y="152"/>
      <point x="168" y="211" type="curve"/>
      <point x="29" y="185" type="line"/>
      <point x="32" y="68"/>
      <point x="103" y="-12"/>
      <point x="243" y="-12" type="curve" smooth="yes"/>
      <point x="389" y="-12"/>
      <point x="476" y="60"/>
      <point x="500" y="202" type="curve" smooth="yes"/>
      <point x="583" y="698" type="line"/>
    </contour>
  </outline>
</glyph>
<glyph name="K" format="2">
  <advance width="600"/>
  <unicode hex="004B"/>
  <anchor x="275.0" y="0.0" name="bottom"/>
  <anchor x="384.0" y="698.0" name="top"/>
  <outline>
    <contour>
      <point x="398" y="0" type="line"/>
      <point x="562" y="0" type="line"/>
      <point x="407" y="388" type="line"/>
      <point x="667" y="698" type="line"/>
      <point x="493" y="698" type="line"/>
      <point x="361" y="536" type="line"/>
      <point x="249" y="399" type="line"/>
      <point x="241" y="399" type="line"/>
      <point x="291" y="698" type="line"/>
      <point x="143" y="698" type="line"/>
      <point x="27" y="0" type="line"/>
      <point x="175" y="0" type="line"/>
      <point x="207" y="191" type="line"/>
      <point x="289" y="282" type="line"/>
    </contour>
  </outline>
</glyph>
<glyph name="L" format="2">
  <advance width="600"/>
  <unicode hex="004C"/>
  <anchor x="277.0" y="0.0" name="bottom"/>
  <anchor x="237.0" y="698.0" name="top"/>
  <anchor x="400.0" y="740.0" name="topright"/>
  <outline>
    <contour>
      <point x="501" y="0" type="line"/>
      <point x="521" y="122" type="line"/>
      <point x="219" y="122" type="line"/>
      <point x="315" y="698" type="line"/>
      <point x="167" y="698" type="line"/>
      <point x="51" y="0" type="line"/>
    </contour>
  </outline>
</glyph>
<glyph name="M" format="2">
  <advance width="600"/>
  <unicode hex="004D"/>
  <anchor x="257.0" y="0.0" name="bottom"/>
  <anchor x="374.0" y="698.0" name="top"/>
  <outline>
    <contour>
      <point x="390" y="0" type="line"/>
      <point x="518" y="0" type="line"/>
      <point x="635" y="698" type="line"/>
      <point x="467" y="698" type="line"/>
      <point x="341" y="461" type="line"/>
      <point x="332" y="461" type="line"/>
      <point x="284" y="698" type="line"/>
      <point x="115" y="698" type="line"/>
      <point x="-2" y="0" type="line"/>
      <point x="126" y="0" type="line"/>
      <point x="178" y="311" type="line"/>
      <point x="203" y="508" type="line"/>
      <point x="212" y="508" type="line"/>
      <point x="282" y="149" type="line"/>
      <point x="473" y="508" type="line"/>
      <point x="482" y="508" type="line"/>
      <point x="442" y="311" type="line"/>
    </contour>
  </outline>
</glyph>
<glyph name="N" format="2">
  <advance width="600"/>
  <unicode hex="004E"/>
  <anchor x="258.0" y="0.0" name="bottom"/>
  <anchor x="374.0" y="698.0" name="top"/>
  <outline>
    <contour>
      <point x="318" y="0" type="line"/>
      <point x="496" y="0" type="line"/>
      <point x="612" y="698" type="line"/>
      <point x="483" y="698" type="line"/>
      <point x="405" y="230" type="line"/>
      <point x="395" y="230" type="line"/>
      <point x="314" y="698" type="line"/>
      <point x="136" y="698" type="line"/>
      <point x="20" y="0" type="line"/>
      <point x="149" y="0" type="line"/>
      <point x="227" y="468" type="line"/>
      <point x="237" y="468" type="line"/>
    </contour>
  </outline>
</glyph>
<glyph name="P" format="2">
  <advance width="600"/>
  <unicode hex="0050"/>
  <anchor x="110.0" y="0.0" name="bottom"/>
  <anchor x="363.0" y="698.0" name="top"/>
  <outline>
    <contour>
      <point x="185" y="0" type="line"/>
      <point x="228" y="256" type="line"/>
      <point x="347" y="256" type="line" smooth="yes"/>
      <point x="498" y="256"/>
      <point x="596" y="354"/>
      <point x="596" y="513" type="curve" smooth="yes"/>
      <point x="596" y="621"/>
      <point x="530" y="698"/>
      <point x="406" y="698" type="curve" smooth="yes"/>
      <point x="154" y="698" type="line"/>
      <point x="37" y="0" type="line"/>
    </contour>
    <contour>
      <point x="282" y="579" type="line"/>
      <point x="360" y="579" type="line" smooth="yes"/>
      <point x="419" y="579"/>
      <point x="442" y="561"/>
      <point x="442" y="516" type="curve" smooth="yes"/>
      <point x="442" y="505"/>
      <point x="441" y="495"/>
      <point x="440" y="489" type="curve" smooth="yes"/>
      <point x="435" y="459" type="line" smooth="yes"/>
      <point x="425" y="399"/>
      <point x="394" y="376"/>
      <point x="326" y="376" type="curve" smooth="yes"/>
      <point x="248" y="376" type="line"/>
    </contour>
  </outline>
</glyph>
<glyph name="T" format="2">
  <advance width="600"/>
  <unicode hex="0054"/>
  <anchor x="258.0" y="0.0" name="bottom"/>
  <anchor x="373.0" y="698.0" name="top"/>
  <outline>
    <contour>
      <point x="629" y="576" type="line"/>
      <point x="649" y="698" type="line"/>
      <point x="97" y="698" type="line"/>
      <point x="77" y="576" type="line"/>
      <point x="279" y="576" type="line"/>
      <point x="183" y="0" type="line"/>
      <point x="331" y="0" type="line"/>
      <point x="427" y="576" type="line"/>
    </contour>
  </outline>
</glyph>
<glyph name="U" format="2">
  <advance width="600"/>
  <unicode hex="0055"/>
  <anchor x="267.0" y="0.0" name="bottom"/>
  <anchor x="404.0" y="0.0" name="bottomright"/>
  <anchor x="371.0" y="698.0" name="top"/>
  <outline>
    <contour>
      <point x="128" y="698" type="line"/>
      <point x="60" y="291" type="line" smooth="yes"/>
      <point x="53" y="249"/>
      <point x="49" y="210"/>
      <point x="49" y="176" type="curve" smooth="yes"/>
      <point x="49" y="62"/>
      <point x="103" y="-12"/>
      <point x="269" y="-12" type="curve" smooth="yes"/>
      <point x="470" y="-12"/>
      <point x="516" y="86"/>
      <point x="547" y="272" type="curve" smooth="yes"/>
      <point x="618" y="698" type="line"/>
      <point x="471" y="698" type="line"/>
      <point x="397" y="255" type="line" smooth="yes"/>
      <point x="382" y="165"/>
      <point x="366" y="108"/>
      <point x="277" y="108" type="curve" smooth="yes"/>
      <point x="216" y="108"/>
      <point x="194" y="136"/>
      <point x="194" y="186" type="curve" smooth="yes"/>
      <point x="194" y="200"/>
      <point x="196" y="224"/>
      <point x="202" y="260" type="curve" smooth="yes"/>
      <point x="275" y="698" type="line"/>
    </contour>
  </outline>
</glyph>
<glyph name="V" format="2">
  <advance width="600"/>
  <unicode hex="0056"/>
  <anchor x="257.0" y="0.0" name="bottom"/>
  <anchor x="374.0" y="698.0" name="top"/>
  <outline>
    <contour>
      <point x="363" y="0" type="line"/>
      <point x="661" y="698" type="line"/>
      <point x="499" y="698" type="line"/>
      <point x="363" y="347" type="line"/>
      <point x="285" y="142" type="line"/>
      <point x="276" y="142" type="line"/>
      <point x="267" y="347" type="line"/>
      <point x="243" y="698" type="line"/>
      <point x="85" y="698" type="line"/>
      <point x="152" y="0" type="line"/>
    </contour>
  </outline>
</glyph>
<glyph name="W" format="2">
  <advance width="600"/>
  <unicode hex="0057"/>
  <anchor x="256.0" y="0.0" name="bottom"/>
  <anchor x="374.0" y="698.0" name="top"/>
  <outline>
    <contour>
      <point x="200" y="0" type="line"/>
      <point x="317" y="386" type="line"/>
      <point x="327" y="386" type="line"/>
      <point x="312" y="0" type="line"/>
      <point x="502" y="0" type="line"/>
      <point x="661" y="698" type="line"/>
      <point x="540" y="698" type="line"/>
      <point x="447" y="274" type="line"/>
      <point x="420" y="136" type="line"/>
      <point x="411" y="136" type="line"/>
      <point x="417" y="546" type="line"/>
      <point x="282" y="546" type="line"/>
      <point x="155" y="136" type="line"/>
      <point x="146" y="136" type="line"/>
      <point x="163" y="280" type="line"/>
      <point x="211" y="698" type="line"/>
      <point x="84" y="698" type="line"/>
      <point x="10" y="0" type="line"/>
    </contour>
  </outline>
</glyph>
<glyph name="X" format="2">
  <advance width="600"/>
  <unicode hex="0058"/>
  <anchor x="256.0" y="0.0" name="bottom"/>
  <anchor x="373.0" y="698.0" name="top"/>
  <outline>
    <contour>
      <point x="413" y="359" type="line"/>
      <point x="650" y="698" type="line"/>
      <point x="488" y="698" type="line"/>
      <point x="410" y="587" type="line"/>
      <point x="340" y="475" type="line"/>
      <point x="332" y="475" type="line"/>
      <point x="299" y="587" type="line"/>
      <point x="260" y="698" type="line"/>
      <point x="94" y="698" type="line"/>
      <point x="223" y="361" type="line"/>
      <point x="-33" y="0" type="line"/>
      <point x="130" y="0" type="line"/>
      <point x="227" y="139" type="line"/>
      <point x="293" y="249" type="line"/>
      <point x="302" y="249" type="line"/>
      <point x="336" y="139" type="line"/>
      <point x="385" y="0" type="line"/>
      <point x="550" y="0" type="line"/>
    </contour>
  </outline>
</glyph>
<glyph name="Y" format="2">
  <advance width="600"/>
  <unicode hex="0059"/>
  <anchor x="258.0" y="0.0" name="bottom"/>
  <anchor x="367.0" y="698.0" name="top"/>
  <outline>
    <contour>
      <point x="332" y="0" type="line"/>
      <point x="373" y="249" type="line"/>
      <point x="668" y="698" type="line"/>
      <point x="503" y="698" type="line"/>
      <point x="403" y="534" type="line"/>
      <point x="325" y="397" type="line"/>
      <point x="316" y="397" type="line"/>
      <point x="285" y="534" type="line"/>
      <point x="236" y="698" type="line"/>
      <point x="78" y="698" type="line"/>
      <point x="225" y="246" type="line"/>
      <point x="184" y="0" type="line"/>
    </contour>
  </outline>
</glyph>
<glyph name="bracketleft" format="2">
  <advance width="600"/>
  <unicode hex="005B"/>
  <outline>
    <contour>
      <point x="438" y="-138" type="line"/>
      <point x="455" y="-40" type="line"/>
      <point x="252" y="-40" type="line"/>
      <point x="369" y="662" type="line"/>
      <point x="572" y="662" type="line"/>
      <point x="588" y="760" type="line"/>
      <point x="268" y="760" type="line"/>
      <point x="118" y="-138" type="line"/>
    </contour>
  </outline>
</glyph>
<glyph name="backslash" format="2">
  <advance width="600"/>
  <unicode hex="005C"/>
  <outline>
    <contour>
      <point x="449" y="-138" type="line"/>
      <point x="280" y="760" type="line"/>
      <point x="161" y="760" type="line"/>
      <point x="330" y="-138" type="line"/>
    </contour>
  </outline>
</glyph>
<glyph name="bracketright" format="2">
  <advance width="600"/>
  <unicode hex="005D"/>
  <outline>
    <contour>
      <point x="181" y="760" type="line"/>
      <point x="164" y="662" type="line"/>
      <point x="367" y="662" type="line"/>
      <point x="250" y="-40" type="line"/>
      <point x="47" y="-40" type="line"/>
      <point x="31" y="-138" type="line"/>
      <point x="351" y="-138" type="line"/>
      <point x="501" y="760" type="line"/>
    </contour>
  </outline>
</glyph>
<glyph name="asciicircum" format="2">
  <advance width="600"/>
  <unicode hex="005E"/>
  <outline>
    <contour>
      <point x="578" y="304" type="line"/>
      <point x="445" y="698" type="line"/>
      <point x="289" y="698" type="line"/>
      <point x="34" y="304" type="line"/>
      <point x="144" y="252" type="line"/>
      <point x="342" y="562" type="line"/>
      <point x="353" y="562" type="line"/>
      <point x="459" y="256" type="line"/>
    </contour>
  </outline>
</glyph>
<glyph name="underscore" format="2">
  <advance width="600"/>
  <unicode hex="005F"/>
  <outline>
    <contour>
      <point x="463" y="-191" type="line"/>
      <point x="483" y="-72" type="line"/>
      <point x="8" y="-72" type="line"/>
      <point x="-12" y="-191" type="line"/>
    </contour>
  </outline>
</glyph>
<glyph name="b" format="2">
  <advance width="600"/>
  <unicode hex="0062"/>
  <anchor x="318.0" y="0.0" name="bottom"/>
  <outline>
    <contour>
      <point x="21" y="0" type="line"/>
      <point x="167" y="0" type="line"/>
      <point x="183" y="96" type="line"/>
      <point x="190" y="96" type="line"/>
      <point x="205" y="28"/>
      <point x="244" y="-12"/>
      <point x="325" y="-12" type="curve" smooth="yes"/>
      <point x="468" y="-12"/>
      <point x="562" y="123"/>
      <point x="562" y="328" type="curve" smooth="yes"/>
      <point x="562" y="449"/>
      <point x="520" y="528"/>
      <point x="411" y="528" type="curve" smooth="yes"/>
      <point x="323" y="528"/>
      <point x="277" y="472"/>
      <point x="238" y="393" type="curve"/>
      <point x="233" y="393" type="line"/>
      <point x="290" y="740" type="line"/>
      <point x="144" y="740" type="line"/>
    </contour>
    <contour>
      <point x="278" y="101" type="curve" smooth="yes"/>
      <point x="215" y="101"/>
      <point x="189" y="132"/>
      <point x="198" y="186" type="curve" smooth="yes"/>
      <point x="212" y="269" type="line" smooth="yes"/>
      <point x="219" y="312"/>
      <point x="243" y="347"/>
      <point x="259" y="366" type="curve" smooth="yes"/>
      <point x="283" y="396"/>
      <point x="310" y="415"/>
      <point x="346" y="415" type="curve" smooth="yes"/>
      <point x="396" y="415"/>
      <point x="413" y="377"/>
      <point x="414" y="328" type="curve" smooth="yes"/>
      <point x="414" y="311"/>
      <point x="412" y="295"/>
      <point x="410" y="283" type="curve" smooth="yes"/>
      <point x="400" y="223" type="line" smooth="yes"/>
      <point x="387" y="145"/>
      <point x="350" y="101"/>
    </contour>
  </outline>
</glyph>
<glyph name="d" format="2">
  <advance width="600"/>
  <unicode hex="0064"/>
  <anchor x="198.0" y="0.0" name="bottom"/>
  <anchor x="667.0" y="740.0" name="topright"/>
  <outline>
    <contour>
      <point x="347" y="0" type="line"/>
      <point x="493" y="0" type="line"/>
      <point x="616" y="740" type="line"/>
      <point x="470" y="740" type="line"/>
      <point x="417" y="420" type="line"/>
      <point x="410" y="420" type="line"/>
      <point x="395" y="488"/>
      <point x="356" y="528"/>
      <point x="275" y="528" type="curve" smooth="yes"/>
      <point x="132" y="528"/>
      <point x="38" y="393"/>
      <point x="38" y="188" type="curve" smooth="yes"/>
      <point x="38" y="67"/>
      <point x="80" y="-12"/>
      <point x="189" y="-12" type="curve" smooth="yes"/>
      <point x="277" y="-12"/>
      <point x="323" y="44"/>
      <point x="362" y="123" type="curve"/>
      <point x="367" y="123" type="line"/>
    </contour>
    <contour>
      <point x="254" y="101" type="curve" smooth="yes"/>
      <point x="204" y="101"/>
      <point x="187" y="139"/>
      <point x="186" y="188" type="curve" smooth="yes"/>
      <point x="186" y="205"/>
      <point x="188" y="221"/>
      <point x="190" y="233" type="curve" smooth="yes"/>
      <point x="200" y="293" type="line" smooth="yes"/>
      <point x="213" y="371"/>
      <point x="250" y="415"/>
      <point x="322" y="415" type="curve" smooth="yes"/>
      <point x="385" y="415"/>
      <point x="411" y="384"/>
      <point x="402" y="330" type="curve" smooth="yes"/>
      <point x="388" y="247" type="line" smooth="yes"/>
      <point x="381" y="204"/>
      <point x="357" y="169"/>
      <point x="341" y="150" type="curve" smooth="yes"/>
      <point x="317" y="120"/>
      <point x="290" y="101"/>
    </contour>
  </outline>
</glyph>
<glyph name="h" format="2">
  <advance width="600"/>
  <unicode hex="0068"/>
  <anchor x="260.0" y="0.0" name="bottom"/>
  <anchor x="213.0" y="698.0" name="top"/>
  <outline>
    <contour>
      <point x="25" y="0" type="line"/>
      <point x="171" y="0" type="line"/>
      <point x="216" y="269" type="line" smooth="yes"/>
      <point x="223" y="311"/>
      <point x="248" y="349"/>
      <point x="263" y="369" type="curve" smooth="yes"/>
      <point x="286" y="399"/>
      <point x="310" y="416"/>
      <point x="344" y="416" type="curve" smooth="yes"/>
      <point x="389" y="416"/>
      <point x="404" y="382"/>
      <point x="404" y="355" type="curve" smooth="yes"/>
      <point x="404" y="330"/>
      <point x="400" y="311"/>
      <point x="397" y="293" type="curve" smooth="yes"/>
      <point x="348" y="0" type="line"/>
      <point x="494" y="0" type="line"/>
      <point x="540" y="275" type="line" smooth="yes"/>
      <point x="548" y="323"/>
      <point x="551" y="350"/>
      <point x="551" y="379" type="curve" smooth="yes"/>
      <point x="551" y="459"/>
      <point x="511" y="528"/>
      <point x="410" y="528" type="curve" smooth="yes"/>
      <point x="328" y="528"/>
      <point x="281" y="477"/>
      <point x="242" y="393" type="curve"/>
      <point x="237" y="393" type="line"/>
      <point x="294" y="740" type="line"/>
      <point x="148" y="740" type="line"/>
    </contour>
  </outline>
</glyph>
<glyph name="l" format="2">
  <advance width="600"/>
  <unicode hex="006C"/>
  <anchor x="270.0" y="0.0" name="bottom"/>
  <anchor x="326.0" y="698.0" name="top"/>
  <anchor x="470.0" y="740.0" name="topright"/>
  <outline>
    <contour>
      <point x="270" y="-12" type="curve" smooth="yes"/>
      <point x="339" y="-12"/>
      <point x="395" y="27"/>
      <point x="462" y="103" type="curve" smooth="yes"/>
      <point x="523" y="173" type="line"/>
      <point x="443" y="244" type="line"/>
      <point x="303" y="101" type="line"/>
      <point x="288" y="106" type="line"/>
      <point x="405" y="740" type="line"/>
      <point x="106" y="740" type="line"/>
      <point x="87" y="626" type="line"/>
      <point x="239" y="626" type="line"/>
      <point x="158" y="188" type="line" smooth="yes"/>
      <point x="150" y="147"/>
      <point x="148" y="130"/>
      <point x="148" y="108" type="curve" smooth="yes"/>
      <point x="148" y="35"/>
      <point x="188" y="-12"/>
    </contour>
  </outline>
</glyph>
<glyph name="r" format="2">
  <advance width="600"/>
  <unicode hex="0072"/>
  <anchor x="217.0" y="0.0" name="bottom"/>
  <anchor x="356.0" y="516.0" name="top"/>
  <outline>
    <contour>
      <point x="292" y="0" type="line"/>
      <point x="331" y="236" type="line" smooth="yes"/>
      <point x="337" y="272"/>
      <point x="359" y="309"/>
      <point x="372" y="325" type="curve" smooth="yes"/>
      <point x="396" y="355"/>
      <point x="426" y="370"/>
      <point x="480" y="370" type="curve" smooth="yes"/>
      <point x="571" y="370" type="line"/>
      <point x="597" y="516" type="line"/>
      <point x="563" y="516" type="line" smooth="yes"/>
      <point x="462" y="516"/>
      <point x="400" y="458"/>
      <point x="357" y="360" type="curve"/>
      <point x="351" y="360" type="line"/>
      <point x="378" y="516" type="line"/>
      <point x="114" y="516" type="line"/>
      <point x="95" y="402" type="line"/>
      <point x="213" y="402" type="line"/>
      <point x="146" y="0" type="line"/>
    </contour>
  </outline>
</glyph>
<glyph name="t" format="2">
  <advance width="600"/>
  <unicode hex="0074"/>
  <anchor x="281.0" y="0.0" name="bottom"/>
  <anchor x="466.0" y="780.0" name="topright"/>
  <outline>
    <contour>
      <point x="278" y="-12" type="curve" smooth="yes"/>
      <point x="349" y="-12"/>
      <point x="397" y="23"/>
      <point x="482" y="96" type="curve" smooth="yes"/>
      <point x="542" y="148" type="line"/>
      <point x="470" y="230" type="line"/>
      <point x="314" y="107" type="line"/>
      <point x="294" y="114" type="line"/>
      <point x="342" y="402" type="line"/>
      <point x="544" y="402" type="line"/>
      <point x="563" y="516" type="line"/>
      <point x="361" y="516" type="line"/>
      <point x="391" y="698" type="line"/>
      <point x="255" y="698" type="line"/>
      <point x="235" y="576" type="line" smooth="yes"/>
      <point x="228" y="531"/>
      <point x="208" y="516"/>
      <point x="165" y="516" type="curve" smooth="yes"/>
      <point x="82" y="516" type="line"/>
      <point x="63" y="402" type="line"/>
      <point x="195" y="402" type="line"/>
      <point x="158" y="182" type="line" smooth="yes"/>
      <point x="153" y="152"/>
      <point x="151" y="134"/>
      <point x="151" y="116" type="curve" smooth="yes"/>
      <point x="151" y="39"/>
      <point x="190" y="-12"/>
    </contour>
  </outline>
</glyph>
<glyph name="u" format="2">
  <advance width="600"/>
  <unicode hex="0075"/>
  <anchor x="267.0" y="0.0" name="bottom"/>
  <anchor x="488.0" y="0.0" name="bottomright"/>
  <anchor x="338.0" y="516.0" name="top"/>
  <outline>
    <contour>
      <point x="342" y="0" type="line"/>
      <point x="488" y="0" type="line"/>
      <point x="574" y="516" type="line"/>
      <point x="428" y="516" type="line"/>
      <point x="383" y="247" type="line" smooth="yes"/>
      <point x="376" y="205"/>
      <point x="351" y="167"/>
      <point x="336" y="147" type="curve" smooth="yes"/>
      <point x="313" y="117"/>
      <point x="289" y="100"/>
      <point x="255" y="100" type="curve" smooth="yes"/>
      <point x="210" y="100"/>
      <point x="195" y="134"/>
      <point x="195" y="161" type="curve" smooth="yes"/>
      <point x="195" y="186"/>
      <point x="199" y="206"/>
      <point x="202" y="224" type="curve" smooth="yes"/>
      <point x="251" y="516" type="line"/>
      <point x="105" y="516" type="line"/>
      <point x="59" y="241" type="line" smooth="yes"/>
      <point x="51" y="193"/>
      <point x="48" y="166"/>
      <point x="48" y="137" type="curve" smooth="yes"/>
      <point x="48" y="57"/>
      <point x="88" y="-12"/>
      <point x="189" y="-12" type="curve" smooth="yes"/>
      <point x="271" y="-12"/>
      <point x="318" y="39"/>
      <point x="357" y="123" type="curve"/>
      <point x="362" y="123" type="line"/>
    </contour>
  </outline>
</glyph>
<glyph name="v" format="2">
  <advance width="600"/>
  <unicode hex="0076"/>
  <anchor x="238.0" y="0.0" name="bottom"/>
  <anchor x="339.0" y="516.0" name="top"/>
  <outline>
    <contour>
      <point x="55" y="516" type="line"/>
      <point x="36" y="402" type="line"/>
      <point x="125" y="402" type="line"/>
      <point x="90" y="172" type="line" smooth="yes"/>
      <point x="86" y="147"/>
      <point x="84" y="133"/>
      <point x="84" y="111" type="curve" smooth="yes"/>
      <point x="84" y="36"/>
      <point x="126" y="-12"/>
      <point x="211" y="-12" type="curve" smooth="yes"/>
      <point x="385" y="-12"/>
      <point x="553" y="146"/>
      <point x="553" y="350" type="curve" smooth="yes"/>
      <point x="553" y="423"/>
      <point x="536" y="486"/>
      <point x="502" y="528" type="curve"/>
      <point x="372" y="480" type="line"/>
      <point x="393" y="441"/>
      <point x="406" y="395"/>
      <point x="406" y="350" type="curve" smooth="yes"/>
      <point x="406" y="242"/>
      <point x="360" y="133"/>
      <point x="233" y="88" type="curve"/>
      <point x="221" y="96" type="line"/>
      <point x="286" y="516" type="line"/>
    </contour>
  </outline>
</glyph>
<glyph name="bar" format="2">
  <advance width="600"/>
  <unicode hex="007C"/>
  <outline>
    <contour>
      <point x="297" y="-138" type="line"/>
      <point x="447" y="760" type="line"/>
      <point x="323" y="760" type="line"/>
      <point x="173" y="-138" type="line"/>
    </contour>
  </outline>
</glyph>
<glyph name="braceright" format="2">
  <advance width="600"/>
  <unicode hex="007D"/>
  <outline>
    <contour>
      <point x="174" y="760" type="line"/>
      <point x="158" y="662" type="line"/>
      <point x="341" y="662" type="line"/>
      <point x="333" y="613" type="line" smooth="yes"/>
      <point x="325" y="563"/>
      <point x="302" y="541"/>
      <point x="277" y="515" type="curve" smooth="yes"/>
      <point x="246" y="482"/>
      <point x="212" y="449"/>
      <point x="212" y="400" type="curve" smooth="yes"/>
      <point x="212" y="353"/>
      <point x="245" y="323"/>
      <point x="314" y="315" type="curve"/>
      <point x="312" y="307" type="line"/>
      <point x="221" y="297"/>
      <point x="178" y="255"/>
      <point x="178" y="193" type="curve" smooth="yes"/>
      <point x="178" y="159"/>
      <point x="194" y="131"/>
      <point x="209" y="107" type="curve" smooth="yes"/>
      <point x="225" y="81"/>
      <point x="234" y="66"/>
      <point x="234" y="33" type="curve" smooth="yes"/>
      <point x="234" y="23"/>
      <point x="232" y="8"/>
      <point x="224" y="-40" type="curve"/>
      <point x="41" y="-40" type="line"/>
      <point x="24" y="-138" type="line"/>
      <point x="201" y="-138" type="line" smooth="yes"/>
      <point x="290" y="-138"/>
      <point x="333" y="-94"/>
      <point x="343" y="-31" type="curve" smooth="yes"/>
      <point x="345" y="-19"/>
      <point x="353" y="29"/>
      <point x="353" y="43" type="curve" smooth="yes"/>
      <point x="353" y="88"/>
      <point x="335" y="114"/>
      <point x="316" y="142" type="curve" smooth="yes"/>
      <point x="302" y="163"/>
      <point x="296" y="181"/>
      <point x="296" y="197" type="curve" smooth="yes"/>
      <point x="296" y="239"/>
      <point x="338" y="262"/>
      <point x="414" y="262" type="curve" smooth="yes"/>
      <point x="503" y="262" type="line"/>
      <point x="519" y="360" type="line"/>
      <point x="430" y="360" type="line" smooth="yes"/>
      <point x="365" y="360"/>
      <point x="331" y="378"/>
      <point x="331" y="409" type="curve" smooth="yes"/>
      <point x="331" y="429"/>
      <point x="339" y="446"/>
      <point x="373" y="480" type="curve" smooth="yes"/>
      <point x="401" y="508"/>
      <point x="436" y="540"/>
      <point x="449" y="607" type="curve" smooth="yes"/>
      <point x="458" y="653"/>
      <point x="459" y="669"/>
      <point x="459" y="677" type="curve" smooth="yes"/>
      <point x="459" y="726"/>
      <point x="428" y="760"/>
      <point x="350" y="760" type="curve" smooth="yes"/>
    </contour>
  </outline>
</glyph>
<glyph name="asciitilde" format="2">
  <advance width="600"/>
  <unicode hex="007E"/>
  <outline>
    <contour>
      <point x="394" y="173" type="curve" smooth="yes"/>
      <point x="493" y="173"/>
      <point x="560" y="273"/>
      <point x="588" y="403" type="curve"/>
      <point x="485" y="424" type="line"/>
      <point x="465" y="349"/>
      <point x="435" y="296"/>
      <point x="404" y="296" type="curve" smooth="yes"/>
      <point x="375" y="296"/>
      <point x="368" y="318"/>
      <point x="339" y="364" type="curve" smooth="yes"/>
      <point x="319" y="396"/>
      <point x="285" y="436"/>
      <point x="213" y="436" type="curve" smooth="yes"/>
      <point x="114" y="436"/>
      <point x="47" y="336"/>
      <point x="19" y="206" type="curve"/>
      <point x="122" y="185" type="line"/>
      <point x="142" y="260"/>
      <point x="172" y="313"/>
      <point x="203" y="313" type="curve" smooth="yes"/>
      <point x="232" y="313"/>
      <point x="239" y="291"/>
      <point x="268" y="245" type="curve" smooth="yes"/>
      <point x="288" y="213"/>
      <point x="322" y="173"/>
    </contour>
  </outline>
</glyph>
<glyph name="brokenbar" format="2">
  <advance width="600"/>
  <unicode hex="00A6"/>
  <outline>
    <contour>
      <point x="387" y="400" type="line"/>
      <point x="447" y="760" type="line"/>
      <point x="323" y="760" type="line"/>
      <point x="263" y="400" type="line"/>
    </contour>
    <contour>
      <point x="297" y="-138" type="line"/>
      <point x="357" y="221" type="line"/>
      <point x="233" y="221" type="line"/>
      <point x="173" y="-138" type="line"/>
    </contour>
  </outline>
</glyph>
<glyph name="section" format="2">
  <advance width="600"/>
  <unicode hex="00A7"/>
  <outline>
    <contour>
      <point x="464" y="14" type="curve" smooth="yes"/>
      <point x="464" y="62"/>
      <point x="443" y="109"/>
      <point x="395" y="145" type="curve"/>
      <point x="397" y="158" type="line"/>
      <point x="495" y="183"/>
      <point x="539" y="233"/>
      <point x="539" y="313" type="curve" smooth="yes"/>
      <point x="539" y="367"/>
      <point x="497" y="413"/>
      <point x="407" y="444" type="curve" smooth="yes"/>
      <point x="335" y="469" type="line" smooth="yes"/>
      <point x="271" y="491"/>
      <point x="257" y="510"/>
      <point x="257" y="539" type="curve" smooth="yes"/>
      <point x="257" y="579"/>
      <point x="302" y="605"/>
      <point x="354" y="605" type="curve" smooth="yes"/>
      <point x="404" y="605"/>
      <point x="456" y="585"/>
      <point x="485" y="550" type="curve"/>
      <point x="563" y="638" type="line"/>
      <point x="514" y="688"/>
      <point x="432" y="710"/>
      <point x="355" y="710" type="curve" smooth="yes"/>
      <point x="209" y="710"/>
      <point x="130" y="631"/>
      <point x="130" y="520" type="curve" smooth="yes"/>
      <point x="130" y="472"/>
      <point x="151" y="425"/>
      <point x="199" y="389" type="curve"/>
      <point x="197" y="376" type="line"/>
      <point x="99" y="351"/>
      <point x="55" y="301"/>
      <point x="55" y="221" type="curve" smooth="yes"/>
      <point x="55" y="167"/>
      <point x="97" y="121"/>
      <point x="187" y="90" type="curve" smooth="yes"/>
      <point x="259" y="65" type="line" smooth="yes"/>
      <point x="323" y="43"/>
      <point x="337" y="24"/>
      <point x="337" y="-5" type="curve" smooth="yes"/>
      <point x="337" y="-45"/>
      <point x="292" y="-71"/>
      <point x="240" y="-71" type="curve" smooth="yes"/>
      <point x="190" y="-71"/>
      <point x="138" y="-51"/>
      <point x="109" y="-16" type="curve"/>
      <point x="31" y="-104" type="line"/>
      <point x="80" y="-154"/>
      <point x="162" y="-176"/>
      <point x="239" y="-176" type="curve" smooth="yes"/>
      <point x="385" y="-176"/>
      <point x="464" y="-97"/>
    </contour>
    <contour>
      <point x="410" y="255" type="curve" smooth="yes"/>
      <point x="410" y="222"/>
      <point x="396" y="200"/>
      <point x="350" y="169" type="curve"/>
      <point x="343" y="172"/>
      <point x="335" y="175"/>
      <point x="328" y="177" type="curve" smooth="yes"/>
      <point x="255" y="200" type="line" smooth="yes"/>
      <point x="201" y="217"/>
      <point x="184" y="250"/>
      <point x="184" y="279" type="curve" smooth="yes"/>
      <point x="184" y="312"/>
      <point x="198" y="334"/>
      <point x="244" y="365" type="curve"/>
      <point x="251" y="362"/>
      <point x="259" y="359"/>
      <point x="266" y="357" type="curve" smooth="yes"/>
      <point x="339" y="334" type="line" smooth="yes"/>
      <point x="393" y="317"/>
      <point x="410" y="284"/>
    </contour>
  </outline>
</glyph>
<glyph name="dieresis" format="2">
  <advance width="600"/>
  <unicode hex="00A8"/>
  <anchor x="300.0" y="516.0" name="_top"/>
  <outline>
    <contour>
      <point x="208" y="592" type="curve" smooth="yes"/>
      <point x="266" y="592"/>
      <point x="287" y="616"/>
      <point x="293" y="652" type="curve" smooth="yes"/>
      <point x="296" y="670"/>
      <point x="298" y="681"/>
      <point x="298" y="687" type="curve" smooth="yes"/>
      <point x="298" y="718"/>
      <point x="278" y="741"/>
      <point x="224" y="741" type="curve" smooth="yes"/>
      <point x="166" y="741"/>
      <point x="145" y="717"/>
      <point x="139" y="681" type="curve" smooth="yes"/>
      <point x="136" y="663"/>
      <point x="134" y="652"/>
      <point x="134" y="646" type="curve" smooth="yes"/>
      <point x="134" y="615"/>
      <point x="154" y="592"/>
    </contour>
    <contour>
      <point x="426" y="592" type="curve" smooth="yes"/>
      <point x="484" y="592"/>
      <point x="505" y="616"/>
      <point x="511" y="652" type="curve" smooth="yes"/>
      <point x="514" y="670"/>
      <point x="516" y="681"/>
      <point x="516" y="687" type="curve" smooth="yes"/>
      <point x="516" y="718"/>
      <point x="496" y="741"/>
      <point x="442" y="741" type="curve" smooth="yes"/>
      <point x="384" y="741"/>
      <point x="363" y="717"/>
      <point x="357" y="681" type="curve" smooth="yes"/>
      <point x="354" y="663"/>
      <point x="352" y="652"/>
      <point x="352" y="646" type="curve" smooth="yes"/>
      <point x="352" y="615"/>
      <point x="372" y="592"/>
    </contour>
  </outline>
</glyph>
<glyph name="logicalnot" format="2">
  <advance width="600"/>
  <unicode hex="00AC"/>
  <outline>
    <contour>
      <point x="489" y="55" type="line"/>
      <point x="541" y="363" type="line"/>
      <point x="81" y="363" type="line"/>
      <point x="61" y="247" type="line"/>
      <point x="402" y="247" type="line"/>
      <point x="370" y="55" type="line"/>
    </contour>
  </outline>
</glyph>
<glyph name="macron" format="2">
  <advance width="600"/>
  <unicode hex="00AF"/>
  <anchor x="300.0" y="516.0" name="_top"/>
  <outline>
    <contour>
      <point x="164" y="616" type="line"/>
      <point x="469" y="616" type="line"/>
      <point x="486" y="718" type="line"/>
      <point x="181" y="718" type="line"/>
    </contour>
  </outline>
</glyph>
<glyph name="plusminus" format="2">
  <advance width="600"/>
  <unicode hex="00B1"/>
  <outline>
    <contour>
      <point x="352" y="183" type="line"/>
      <point x="380" y="350" type="line"/>
      <point x="554" y="350" type="line"/>
      <point x="574" y="466" type="line"/>
      <point x="399" y="466" type="line"/>
      <point x="427" y="633" type="line"/>
      <point x="301" y="633" type="line"/>
      <point x="273" y="466" type="line"/>
      <point x="98" y="466" type="line"/>
      <point x="78" y="350" type="line"/>
      <point x="254" y="350" type="line"/>
      <point x="226" y="183" type="line"/>
    </contour>
    <contour>
      <point x="496" y="0" type="line"/>
      <point x="516" y="116" type="line"/>
      <point x="40" y="116" type="line"/>
      <point x="20" y="0" type="line"/>
    </contour>
  </outline>
</glyph>
<glyph name="threesuperior" format="2">
  <advance width="600"/>
  <unicode hex="00B3"/>
  <outline>
    <contour>
      <point x="292" y="556" type="line"/>
      <point x="279" y="479" type="line"/>
      <point x="319" y="479" type="line" smooth="yes"/>
      <point x="351" y="479"/>
      <point x="368" y="469"/>
      <point x="368" y="449" type="curve" smooth="yes"/>
      <point x="368" y="445"/>
      <point x="367" y="441"/>
      <point x="366" y="435" type="curve" smooth="yes"/>
      <point x="362" y="411"/>
      <point x="338" y="399"/>
      <point x="310" y="399" type="curve" smooth="yes"/>
      <point x="272" y="399"/>
      <point x="251" y="418"/>
      <point x="239" y="445" type="curve"/>
      <point x="171" y="396" type="line"/>
      <point x="190" y="355"/>
      <point x="231" y="323"/>
      <point x="311" y="323" type="curve" smooth="yes"/>
      <point x="412" y="323"/>
      <point x="470" y="375"/>
      <point x="470" y="441" type="curve" smooth="yes"/>
      <point x="470" y="482"/>
      <point x="448" y="510"/>
      <point x="403" y="520" type="curve"/>
      <point x="403" y="522" type="line"/>
      <point x="464" y="533"/>
      <point x="490" y="569"/>
      <point x="490" y="610" type="curve" smooth="yes"/>
      <point x="490" y="667"/>
      <point x="441" y="704"/>
      <point x="357" y="704" type="curve" smooth="yes"/>
      <point x="292" y="704"/>
      <point x="251" y="682"/>
      <point x="215" y="645" type="curve"/>
      <point x="269" y="585" type="line"/>
      <point x="294" y="616"/>
      <point x="318" y="628"/>
      <point x="345" y="628" type="curve" smooth="yes"/>
      <point x="372" y="628"/>
      <point x="390" y="617"/>
      <point x="390" y="598" type="curve" smooth="yes"/>
      <point x="390" y="594"/>
      <point x="389" y="590"/>
      <point x="388" y="584" type="curve" smooth="yes"/>
      <point x="386" y="572"/>
      <point x="370" y="556"/>
      <point x="327" y="556" type="curve" smooth="yes"/>
    </contour>
  </outline>
</glyph>
<glyph name="acute" format="2">
  <advance width="600"/>
  <unicode hex="00B4"/>
  <anchor x="300.0" y="516.0" name="_top"/>
  <outline>
    <contour>
      <point x="466" y="746" type="line"/>
      <point x="352" y="806" type="line"/>
      <point x="237" y="616" type="line"/>
      <point x="323" y="570" type="line"/>
    </contour>
  </outline>
</glyph>
<glyph name="mu" format="2">
  <advance width="600"/>
  <unicode hex="00B5"/>
  <outline>
    <contour>
      <point x="137" y="-200" type="line"/>
      <point x="153" y="-101" type="line"/>
      <point x="147" y="30" type="line"/>
      <point x="153" y="30" type="line"/>
      <point x="169" y="-3"/>
      <point x="193" y="-12"/>
      <point x="219" y="-12" type="curve" smooth="yes"/>
      <point x="286" y="-12"/>
      <point x="331" y="38"/>
      <point x="360" y="116" type="curve"/>
      <point x="366" y="116" type="line"/>
      <point x="346" y="0" type="line"/>
      <point x="492" y="0" type="line"/>
      <point x="578" y="516" type="line"/>
      <point x="432" y="516" type="line"/>
      <point x="384" y="228" type="line" smooth="yes"/>
      <point x="379" y="195"/>
      <point x="365" y="166"/>
      <point x="347" y="144" type="curve" smooth="yes"/>
      <point x="325" y="117"/>
      <point x="295" y="101"/>
      <point x="267" y="101" type="curve" smooth="yes"/>
      <point x="225" y="101"/>
      <point x="203" y="126"/>
      <point x="203" y="175" type="curve" smooth="yes"/>
      <point x="203" y="186"/>
      <point x="204" y="199"/>
      <point x="206" y="212" type="curve" smooth="yes"/>
      <point x="257" y="516" type="line"/>
      <point x="111" y="516" type="line"/>
      <point x="-9" y="-200" type="line"/>
    </contour>
  </outline>
</glyph>
<glyph name="paragraph" format="2">
  <advance width="600"/>
  <unicode hex="00B6"/>
  <outline>
    <contour>
      <point x="191" y="-148" type="line"/>
      <point x="307" y="-148" type="line"/>
      <point x="429" y="585" type="line"/>
      <point x="500" y="585" type="line"/>
      <point x="378" y="-148" type="line"/>
      <point x="494" y="-148" type="line"/>
      <point x="635" y="699" type="line"/>
      <point x="332" y="699" type="line" smooth="yes"/>
      <point x="196" y="699"/>
      <point x="69" y="591"/>
      <point x="69" y="438" type="curve" smooth="yes"/>
      <point x="69" y="319"/>
      <point x="151" y="246"/>
      <point x="257" y="246" type="curve"/>
    </contour>
  </outline>
</glyph>
<glyph name="onesuperior" format="2">
  <advance width="600"/>
  <unicode hex="00B9"/>
  <outline>
    <contour>
      <point x="454" y="329" type="line"/>
      <point x="467" y="405" type="line"/>
      <point x="395" y="405" type="line"/>
      <point x="444" y="698" type="line"/>
      <point x="288" y="698" type="line"/>
      <point x="199" y="591" type="line"/>
      <point x="260" y="542" type="line"/>
      <point x="329" y="625" type="line"/>
      <point x="335" y="625" type="line"/>
      <point x="298" y="405" type="line"/>
      <point x="217" y="405" type="line"/>
      <point x="204" y="329" type="line"/>
    </contour>
  </outline>
</glyph>
<glyph name="ordmasculine" format="2">
  <advance width="600"/>
  <unicode hex="00BA"/>
  <outline>
    <contour>
      <point x="320" y="333" type="curve" smooth="yes"/>
      <point x="447" y="333"/>
      <point x="528" y="422"/>
      <point x="528" y="557" type="curve" smooth="yes"/>
      <point x="528" y="651"/>
      <point x="472" y="710"/>
      <point x="370" y="710" type="curve" smooth="yes"/>
      <point x="243" y="710"/>
      <point x="162" y="621"/>
      <point x="162" y="486" type="curve" smooth="yes"/>
      <point x="162" y="392"/>
      <point x="218" y="333"/>
    </contour>
    <contour>
      <point x="330" y="409" type="curve" smooth="yes"/>
      <point x="288" y="409"/>
      <point x="264" y="431"/>
      <point x="264" y="471" type="curve" smooth="yes"/>
      <point x="264" y="478"/>
      <point x="265" y="486"/>
      <point x="266" y="492" type="curve" smooth="yes"/>
      <point x="276" y="552" type="line" smooth="yes"/>
      <point x="284" y="600"/>
      <point x="316" y="634"/>
      <point x="360" y="634" type="curve" smooth="yes"/>
      <point x="402" y="634"/>
      <point x="426" y="612"/>
      <point x="426" y="572" type="curve" smooth="yes"/>
      <point x="426" y="565"/>
      <point x="425" y="557"/>
      <point x="424" y="551" type="curve" smooth="yes"/>
      <point x="414" y="491" type="line" smooth="yes"/>
      <point x="406" y="443"/>
      <point x="374" y="409"/>
    </contour>
  </outline>
</glyph>
<glyph name="AE" format="2">
  <advance width="600"/>
  <unicode hex="00C6"/>
  <anchor x="454.0" y="698.0" name="top"/>
  <outline>
    <contour>
      <point x="280" y="0" type="line"/>
      <point x="571" y="0" type="line"/>
      <point x="589" y="110" type="line"/>
      <point x="434" y="110" type="line"/>
      <point x="466" y="298" type="line"/>
      <point x="611" y="298" type="line"/>
      <point x="629" y="408" type="line"/>
      <point x="484" y="408" type="line"/>
      <point x="514" y="588" type="line"/>
      <point x="670" y="588" type="line"/>
      <point x="688" y="698" type="line"/>
      <point x="273" y="698" type="line"/>
      <point x="-3" y="0" type="line"/>
      <point x="141" y="0" type="line"/>
      <point x="204" y="169" type="line"/>
      <point x="308" y="169" type="line"/>
    </contour>
    <contour>
      <point x="380" y="595" type="line"/>
      <point x="327" y="279" type="line"/>
      <point x="243" y="279" type="line"/>
      <point x="357" y="595" type="line"/>
    </contour>
  </outline>
</glyph>
<glyph name="multiply" format="2">
  <advance width="600"/>
  <unicode hex="00D7"/>
  <outline>
    <contour>
      <point x="417" y="76" type="line"/>
      <point x="512" y="157" type="line"/>
      <point x="393" y="301" type="line"/>
      <point x="564" y="447" type="line"/>
      <point x="489" y="534" type="line"/>
      <point x="320" y="390" type="line"/>
      <point x="201" y="534" type="line"/>
      <point x="106" y="453" type="line"/>
      <point x="225" y="310" type="line"/>
      <point x="53" y="164" type="line"/>
      <point x="129" y="76" type="line"/>
      <point x="298" y="220" type="line"/>
    </contour>
  </outline>
</glyph>
<glyph name="Thorn" format="2">
  <advance width="600"/>
  <unicode hex="00DE"/>
  <outline>
    <contour>
      <point x="181" y="0" type="line"/>
      <point x="203" y="134" type="line"/>
      <point x="322" y="134" type="line" smooth="yes"/>
      <point x="473" y="134"/>
      <point x="571" y="232"/>
      <point x="571" y="391" type="curve" smooth="yes"/>
      <point x="571" y="499"/>
      <point x="505" y="576"/>
      <point x="381" y="576" type="curve" smooth="yes"/>
      <point x="278" y="576" type="line"/>
      <point x="298" y="698" type="line"/>
      <point x="150" y="698" type="line"/>
      <point x="33" y="0" type="line"/>
    </contour>
    <contour>
      <point x="257" y="457" type="line"/>
      <point x="335" y="457" type="line" smooth="yes"/>
      <point x="394" y="457"/>
      <point x="417" y="439"/>
      <point x="417" y="394" type="curve" smooth="yes"/>
      <point x="417" y="383"/>
      <point x="416" y="373"/>
      <point x="415" y="367" type="curve" smooth="yes"/>
      <point x="410" y="337" type="line" smooth="yes"/>
      <point x="400" y="277"/>
      <point x="369" y="254"/>
      <point x="301" y="254" type="curve" smooth="yes"/>
      <point x="223" y="254" type="line"/>
    </contour>
  </outline>
</glyph>
<glyph name="eth" format="2">
  <advance width="600"/>
  <unicode hex="00F0"/>
  <outline>
    <contour>
      <point x="552" y="693" type="line"/>
      <point x="513" y="753" type="line"/>
      <point x="418" y="702" type="line"/>
      <point x="403" y="716"/>
      <point x="388" y="728"/>
      <point x="373" y="740" type="curve"/>
      <point x="150" y="740" type="line"/>
      <point x="204" y="709"/>
      <point x="254" y="674"/>
      <point x="295" y="636" type="curve"/>
      <point x="204" y="588" type="line"/>
      <point x="245" y="528" type="line"/>
      <point x="347" y="583" type="line"/>
      <point x="392" y="529"/>
      <point x="423" y="469"/>
      <point x="431" y="408" type="curve"/>
      <point x="423" y="404" type="line"/>
      <point x="400" y="464"/>
      <point x="356" y="500"/>
      <point x="280" y="500" type="curve" smooth="yes"/>
      <point x="138" y="500"/>
      <point x="32" y="375"/>
      <point x="32" y="204" type="curve" smooth="yes"/>
      <point x="32" y="71"/>
      <point x="112" y="-12"/>
      <point x="255" y="-12" type="curve" smooth="yes"/>
      <point x="438" y="-12"/>
      <point x="568" y="102"/>
      <point x="568" y="353" type="curve" smooth="yes"/>
      <point x="568" y="476"/>
      <point x="527" y="574"/>
      <point x="468" y="648" type="curve"/>
    </contour>
    <contour>
      <point x="271" y="97" type="curve" smooth="yes"/>
      <point x="214" y="97"/>
      <point x="179" y="126"/>
      <point x="179" y="183" type="curve" smooth="yes"/>
      <point x="179" y="192"/>
      <point x="180" y="202"/>
      <point x="182" y="214" type="curve" smooth="yes"/>
      <point x="191" y="268" type="line" smooth="yes"/>
      <point x="204" y="346"/>
      <point x="252" y="389"/>
      <point x="319" y="389" type="curve" smooth="yes"/>
      <point x="376" y="389"/>
      <point x="411" y="360"/>
      <point x="411" y="303" type="curve" smooth="yes"/>
      <point x="411" y="294"/>
      <point x="410" y="284"/>
      <point x="408" y="272" type="curve" smooth="yes"/>
      <point x="399" y="218" type="line" smooth="yes"/>
      <point x="386" y="140"/>
      <point x="338" y="97"/>
    </contour>
  </outline>
</glyph>
<glyph name="Aogonek" format="2">
  <advance width="600"/>
  <unicode hex="0104"/>
  <anchor x="261.0" y="0.0" name="bottom"/>
  <anchor x="370.0" y="698.0" name="top"/>
  <outline>
    <contour>
      <point x="-37" y="0" type="line"/>
      <point x="118" y="0" type="line"/>
      <point x="187" y="169" type="line"/>
      <point x="383" y="169" type="line"/>
      <point x="400" y="0" type="line"/>
      <point x="476" y="0" type="line"/>
      <point x="477" y="-4" type="line"/>
      <point x="378" y="-30"/>
      <point x="337" y="-78"/>
      <point x="337" y="-127" type="curve" smooth="yes"/>
      <point x="337" y="-182"/>
      <point x="388" y="-212"/>
      <point x="459" y="-212" type="curve" smooth="yes"/>
      <point x="516" y="-212"/>
      <point x="555" y="-190"/>
      <point x="580" y="-158" type="curve"/>
      <point x="526" y="-113" type="line"/>
      <point x="512" y="-134"/>
      <point x="493" y="-140"/>
      <point x="473" y="-140" type="curve" smooth="yes"/>
      <point x="447" y="-140"/>
      <point x="436" y="-127"/>
      <point x="436" y="-110" type="curve" smooth="yes"/>
      <point x="436" y="-90"/>
      <point x="447" y="-63"/>
      <point x="552" y="0" type="curve"/>
      <point x="476" y="698" type="line"/>
      <point x="270" y="698" type="line"/>
    </contour>
    <contour>
      <point x="377" y="289" type="line"/>
      <point x="237" y="289" type="line"/>
      <point x="347" y="553" type="line"/>
      <point x="356" y="553" type="line"/>
    </contour>
  </outline>
</glyph>
<glyph name="aogonek" format="2">
  <advance width="600"/>
  <unicode hex="0105"/>
  <anchor x="248.0" y="0.0" name="bottom"/>
  <anchor x="326.0" y="516.0" name="top"/>
  <outline>
    <contour>
      <point x="441" y="-212" type="curve" smooth="yes"/>
      <point x="498" y="-212"/>
      <point x="537" y="-190"/>
      <point x="562" y="-158" type="curve"/>
      <point x="508" y="-113" type="line"/>
      <point x="494" y="-134"/>
      <point x="475" y="-140"/>
      <point x="455" y="-140" type="curve" smooth="yes"/>
      <point x="429" y="-140"/>
      <point x="418" y="-127"/>
      <point x="418" y="-110" type="curve" smooth="yes"/>
      <point x="418" y="-90"/>
      <point x="429" y="-63"/>
      <point x="534" y="0" type="curve"/>
      <point x="552" y="107" type="line"/>
      <point x="499" y="107" type="line"/>
      <point x="567" y="516" type="line"/>
      <point x="421" y="516" type="line"/>
      <point x="405" y="420" type="line"/>
      <point x="398" y="420" type="line"/>
      <point x="383" y="488"/>
      <point x="349" y="528"/>
      <point x="271" y="528" type="curve" smooth="yes"/>
      <point x="126" y="528"/>
      <point x="38" y="392"/>
      <point x="38" y="193" type="curve" smooth="yes"/>
      <point x="38" y="68"/>
      <point x="73" y="-12"/>
      <point x="181" y="-12" type="curve" smooth="yes"/>
      <point x="272" y="-12"/>
      <point x="311" y="44"/>
      <point x="350" y="123" type="curve"/>
      <point x="355" y="123" type="line"/>
      <point x="353" y="110" type="line" smooth="yes"/>
      <point x="342" y="38"/>
      <point x="383" y="0"/>
      <point x="458" y="0" type="curve"/>
      <point x="459" y="-4" type="line"/>
      <point x="360" y="-30"/>
      <point x="319" y="-78"/>
      <point x="319" y="-127" type="curve" smooth="yes"/>
      <point x="319" y="-182"/>
      <point x="370" y="-212"/>
    </contour>
    <contour>
      <point x="247" y="101" type="curve" smooth="yes"/>
      <point x="200" y="101"/>
      <point x="186" y="139"/>
      <point x="186" y="187" type="curve" smooth="yes"/>
      <point x="186" y="205"/>
      <point x="188" y="221"/>
      <point x="190" y="233" type="curve" smooth="yes"/>
      <point x="200" y="293" type="line" smooth="yes"/>
      <point x="213" y="371"/>
      <point x="244" y="415"/>
      <point x="317" y="415" type="curve" smooth="yes"/>
      <point x="379" y="415"/>
      <point x="399" y="384"/>
      <point x="390" y="330" type="curve" smooth="yes"/>
      <point x="376" y="247" type="line" smooth="yes"/>
      <point x="369" y="204"/>
      <point x="347" y="168"/>
      <point x="332" y="149" type="curve" smooth="yes"/>
      <point x="309" y="120"/>
      <point x="281" y="101"/>
    </contour>
  </outline>
</glyph>
<glyph name="dcaron" format="2">
  <advance width="600"/>
  <unicode hex="010F"/>
  <outline>
    <contour>
      <point x="150" y="-12" type="curve" smooth="yes"/>
      <point x="215" y="-12"/>
      <point x="246" y="33"/>
      <point x="277" y="95" type="curve"/>
      <point x="284" y="95" type="line"/>
      <point x="268" y="0" type="line"/>
      <point x="407" y="0" type="line"/>
      <point x="531" y="740" type="line"/>
      <point x="392" y="740" type="line"/>
      <point x="338" y="420" type="line"/>
      <point x="332" y="420" type="line"/>
      <point x="317" y="487"/>
      <point x="288" y="528"/>
      <point x="219" y="528" type="curve" smooth="yes"/>
      <point x="100" y="528"/>
      <point x="18" y="393"/>
      <point x="18" y="188" type="curve" smooth="yes"/>
      <point x="18" y="67"/>
      <point x="55" y="-12"/>
    </contour>
    <contour>
      <point x="213" y="101" type="curve" smooth="yes"/>
      <point x="183" y="101"/>
      <point x="165" y="132"/>
      <point x="165" y="172" type="curve" smooth="yes"/>
      <point x="165" y="196"/>
      <point x="167" y="215"/>
      <point x="170" y="233" type="curve" smooth="yes"/>
      <point x="181" y="299" type="line" smooth="yes"/>
      <point x="193" y="370"/>
      <point x="217" y="415"/>
      <point x="267" y="415" type="curve" smooth="yes"/>
      <point x="312" y="415"/>
      <point x="333" y="385"/>
      <point x="324" y="334" type="curve" smooth="yes"/>
      <point x="303" y="210" type="line" smooth="yes"/>
      <point x="296" y="168"/>
      <point x="275" y="135"/>
      <point x="258" y="119" type="curve" smooth="yes"/>
      <point x="245" y="108"/>
      <point x="235" y="101"/>
    </contour>
    <contour>
      <point x="546" y="530" type="line"/>
      <point x="622" y="530" type="line"/>
      <point x="711" y="740" type="line"/>
      <point x="582" y="740" type="line"/>
    </contour>
  </outline>
</glyph>
<glyph name="Dcroat" format="2">
  <advance width="600"/>
  <unicode hex="0110"/>
  <outline>
    <contour>
      <point x="25" y="0" type="line"/>
      <point x="252" y="0" type="line" smooth="yes"/>
      <point x="469" y="0"/>
      <point x="588" y="166"/>
      <point x="588" y="441" type="curve" smooth="yes"/>
      <point x="588" y="606"/>
      <point x="503" y="698"/>
      <point x="347" y="698" type="curve" smooth="yes"/>
      <point x="142" y="698" type="line"/>
      <point x="97" y="424" type="line"/>
      <point x="39" y="424" type="line"/>
      <point x="20" y="312" type="line"/>
      <point x="77" y="312" type="line"/>
    </contour>
    <contour>
      <point x="192" y="117" type="line"/>
      <point x="225" y="317" type="line"/>
      <point x="335" y="317" type="line"/>
      <point x="352" y="419" type="line"/>
      <point x="242" y="419" type="line"/>
      <point x="269" y="581" type="line"/>
      <point x="334" y="581" type="line" smooth="yes"/>
      <point x="405" y="581"/>
      <point x="439" y="545"/>
      <point x="439" y="469" type="curve" smooth="yes"/>
      <point x="439" y="450"/>
      <point x="437" y="425"/>
      <point x="433" y="401" type="curve" smooth="yes"/>
      <point x="412" y="275" type="line" smooth="yes"/>
      <point x="394" y="167"/>
      <point x="344" y="117"/>
      <point x="255" y="117" type="curve" smooth="yes"/>
    </contour>
  </outline>
</glyph>
<glyph name="Eogonek" format="2">
  <advance width="600"/>
  <unicode hex="0118"/>
  <anchor x="283.0" y="0.0" name="bottom"/>
  <anchor x="373.0" y="698.0" name="top"/>
  <outline>
    <contour>
      <point x="38" y="0" type="line"/>
      <point x="408" y="0" type="line"/>
      <point x="409" y="-4" type="line"/>
      <point x="310" y="-30"/>
      <point x="269" y="-78"/>
      <point x="269" y="-127" type="curve" smooth="yes"/>
      <point x="269" y="-182"/>
      <point x="320" y="-212"/>
      <point x="391" y="-212" type="curve" smooth="yes"/>
      <point x="448" y="-212"/>
      <point x="487" y="-190"/>
      <point x="512" y="-158" type="curve"/>
      <point x="458" y="-113" type="line"/>
      <point x="444" y="-134"/>
      <point x="425" y="-140"/>
      <point x="405" y="-140" type="curve" smooth="yes"/>
      <point x="379" y="-140"/>
      <point x="368" y="-127"/>
      <point x="368" y="-110" type="curve" smooth="yes"/>
      <point x="368" y="-90"/>
      <point x="379" y="-63"/>
      <point x="484" y="0" type="curve"/>
      <point x="504" y="122" type="line"/>
      <point x="205" y="122" type="line"/>
      <point x="234" y="292" type="line"/>
      <point x="520" y="292" type="line"/>
      <point x="540" y="414" type="line"/>
      <point x="254" y="414" type="line"/>
      <point x="281" y="576" type="line"/>
      <point x="581" y="576" type="line"/>
      <point x="601" y="698" type="line"/>
      <point x="155" y="698" type="line"/>
    </contour>
  </outline>
</glyph>
<glyph name="Iogonek" format="2">
  <advance width="600"/>
  <unicode hex="012E"/>
  <anchor x="258.0" y="0.0" name="bottom"/>
  <anchor x="374.0" y="698.0" name="top"/>
  <outline>
    <contour>
      <point x="32" y="0" type="line"/>
      <point x="407" y="0" type="line"/>
      <point x="408" y="-4" type="line"/>
      <point x="309" y="-30"/>
      <point x="268" y="-78"/>
      <point x="268" y="-127" type="curve" smooth="yes"/>
      <point x="268" y="-182"/>
      <point x="319" y="-212"/>
      <point x="390" y="-212" type="curve" smooth="yes"/>
      <point x="447" y="-212"/>
      <point x="486" y="-190"/>
      <point x="511" y="-158" type="curve"/>
      <point x="457" y="-113" type="line"/>
      <point x="443" y="-134"/>
      <point x="424" y="-140"/>
      <point x="404" y="-140" type="curve" smooth="yes"/>
      <point x="378" y="-140"/>
      <point x="367" y="-127"/>
      <point x="367" y="-110" type="curve" smooth="yes"/>
      <point x="367" y="-90"/>
      <point x="377" y="-63"/>
      <point x="482" y="0" type="curve"/>
      <point x="500" y="110" type="line"/>
      <point x="349" y="110" type="line"/>
      <point x="429" y="588" type="line"/>
      <point x="580" y="588" type="line"/>
      <point x="598" y="698" type="line"/>
      <point x="148" y="698" type="line"/>
      <point x="130" y="588" type="line"/>
      <point x="281" y="588" type="line"/>
      <point x="201" y="110" type="line"/>
      <point x="50" y="110" type="line"/>
    </contour>
  </outline>
</glyph>
<glyph name="dotlessi" format="2">
  <advance width="600"/>
  <unicode hex="0131"/>
  <anchor x="292.0" y="0.0" name="bottom"/>
  <anchor x="393.0" y="0.0" name="bottomright"/>
  <anchor x="318.0" y="516.0" name="top"/>
  <outline>
    <contour>
      <point x="298" y="-12" type="curve" smooth="yes"/>
      <point x="367" y="-12"/>
      <point x="423" y="27"/>
      <point x="490" y="103" type="curve" smooth="yes"/>
      <point x="551" y="173" type="line"/>
      <point x="471" y="244" type="line"/>
      <point x="331" y="101" type="line"/>
      <point x="314" y="106" type="line"/>
      <point x="391" y="516" type="line"/>
      <point x="87" y="516" type="line"/>
      <point x="68" y="402" type="line"/>
      <point x="224" y="402" type="line"/>
      <point x="184" y="188" type="line" smooth="yes"/>
      <point x="176" y="147"/>
      <point x="174" y="130"/>
      <point x="174" y="108" type="curve" smooth="yes"/>
      <point x="174" y="35"/>
      <point x="216" y="-12"/>
    </contour>
  </outline>
</glyph>
<glyph name="ij" format="2">
  <advance width="600"/>
  <unicode hex="0133"/>
  <outline>
    <contour>
      <point x="30" y="0" type="line"/>
      <point x="176" y="0" type="line"/>
      <point x="262" y="516" type="line"/>
      <point x="116" y="516" type="line"/>
    </contour>
    <contour>
      <point x="302" y="-212" type="curve" smooth="yes"/>
      <point x="398" y="-212"/>
      <point x="453" y="-152"/>
      <point x="472" y="-37" type="curve" smooth="yes"/>
      <point x="564" y="516" type="line"/>
      <point x="418" y="516" type="line"/>
      <point x="316" y="-96" type="line"/>
      <point x="303" y="-101" type="line"/>
      <point x="220" y="-6" type="line"/>
      <point x="122" y="-78" type="line"/>
      <point x="151" y="-119" type="line" smooth="yes"/>
      <point x="187" y="-169"/>
      <point x="236" y="-212"/>
    </contour>
    <contour>
      <point x="209" y="584" type="curve" smooth="yes"/>
      <point x="273" y="584"/>
      <point x="297" y="611"/>
      <point x="303" y="650" type="curve" smooth="yes"/>
      <point x="308" y="680"/>
      <point x="308" y="683"/>
      <point x="308" y="690" type="curve" smooth="yes"/>
      <point x="308" y="725"/>
      <point x="286" y="751"/>
      <point x="226" y="751" type="curve" smooth="yes"/>
      <point x="162" y="751"/>
      <point x="138" y="724"/>
      <point x="132" y="685" type="curve" smooth="yes"/>
      <point x="127" y="655"/>
      <point x="127" y="652"/>
      <point x="127" y="645" type="curve" smooth="yes"/>
      <point x="127" y="610"/>
      <point x="149" y="584"/>
    </contour>
    <contour>
      <point x="506" y="584" type="curve" smooth="yes"/>
      <point x="570" y="584"/>
      <point x="594" y="611"/>
      <point x="600" y="650" type="curve" smooth="yes"/>
      <point x="605" y="680"/>
      <point x="605" y="683"/>
      <point x="605" y="690" type="curve" smooth="yes"/>
      <point x="605" y="725"/>
      <point x="583" y="751"/>
      <point x="523" y="751" type="curve" smooth="yes"/>
      <point x="459" y="751"/>
      <point x="435" y="724"/>
      <point x="429" y="685" type="curve" smooth="yes"/>
      <point x="424" y="655"/>
      <point x="424" y="652"/>
      <point x="424" y="645" type="curve" smooth="yes"/>
      <point x="424" y="610"/>
      <point x="446" y="584"/>
    </contour>
  </outline>
</glyph>
<glyph name="kgreenlandic" format="2">
  <advance width="600"/>
  <unicode hex="0138"/>
  <anchor x="263.0" y="0.0" name="bottom"/>
  <outline>
    <contour>
      <point x="374" y="0" type="line"/>
      <point x="539" y="0" type="line"/>
      <point x="375" y="301" type="line"/>
      <point x="605" y="516" type="line"/>
      <point x="437" y="516" type="line"/>
      <point x="310" y="397" type="line"/>
      <point x="228" y="315" type="line"/>
      <point x="220" y="315" type="line"/>
      <point x="253" y="516" type="line"/>
      <point x="108" y="516" type="line"/>
      <point x="22" y="0" type="line"/>
      <point x="167" y="0" type="line"/>
      <point x="193" y="157" type="line"/>
      <point x="262" y="219" type="line"/>
    </contour>
  </outline>
</glyph>
<glyph name="Lslash" format="2">
  <advance width="600"/>
  <unicode hex="0141"/>
  <outline>
    <contour>
      <point x="530" y="122" type="line"/>
      <point x="240" y="122" type="line"/>
      <point x="268" y="289" type="line"/>
      <point x="463" y="350" type="line"/>
      <point x="482" y="464" type="line"/>
      <point x="287" y="403" type="line"/>
      <point x="336" y="698" type="line"/>
      <point x="188" y="698" type="line"/>
      <point x="132" y="358" type="line"/>
      <point x="56" y="335" type="line"/>
      <point x="37" y="222" type="line"/>
      <point x="113" y="245" type="line"/>
      <point x="72" y="0" type="line"/>
      <point x="510" y="0" type="line"/>
    </contour>
  </outline>
</glyph>
<glyph name="lslash" format="2">
  <advance width="600"/>
  <unicode hex="0142"/>
  <outline>
    <contour>
      <point x="270" y="-12" type="curve" smooth="yes"/>
      <point x="339" y="-12"/>
      <point x="395" y="27"/>
      <point x="462" y="103" type="curve" smooth="yes"/>
      <point x="523" y="173" type="line"/>
      <point x="443" y="244" type="line"/>
      <point x="303" y="101" type="line"/>
      <point x="288" y="106" type="line"/>
      <point x="329" y="327" type="line"/>
      <point x="478" y="372" type="line"/>
      <point x="496" y="479" type="line"/>
      <point x="349" y="435" type="line"/>
      <point x="405" y="740" type="line"/>
      <point x="106" y="740" type="line"/>
      <point x="87" y="626" type="line"/>
      <point x="239" y="626" type="line"/>
      <point x="196" y="391" type="line"/>
      <point x="69" y="353" type="line"/>
      <point x="51" y="246" type="line"/>
      <point x="176" y="284" type="line"/>
      <point x="158" y="188" type="line" smooth="yes"/>
      <point x="150" y="147"/>
      <point x="148" y="130"/>
      <point x="148" y="108" type="curve" smooth="yes"/>
      <point x="148" y="35"/>
      <point x="188" y="-12"/>
    </contour>
  </outline>
</glyph>
<glyph name="eng" format="2">
  <advance width="600"/>
  <unicode hex="014B"/>
  <anchor x="332.0" y="516.0" name="top"/>
  <outline>
    <contour>
      <point x="318" y="-212" type="curve" smooth="yes"/>
      <point x="414" y="-212"/>
      <point x="469" y="-152"/>
      <point x="488" y="-37" type="curve"/>
      <point x="540" y="275" type="line" smooth="yes"/>
      <point x="548" y="323"/>
      <point x="551" y="350"/>
      <point x="551" y="379" type="curve" smooth="yes"/>
      <point x="551" y="459"/>
      <point x="511" y="528"/>
      <point x="410" y="528" type="curve" smooth="yes"/>
      <point x="328" y="528"/>
      <point x="281" y="477"/>
      <point x="242" y="393" type="curve"/>
      <point x="237" y="393" type="line"/>
      <point x="257" y="516" type="line"/>
      <point x="111" y="516" type="line"/>
      <point x="25" y="0" type="line"/>
      <point x="171" y="0" type="line"/>
      <point x="216" y="269" type="line" smooth="yes"/>
      <point x="223" y="311"/>
      <point x="248" y="349"/>
      <point x="263" y="369" type="curve" smooth="yes"/>
      <point x="286" y="399"/>
      <point x="310" y="416"/>
      <point x="344" y="416" type="curve" smooth="yes"/>
      <point x="389" y="416"/>
      <point x="404" y="382"/>
      <point x="404" y="355" type="curve" smooth="yes"/>
      <point x="404" y="330"/>
      <point x="400" y="311"/>
      <point x="397" y="293" type="curve" smooth="yes"/>
      <point x="332" y="-96" type="line"/>
      <point x="319" y="-101" type="line"/>
      <point x="248" y="-20" type="line"/>
      <point x="155" y="-89" type="line"/>
      <point x="173" y="-115" type="line" smooth="yes"/>
      <point x="208" y="-166"/>
      <point x="251" y="-212"/>
    </contour>
  </outline>
</glyph>
<glyph name="Tcedilla" format="2">
  <advance width="600"/>
  <unicode hex="0162"/>
  <anchor x="373.0" y="698.0" name="top"/>
  <outline>
    <contour>
      <point x="243" y="-212" type="curve" smooth="yes"/>
      <point x="322" y="-212"/>
      <point x="383" y="-175"/>
      <point x="383" y="-114" type="curve" smooth="yes"/>
      <point x="383" y="-70"/>
      <point x="352" y="-52"/>
      <point x="316" y="-52" type="curve" smooth="yes"/>
      <point x="304" y="-52"/>
      <point x="290" y="-54"/>
      <point x="275" y="-59" type="curve"/>
      <point x="272" y="-55" type="line"/>
      <point x="292" y="0" type="line"/>
      <point x="331" y="0" type="line"/>
      <point x="427" y="576" type="line"/>
      <point x="629" y="576" type="line"/>
      <point x="649" y="698" type="line"/>
      <point x="97" y="698" type="line"/>
      <point x="77" y="576" type="line"/>
      <point x="279" y="576" type="line"/>
      <point x="183" y="0" type="line"/>
      <point x="224" y="0" type="line"/>
      <point x="196" y="-74" type="line"/>
      <point x="219" y="-76" type="line" smooth="yes"/>
      <point x="274" y="-81"/>
      <point x="287" y="-97"/>
      <point x="287" y="-112" type="curve" smooth="yes"/>
      <point x="287" y="-132"/>
      <point x="265" y="-141"/>
      <point x="240" y="-141" type="curve" smooth="yes"/>
      <point x="206" y="-141"/>
      <point x="186" y="-125"/>
      <point x="176" y="-113" type="curve"/>
      <point x="125" y="-166" type="line"/>
      <point x="144" y="-191"/>
      <point x="183" y="-212"/>
    </contour>
  </outline>
</glyph>
<glyph name="Tbar" format="2">
  <advance width="600"/>
  <unicode hex="0166"/>
  <anchor x="258.0" y="0.0" name="bottom"/>
  <anchor x="373.0" y="698.0" name="top"/>
  <outline>
    <contour>
      <point x="519" y="284" type="line"/>
      <point x="538" y="396" type="line"/>
      <point x="397" y="396" type="line"/>
      <point x="427" y="576" type="line"/>
      <point x="629" y="576" type="line"/>
      <point x="649" y="698" type="line"/>
      <point x="97" y="698" type="line"/>
      <point x="77" y="576" type="line"/>
      <point x="279" y="576" type="line"/>
      <point x="249" y="396" type="line"/>
      <point x="108" y="396" type="line"/>
      <point x="89" y="284" type="line"/>
      <point x="230" y="284" type="line"/>
      <point x="183" y="0" type="line"/>
      <point x="331" y="0" type="line"/>
      <point x="378" y="284" type="line"/>
    </contour>
  </outline>
</glyph>
<glyph name="tbar" format="2">
  <advance width="600"/>
  <unicode hex="0167"/>
  <anchor x="281.0" y="0.0" name="bottom"/>
  <anchor x="466.0" y="780.0" name="topright"/>
  <outline>
    <contour>
      <point x="281" y="-12" type="curve" smooth="yes"/>
      <point x="339" y="-12"/>
      <point x="390" y="15"/>
      <point x="462" y="65" type="curve" smooth="yes"/>
      <point x="524" y="108" type="line"/>
      <point x="459" y="193" type="line"/>
      <point x="309" y="103" type="line"/>
      <point x="294" y="112" type="line"/>
      <point x="316" y="243" type="line"/>
      <point x="459" y="243" type="line"/>
      <point x="476" y="343" type="line"/>
      <point x="332" y="343" type="line"/>
      <point x="342" y="402" type="line"/>
      <point x="544" y="402" type="line"/>
      <point x="563" y="516" type="line"/>
      <point x="361" y="516" type="line"/>
      <point x="391" y="698" type="line"/>
      <point x="255" y="698" type="line"/>
      <point x="235" y="576" type="line" smooth="yes"/>
      <point x="228" y="531"/>
      <point x="208" y="516"/>
      <point x="165" y="516" type="curve" smooth="yes"/>
      <point x="82" y="516" type="line"/>
      <point x="63" y="402" type="line"/>
      <point x="195" y="402" type="line"/>
      <point x="185" y="343" type="line"/>
      <point x="93" y="343" type="line"/>
      <point x="76" y="243" type="line"/>
      <point x="168" y="243" type="line"/>
      <point x="158" y="182" type="line" smooth="yes"/>
      <point x="153" y="152"/>
      <point x="151" y="134"/>
      <point x="151" y="116" type="curve" smooth="yes"/>
      <point x="151" y="39"/>
      <point x="191" y="-12"/>
    </contour>
  </outline>
</glyph>
<glyph name="Uogonek" format="2">
  <advance width="600"/>
  <unicode hex="0172"/>
  <anchor x="267.0" y="0.0" name="bottom"/>
  <anchor x="371.0" y="698.0" name="top"/>
  <outline>
    <contour>
      <point x="128" y="698" type="line"/>
      <point x="60" y="291" type="line" smooth="yes"/>
      <point x="53" y="249"/>
      <point x="49" y="210"/>
      <point x="49" y="176" type="curve" smooth="yes"/>
      <point x="49" y="62"/>
      <point x="103" y="-12"/>
      <point x="269" y="-12" type="curve" smooth="yes"/>
      <point x="279" y="-12"/>
      <point x="286" y="-12"/>
      <point x="298" y="-10" type="curve"/>
      <point x="300" y="-16" type="line"/>
      <point x="228" y="-43"/>
      <point x="195" y="-83"/>
      <point x="195" y="-127" type="curve" smooth="yes"/>
      <point x="195" y="-182"/>
      <point x="246" y="-212"/>
      <point x="317" y="-212" type="curve" smooth="yes"/>
      <point x="374" y="-212"/>
      <point x="413" y="-190"/>
      <point x="438" y="-158" type="curve"/>
      <point x="384" y="-113" type="line"/>
      <point x="370" y="-134"/>
      <point x="351" y="-140"/>
      <point x="331" y="-140" type="curve" smooth="yes"/>
      <point x="305" y="-140"/>
      <point x="294" y="-127"/>
      <point x="294" y="-110" type="curve" smooth="yes"/>
      <point x="294" y="-90"/>
      <point x="310" y="-37"/>
      <point x="401" y="9" type="curve" smooth="yes"/>
      <point x="502" y="60"/>
      <point x="525" y="142"/>
      <point x="547" y="271" type="curve" smooth="yes"/>
      <point x="618" y="698" type="line"/>
      <point x="471" y="698" type="line"/>
      <point x="397" y="256" type="line" smooth="yes"/>
      <point x="382" y="165"/>
      <point x="366" y="108"/>
      <point x="277" y="108" type="curve" smooth="yes"/>
      <point x="216" y="108"/>
      <point x="194" y="136"/>
      <point x="194" y="186" type="curve" smooth="yes"/>
      <point x="194" y="200"/>
      <point x="196" y="225"/>
      <point x="202" y="261" type="curve" smooth="yes"/>
      <point x="275" y="698" type="line"/>
    </contour>
  </outline>
</glyph>
<glyph name="ohorn" format="2">
  <advance width="600"/>
  <unicode hex="01A1"/>
  <anchor x="259.0" y="0.0" name="bottom"/>
  <anchor x="343.0" y="516.0" name="top"/>
  <outline>
    <contour>
      <point x="265" y="-12" type="curve" smooth="yes"/>
      <point x="438" y="-12"/>
      <point x="557" y="109"/>
      <point x="557" y="306" type="curve" smooth="yes"/>
      <point x="557" y="361"/>
      <point x="545" y="399"/>
      <point x="519" y="433" type="curve"/>
      <point x="589" y="435"/>
      <point x="612" y="466"/>
      <point x="623" y="528" type="curve" smooth="yes"/>
      <point x="640" y="631" type="line"/>
      <point x="517" y="631" type="line"/>
      <point x="497" y="516" type="line"/>
      <point x="418" y="516" type="line"/>
      <point x="393" y="524"/>
      <point x="365" y="528"/>
      <point x="335" y="528" type="curve" smooth="yes"/>
      <point x="162" y="528"/>
      <point x="43" y="407"/>
      <point x="43" y="210" type="curve" smooth="yes"/>
      <point x="43" y="74"/>
      <point x="125" y="-12"/>
    </contour>
    <contour>
      <point x="276" y="97" type="curve" smooth="yes"/>
      <point x="222" y="97"/>
      <point x="188" y="127"/>
      <point x="188" y="188" type="curve" smooth="yes"/>
      <point x="188" y="200"/>
      <point x="191" y="217"/>
      <point x="193" y="229" type="curve" smooth="yes"/>
      <point x="206" y="307" type="line" smooth="yes"/>
      <point x="218" y="379"/>
      <point x="260" y="419"/>
      <point x="324" y="419" type="curve" smooth="yes"/>
      <point x="378" y="419"/>
      <point x="412" y="389"/>
      <point x="412" y="328" type="curve" smooth="yes"/>
      <point x="412" y="316"/>
      <point x="409" y="299"/>
      <point x="407" y="287" type="curve" smooth="yes"/>
      <point x="394" y="209" type="line" smooth="yes"/>
      <point x="382" y="137"/>
      <point x="340" y="97"/>
    </contour>
  </outline>
</glyph>
<glyph name="Uhorn" format="2">
  <advance width="600"/>
  <unicode hex="01AF"/>
  <anchor x="267.0" y="0.0" name="bottom"/>
  <anchor x="370.0" y="698.0" name="top"/>
  <outline>
    <contour>
      <point x="128" y="698" type="line"/>
      <point x="60" y="291" type="line" smooth="yes"/>
      <point x="53" y="249"/>
      <point x="49" y="210"/>
      <point x="49" y="176" type="curve" smooth="yes"/>
      <point x="49" y="62"/>
      <point x="103" y="-12"/>
      <point x="269" y="-12" type="curve" smooth="yes"/>
      <point x="470" y="-12"/>
      <point x="516" y="86"/>
      <point x="547" y="271" type="curve" smooth="yes"/>
      <point x="604" y="617" type="line"/>
      <point x="645" y="629"/>
      <point x="661" y="661"/>
      <point x="670" y="710" type="curve"/>
      <point x="687" y="813" type="line"/>
      <point x="564" y="813" type="line"/>
      <point x="544" y="698" type="line"/>
      <point x="471" y="698" type="line"/>
      <point x="397" y="256" type="line" smooth="yes"/>
      <point x="382" y="165"/>
      <point x="366" y="108"/>
      <point x="277" y="108" type="curve" smooth="yes"/>
      <point x="216" y="108"/>
      <point x="194" y="136"/>
      <point x="194" y="186" type="curve" smooth="yes"/>
      <point x="194" y="200"/>
      <point x="196" y="225"/>
      <point x="202" y="261" type="curve" smooth="yes"/>
      <point x="275" y="698" type="line"/>
    </contour>
  </outline>
</glyph>
<glyph name="uhorn" format="2">
  <advance width="600"/>
  <unicode hex="01B0"/>
  <anchor x="267.0" y="0.0" name="bottom"/>
  <anchor x="338.0" y="516.0" name="top"/>
  <outline>
    <contour>
      <point x="189" y="-12" type="curve" smooth="yes"/>
      <point x="271" y="-12"/>
      <point x="318" y="39"/>
      <point x="357" y="123" type="curve"/>
      <point x="362" y="123" type="line"/>
      <point x="342" y="0" type="line"/>
      <point x="488" y="0" type="line"/>
      <point x="560" y="432" type="line"/>
      <point x="609" y="441"/>
      <point x="628" y="474"/>
      <point x="637" y="528" type="curve" smooth="yes"/>
      <point x="654" y="631" type="line"/>
      <point x="531" y="631" type="line"/>
      <point x="511" y="516" type="line"/>
      <point x="428" y="516" type="line"/>
      <point x="383" y="247" type="line" smooth="yes"/>
      <point x="376" y="205"/>
      <point x="351" y="167"/>
      <point x="336" y="147" type="curve" smooth="yes"/>
      <point x="313" y="117"/>
      <point x="289" y="100"/>
      <point x="255" y="100" type="curve" smooth="yes"/>
      <point x="210" y="100"/>
      <point x="195" y="134"/>
      <point x="195" y="161" type="curve" smooth="yes"/>
      <point x="195" y="186"/>
      <point x="199" y="206"/>
      <point x="202" y="224" type="curve" smooth="yes"/>
      <point x="251" y="516" type="line"/>
      <point x="105" y="516" type="line"/>
      <point x="59" y="241" type="line" smooth="yes"/>
      <point x="51" y="193"/>
      <point x="48" y="166"/>
      <point x="48" y="137" type="curve" smooth="yes"/>
      <point x="48" y="57"/>
      <point x="88" y="-12"/>
    </contour>
  </outline>
</glyph>
<glyph name="dotlessj" format="2">
  <advance width="600"/>
  <unicode hex="0237"/>
  <anchor x="405.0" y="516.0" name="top"/>
  <outline>
    <contour>
      <point x="216" y="-212" type="curve" smooth="yes"/>
      <point x="312" y="-212"/>
      <point x="365" y="-162"/>
      <point x="386" y="-37" type="curve" smooth="yes"/>
      <point x="478" y="516" type="line"/>
      <point x="143" y="516" type="line"/>
      <point x="124" y="402" type="line"/>
      <point x="313" y="402" type="line"/>
      <point x="230" y="-96" type="line"/>
      <point x="217" y="-101" type="line"/>
      <point x="104" y="54" type="line"/>
      <point x="4" y="-15" type="line"/>
      <point x="36" y="-65" type="line" smooth="yes"/>
      <point x="97" y="-160"/>
      <point x="137" y="-212"/>
    </contour>
  </outline>
</glyph>
<glyph name="caron" format="2">
  <advance width="600"/>
  <unicode hex="02C7"/>
  <anchor x="300.0" y="516.0" name="_top"/>
  <outline>
    <contour>
      <point x="377" y="579" type="line"/>
      <point x="531" y="737" type="line"/>
      <point x="461" y="794" type="line"/>
      <point x="327" y="679" type="line"/>
      <point x="221" y="794" type="line"/>
      <point x="145" y="737" type="line"/>
      <point x="253" y="579" type="line"/>
    </contour>
  </outline>
</glyph>
<glyph name="breve" format="2">
  <advance width="600"/>
  <unicode hex="02D8"/>
  <anchor x="300.0" y="516.0" name="_top"/>
  <outline>
    <contour>
      <point x="323" y="570" type="curve" smooth="yes"/>
      <point x="432" y="570"/>
      <point x="489" y="655"/>
      <point x="532" y="740" type="curve"/>
      <point x="449" y="782" type="line"/>
      <point x="423" y="747" type="line" smooth="yes"/>
      <point x="387" y="698"/>
      <point x="365" y="673"/>
      <point x="329" y="673" type="curve" smooth="yes"/>
      <point x="287" y="673"/>
      <point x="269" y="700"/>
      <point x="245" y="745" type="curve" smooth="yes"/>
      <point x="225" y="782" type="line"/>
      <point x="144" y="740" type="line"/>
      <point x="165" y="658"/>
      <point x="210" y="570"/>
    </contour>
  </outline>
</glyph>
<glyph name="dotaccent" format="2">
  <advance width="600"/>
  <unicode hex="02D9"/>
  <anchor x="300.0" y="516.0" name="_top"/>
  <outline>
    <contour>
      <point x="317" y="584" type="curve" smooth="yes"/>
      <point x="377" y="584"/>
      <point x="404" y="608"/>
      <point x="411" y="650" type="curve" smooth="yes"/>
      <point x="415" y="674"/>
      <point x="416" y="683"/>
      <point x="416" y="690" type="curve" smooth="yes"/>
      <point x="416" y="725"/>
      <point x="394" y="751"/>
      <point x="334" y="751" type="curve" smooth="yes"/>
      <point x="274" y="751"/>
      <point x="247" y="727"/>
      <point x="240" y="685" type="curve" smooth="yes"/>
      <point x="236" y="661"/>
      <point x="235" y="652"/>
      <point x="235" y="645" type="curve" smooth="yes"/>
      <point x="235" y="610"/>
      <point x="257" y="584"/>
    </contour>
  </outline>
</glyph>
<glyph name="ring" format="2">
  <advance width="600"/>
  <unicode hex="02DA"/>
  <anchor x="300.0" y="516.0" name="_top"/>
  <outline>
    <contour>
      <point x="309" y="550" type="curve" smooth="yes"/>
      <point x="401" y="550"/>
      <point x="477" y="616"/>
      <point x="477" y="710" type="curve" smooth="yes"/>
      <point x="477" y="780"/>
      <point x="420" y="834"/>
      <point x="347" y="834" type="curve" smooth="yes"/>
      <point x="255" y="834"/>
      <point x="179" y="768"/>
      <point x="179" y="674" type="curve" smooth="yes"/>
      <point x="179" y="604"/>
      <point x="236" y="550"/>
    </contour>
    <contour>
      <point x="317" y="624" type="curve" smooth="yes"/>
      <point x="288" y="624"/>
      <point x="274" y="639"/>
      <point x="274" y="664" type="curve" smooth="yes"/>
      <point x="274" y="674"/>
      <point x="276" y="685"/>
      <point x="280" y="709" type="curve" smooth="yes"/>
      <point x="285" y="739"/>
      <point x="305" y="760"/>
      <point x="339" y="760" type="curve" smooth="yes"/>
      <point x="368" y="760"/>
      <point x="382" y="745"/>
      <point x="382" y="720" type="curve" smooth="yes"/>
      <point x="382" y="710"/>
      <point x="380" y="699"/>
      <point x="376" y="675" type="curve" smooth="yes"/>
      <point x="371" y="645"/>
      <point x="351" y="624"/>
    </contour>
  </outline>
</glyph>
<glyph name="hookcomb" format="2">
  <unicode hex="0309"/>
  <anchor x="0.0" y="516.0" name="_top"/>
  <outline>
    <contour>
      <point x="-91" y="688" type="line"/>
      <point x="31" y="688" type="line"/>
      <point x="-19" y="595" type="line"/>
      <point x="52" y="561" type="line"/>
      <point x="106" y="627" type="line" smooth="yes"/>
      <point x="134" y="662"/>
      <point x="155" y="692"/>
      <point x="155" y="733" type="curve" smooth="yes"/>
      <point x="155" y="766"/>
      <point x="129" y="792"/>
      <point x="74" y="792" type="curve" smooth="yes"/>
      <point x="-73" y="792" type="line"/>
    </contour>
  </outline>
</glyph>
<glyph name="horncomb" format="2">
  <unicode hex="031B"/>
  <outline>
    <contour>
      <point x="141" y="631" type="line"/>
      <point x="18" y="631" type="line"/>
      <point x="-2" y="516" type="line"/>
      <point x="-126" y="516" type="line"/>
      <point x="-141" y="429" type="line"/>
      <point x="11" y="429" type="line" smooth="yes"/>
      <point x="88" y="429"/>
      <point x="113" y="463"/>
      <point x="124" y="528" type="curve" smooth="yes"/>
    </contour>
  </outline>
</glyph>
<glyph name="dotbelowcomb" format="2">
  <unicode hex="0323"/>
  <anchor x="0.0" y="0.0" name="_bottom"/>
  <outline>
    <contour>
      <point x="-28" y="-202" type="curve" smooth="yes"/>
      <point x="27" y="-202"/>
      <point x="49" y="-179"/>
      <point x="55" y="-143" type="curve" smooth="yes"/>
      <point x="58" y="-125"/>
      <point x="60" y="-114"/>
      <point x="60" y="-107" type="curve" smooth="yes"/>
      <point x="60" y="-76"/>
      <point x="42" y="-53"/>
      <point x="-12" y="-53" type="curve" smooth="yes"/>
      <point x="-67" y="-53"/>
      <point x="-89" y="-76"/>
      <point x="-95" y="-112" type="curve" smooth="yes"/>
      <point x="-98" y="-130"/>
      <point x="-100" y="-141"/>
      <point x="-100" y="-148" type="curve" smooth="yes"/>
      <point x="-100" y="-179"/>
      <point x="-82" y="-202"/>
    </contour>
  </outline>
</glyph>
<glyph name="commabelowcomb" format="2">
  <unicode hex="0326"/>
  <anchor x="0.0" y="0.0" name="_bottom"/>
  <outline>
    <contour>
      <point x="-139" y="-269" type="line"/>
      <point x="-51" y="-269" type="line"/>
      <point x="70" y="-54" type="line"/>
      <point x="-86" y="-54" type="line"/>
    </contour>
  </outline>
</glyph>
<glyph name="circumflexbelowcomb" format="2">
  <unicode hex="032D"/>
  <guideline x="0" y="0" angle="80.5" identifier="6bjnT66uPM"/>
  <anchor x="0.0" y="0.0" name="_bottom"/>
  <outline>
    <contour>
      <point x="-72" y="-54" type="line"/>
      <point x="-226" y="-212" type="line"/>
      <point x="-156" y="-269" type="line"/>
      <point x="-22" y="-154" type="line"/>
      <point x="84" y="-269" type="line"/>
      <point x="160" y="-212" type="line"/>
      <point x="52" y="-54" type="line"/>
    </contour>
  </outline>
</glyph>
<glyph name="brevebelowcomb" format="2">
  <unicode hex="032E"/>
  <guideline x="0" y="0" angle="80.5" identifier="TNDtlB923M"/>
  <anchor x="0.0" y="0.0" name="_bottom"/>
  <outline>
    <contour>
      <point x="-38" y="-261" type="curve" smooth="yes"/>
      <point x="71" y="-261"/>
      <point x="128" y="-176"/>
      <point x="171" y="-91" type="curve"/>
      <point x="88" y="-49" type="line"/>
      <point x="62" y="-84" type="line" smooth="yes"/>
      <point x="26" y="-133"/>
      <point x="4" y="-158"/>
      <point x="-32" y="-158" type="curve" smooth="yes"/>
      <point x="-74" y="-158"/>
      <point x="-92" y="-131"/>
      <point x="-116" y="-86" type="curve" smooth="yes"/>
      <point x="-136" y="-49" type="line"/>
      <point x="-217" y="-91" type="line"/>
      <point x="-196" y="-173"/>
      <point x="-151" y="-261"/>
    </contour>
  </outline>
</glyph>
<glyph name="macronbelowcomb" format="2">
  <unicode hex="0331"/>
  <guideline x="0" y="0" angle="80.5" identifier="xEJz3yuvnL"/>
  <anchor x="0.0" y="0.0" name="_bottom"/>
  <outline>
    <contour>
      <point x="-183" y="-184" type="line"/>
      <point x="122" y="-184" type="line"/>
      <point x="139" y="-82" type="line"/>
      <point x="-166" y="-82" type="line"/>
    </contour>
  </outline>
</glyph>
<glyph name="pi" format="2">
  <advance width="600"/>
  <unicode hex="03C0"/>
  <outline>
    <contour>
      <point x="37" y="0" type="line"/>
      <point x="178" y="0" type="line"/>
      <point x="245" y="402" type="line"/>
      <point x="365" y="402" type="line"/>
      <point x="330" y="188" type="line" smooth="yes"/>
      <point x="323" y="147"/>
      <point x="320" y="120"/>
      <point x="320" y="98" type="curve" smooth="yes"/>
      <point x="320" y="25"/>
      <point x="359" y="-12"/>
      <point x="424" y="-12" type="curve" smooth="yes"/>
      <point x="480" y="-12"/>
      <point x="516" y="8"/>
      <point x="569" y="59" type="curve" smooth="yes"/>
      <point x="599" y="88" type="line"/>
      <point x="546" y="147" type="line"/>
      <point x="469" y="91" type="line"/>
      <point x="454" y="96" type="line"/>
      <point x="507" y="402" type="line"/>
      <point x="585" y="402" type="line"/>
      <point x="604" y="516" type="line"/>
      <point x="53" y="516" type="line"/>
      <point x="34" y="402" type="line"/>
      <point x="104" y="402" type="line"/>
    </contour>
  </outline>
</glyph>
<glyph name="uni040A" format="2">
  <advance width="600"/>
  <unicode hex="040A"/>
  <outline>
    <contour>
      <point x="-14" y="0" type="line"/>
      <point x="114" y="0" type="line"/>
      <point x="163" y="297" type="line"/>
      <point x="250" y="297" type="line"/>
      <point x="201" y="0" type="line"/>
      <point x="354" y="0" type="line" smooth="yes"/>
      <point x="500" y="0"/>
      <point x="593" y="99"/>
      <point x="593" y="274" type="curve" smooth="yes"/>
      <point x="593" y="379"/>
      <point x="531" y="446"/>
      <point x="413" y="446" type="curve" smooth="yes"/>
      <point x="403" y="446" type="line"/>
      <point x="445" y="698" type="line"/>
      <point x="317" y="698" type="line"/>
      <point x="269" y="410" type="line"/>
      <point x="182" y="410" type="line"/>
      <point x="230" y="698" type="line"/>
      <point x="102" y="698" type="line"/>
    </contour>
    <contour>
      <point x="347" y="113" type="line"/>
      <point x="384" y="333" type="line"/>
      <point x="395" y="333" type="line" smooth="yes"/>
      <point x="449" y="333"/>
      <point x="459" y="311"/>
      <point x="459" y="273" type="curve" smooth="yes"/>
      <point x="459" y="257"/>
      <point x="458" y="246"/>
      <point x="455" y="224" type="curve" smooth="yes"/>
      <point x="452" y="205" type="line" smooth="yes"/>
      <point x="441" y="138"/>
      <point x="413" y="113"/>
      <point x="359" y="113" type="curve" smooth="yes"/>
    </contour>
  </outline>
</glyph>
<glyph name="uni040F" format="2">
  <advance width="600"/>
  <unicode hex="040F"/>
  <outline>
    <contour>
      <point x="166" y="-150" type="line"/>
      <point x="299" y="-150" type="line"/>
      <point x="324" y="0" type="line"/>
      <point x="496" y="0" type="line"/>
      <point x="612" y="698" type="line"/>
      <point x="464" y="698" type="line"/>
      <point x="368" y="122" type="line"/>
      <point x="188" y="122" type="line"/>
      <point x="284" y="698" type="line"/>
      <point x="136" y="698" type="line"/>
      <point x="20" y="0" type="line"/>
      <point x="191" y="0" type="line"/>
    </contour>
  </outline>
</glyph>
<glyph name="uni0413" format="2">
  <advance width="600"/>
  <unicode hex="0413"/>
  <anchor x="392.0" y="698.0" name="top"/>
  <outline>
    <contour>
      <point x="66" y="0" type="line"/>
      <point x="214" y="0" type="line"/>
      <point x="309" y="576" type="line"/>
      <point x="581" y="576" type="line"/>
      <point x="602" y="698" type="line"/>
      <point x="182" y="698" type="line"/>
    </contour>
  </outline>
</glyph>
<glyph name="uni0414" format="2">
  <advance width="600"/>
  <unicode hex="0414"/>
  <outline>
    <contour>
      <point x="-53" y="-150" type="line"/>
      <point x="82" y="-150" type="line"/>
      <point x="107" y="0" type="line"/>
      <point x="410" y="0" type="line"/>
      <point x="385" y="-150" type="line"/>
      <point x="518" y="-150" type="line"/>
      <point x="563" y="122" type="line"/>
      <point x="495" y="122" type="line"/>
      <point x="591" y="698" type="line"/>
      <point x="220" y="698" type="line"/>
      <point x="188" y="509" type="line" smooth="yes"/>
      <point x="148" y="273"/>
      <point x="98" y="171"/>
      <point x="41" y="122" type="curve"/>
      <point x="-7" y="122" type="line"/>
    </contour>
    <contour>
      <point x="189" y="122" type="line"/>
      <point x="233" y="170"/>
      <point x="275" y="266"/>
      <point x="311" y="479" type="curve" smooth="yes"/>
      <point x="328" y="580" type="line"/>
      <point x="427" y="580" type="line"/>
      <point x="351" y="122" type="line"/>
    </contour>
  </outline>
</glyph>
<glyph name="uni0416" format="2">
  <advance width="600"/>
  <unicode hex="0416"/>
  <anchor x="373.0" y="698.0" name="top"/>
  <outline>
    <contour>
      <point x="-38" y="0" type="line"/>
      <point x="95" y="0" type="line"/>
      <point x="199" y="298" type="line"/>
      <point x="244" y="298" type="line"/>
      <point x="195" y="0" type="line"/>
      <point x="321" y="0" type="line"/>
      <point x="370" y="298" type="line"/>
      <point x="413" y="298" type="line"/>
      <point x="424" y="0" type="line"/>
      <point x="551" y="0" type="line"/>
      <point x="541" y="250" type="line" smooth="yes"/>
      <point x="538" y="314"/>
      <point x="521" y="345"/>
      <point x="479" y="357" type="curve"/>
      <point x="480" y="363" type="line"/>
      <point x="526" y="371"/>
      <point x="551" y="394"/>
      <point x="572" y="456" type="curve" smooth="yes"/>
      <point x="655" y="698" type="line"/>
      <point x="531" y="698" type="line"/>
      <point x="432" y="408" type="line"/>
      <point x="389" y="408" type="line"/>
      <point x="437" y="698" type="line"/>
      <point x="311" y="698" type="line"/>
      <point x="263" y="408" type="line"/>
      <point x="220" y="408" type="line"/>
      <point x="214" y="698" type="line"/>
      <point x="93" y="698" type="line"/>
      <point x="98" y="465" type="line" smooth="yes"/>
      <point x="99" y="403"/>
      <point x="116" y="375"/>
      <point x="156" y="363" type="curve"/>
      <point x="155" y="357" type="line"/>
      <point x="103" y="349"/>
      <point x="72" y="317"/>
      <point x="50" y="251" type="curve" smooth="yes"/>
    </contour>
  </outline>
</glyph>
<glyph name="uni0417" format="2">
  <advance width="600"/>
  <unicode hex="0417"/>
  <anchor x="357.0" y="698.0" name="top"/>
  <outline>
    <contour>
      <point x="262" y="-12" type="curve" smooth="yes"/>
      <point x="437" y="-12"/>
      <point x="532" y="91"/>
      <point x="532" y="219" type="curve" smooth="yes"/>
      <point x="532" y="293"/>
      <point x="493" y="341"/>
      <point x="399" y="357" type="curve"/>
      <point x="400" y="363" type="line"/>
      <point x="499" y="373"/>
      <point x="572" y="443"/>
      <point x="572" y="541" type="curve" smooth="yes"/>
      <point x="572" y="649"/>
      <point x="491" y="710"/>
      <point x="342" y="710" type="curve" smooth="yes"/>
      <point x="237" y="710"/>
      <point x="157" y="672"/>
      <point x="97" y="602" type="curve"/>
      <point x="182" y="516" type="line"/>
      <point x="222" y="566"/>
      <point x="270" y="590"/>
      <point x="327" y="590" type="curve" smooth="yes"/>
      <point x="390" y="590"/>
      <point x="423" y="566"/>
      <point x="423" y="525" type="curve" smooth="yes"/>
      <point x="423" y="519"/>
      <point x="422" y="510"/>
      <point x="421" y="505" type="curve" smooth="yes"/>
      <point x="419" y="494" type="line" smooth="yes"/>
      <point x="408" y="432"/>
      <point x="380" y="409"/>
      <point x="317" y="409" type="curve" smooth="yes"/>
      <point x="229" y="409" type="line"/>
      <point x="209" y="290" type="line"/>
      <point x="297" y="290" type="line" smooth="yes"/>
      <point x="361" y="290"/>
      <point x="382" y="269"/>
      <point x="382" y="229" type="curve" smooth="yes"/>
      <point x="382" y="221"/>
      <point x="381" y="213"/>
      <point x="380" y="206" type="curve" smooth="yes"/>
      <point x="378" y="191" type="line" smooth="yes"/>
      <point x="370" y="139"/>
      <point x="334" y="110"/>
      <point x="271" y="110" type="curve" smooth="yes"/>
      <point x="204" y="110"/>
      <point x="147" y="143"/>
      <point x="111" y="189" type="curve"/>
      <point x="18" y="95" type="line"/>
      <point x="66" y="27"/>
      <point x="151" y="-12"/>
    </contour>
  </outline>
</glyph>
<glyph name="uni0418" format="2">
  <advance width="600"/>
  <unicode hex="0418"/>
  <anchor x="370.0" y="698.0" name="top"/>
  <outline>
    <contour>
      <point x="13" y="0" type="line"/>
      <point x="150" y="0" type="line"/>
      <point x="337" y="286" type="line"/>
      <point x="443" y="448" type="line"/>
      <point x="452" y="448" type="line"/>
      <point x="406" y="259" type="line"/>
      <point x="363" y="0" type="line"/>
      <point x="503" y="0" type="line"/>
      <point x="619" y="698" type="line"/>
      <point x="482" y="698" type="line"/>
      <point x="292" y="407" type="line"/>
      <point x="189" y="250" type="line"/>
      <point x="180" y="250" type="line"/>
      <point x="226" y="439" type="line"/>
      <point x="269" y="698" type="line"/>
      <point x="129" y="698" type="line"/>
    </contour>
  </outline>
</glyph>
<glyph name="uni041A" format="2">
  <advance width="600"/>
  <unicode hex="041A"/>
  <anchor x="378.0" y="698.0" name="top"/>
  <outline>
    <contour>
      <point x="27" y="0" type="line"/>
      <point x="175" y="0" type="line"/>
      <point x="224" y="294" type="line"/>
      <point x="313" y="294" type="line"/>
      <point x="357" y="100" type="line" smooth="yes"/>
      <point x="374" y="27"/>
      <point x="406" y="0"/>
      <point x="471" y="0" type="curve" smooth="yes"/>
      <point x="537" y="0" type="line"/>
      <point x="557" y="122" type="line"/>
      <point x="501" y="122" type="line"/>
      <point x="467" y="272" type="line" smooth="yes"/>
      <point x="455" y="324"/>
      <point x="438" y="347"/>
      <point x="403" y="357" type="curve"/>
      <point x="404" y="363" type="line"/>
      <point x="442" y="369"/>
      <point x="471" y="389"/>
      <point x="498" y="438" type="curve" smooth="yes"/>
      <point x="639" y="698" type="line"/>
      <point x="489" y="698" type="line"/>
      <point x="334" y="413" type="line"/>
      <point x="244" y="413" type="line"/>
      <point x="291" y="698" type="line"/>
      <point x="143" y="698" type="line"/>
    </contour>
  </outline>
</glyph>
<glyph name="uni041B" format="2">
  <advance width="600"/>
  <unicode hex="041B"/>
  <outline>
    <contour>
      <point x="-35" y="-6" type="line"/>
      <point x="-2" y="-6" type="line" smooth="yes"/>
      <point x="67" y="-6"/>
      <point x="120" y="11"/>
      <point x="172" y="63" type="curve" smooth="yes"/>
      <point x="226" y="117"/>
      <point x="276" y="230"/>
      <point x="315" y="459" type="curve" smooth="yes"/>
      <point x="335" y="577" type="line"/>
      <point x="446" y="577" type="line"/>
      <point x="350" y="0" type="line"/>
      <point x="498" y="0" type="line"/>
      <point x="614" y="698" type="line"/>
      <point x="219" y="698" type="line"/>
      <point x="182" y="480" type="line" smooth="yes"/>
      <point x="146" y="268"/>
      <point x="107" y="168"/>
      <point x="57" y="122" type="curve"/>
      <point x="-13" y="122" type="line"/>
    </contour>
  </outline>
</glyph>
<glyph name="uni041F" format="2">
  <advance width="600"/>
  <unicode hex="041F"/>
  <outline>
    <contour>
      <point x="20" y="0" type="line"/>
      <point x="168" y="0" type="line"/>
      <point x="264" y="576" type="line"/>
      <point x="444" y="576" type="line"/>
      <point x="348" y="0" type="line"/>
      <point x="496" y="0" type="line"/>
      <point x="612" y="698" type="line"/>
      <point x="136" y="698" type="line"/>
    </contour>
  </outline>
</glyph>
<glyph name="uni0426" format="2">
  <advance width="600"/>
  <unicode hex="0426"/>
  <outline>
    <contour>
      <point x="414" y="-190" type="curve" smooth="yes"/>
      <point x="476" y="-190"/>
      <point x="514" y="-157"/>
      <point x="527" y="-78" type="curve" smooth="yes"/>
      <point x="561" y="122" type="line"/>
      <point x="483" y="122" type="line"/>
      <point x="579" y="698" type="line"/>
      <point x="431" y="698" type="line"/>
      <point x="335" y="122" type="line"/>
      <point x="177" y="122" type="line"/>
      <point x="273" y="698" type="line"/>
      <point x="125" y="698" type="line"/>
      <point x="9" y="0" type="line"/>
      <point x="451" y="0" type="line"/>
      <point x="433" y="-74" type="line"/>
      <point x="422" y="-79" type="line"/>
      <point x="303" y="-49" type="line" smooth="yes"/>
      <point x="265" y="-39"/>
      <point x="247" y="-36"/>
      <point x="227" y="-36" type="curve" smooth="yes"/>
      <point x="163" y="-36"/>
      <point x="127" y="-74"/>
      <point x="115" y="-148" type="curve" smooth="yes"/>
      <point x="109" y="-186" type="line"/>
      <point x="220" y="-186" type="line"/>
      <point x="228" y="-139" type="line"/>
      <point x="239" y="-134" type="line"/>
      <point x="309" y="-170"/>
      <point x="358" y="-190"/>
    </contour>
  </outline>
</glyph>
<glyph name="uni0427" format="2">
  <advance width="600"/>
  <unicode hex="0427"/>
  <anchor x="359.0" y="698.0" name="top"/>
  <outline>
    <contour>
      <point x="345" y="0" type="line"/>
      <point x="493" y="0" type="line"/>
      <point x="609" y="698" type="line"/>
      <point x="461" y="698" type="line"/>
      <point x="405" y="361" type="line"/>
      <point x="373" y="349"/>
      <point x="337" y="344"/>
      <point x="300" y="344" type="curve" smooth="yes"/>
      <point x="239" y="344"/>
      <point x="216" y="372"/>
      <point x="216" y="416" type="curve" smooth="yes"/>
      <point x="216" y="438"/>
      <point x="217" y="454"/>
      <point x="224" y="496" type="curve" smooth="yes"/>
      <point x="258" y="698" type="line"/>
      <point x="110" y="698" type="line"/>
      <point x="81" y="524" type="line" smooth="yes"/>
      <point x="75" y="486"/>
      <point x="71" y="446"/>
      <point x="71" y="402" type="curve" smooth="yes"/>
      <point x="71" y="286"/>
      <point x="136" y="224"/>
      <point x="266" y="224" type="curve" smooth="yes"/>
      <point x="314" y="224"/>
      <point x="350" y="232"/>
      <point x="380" y="246" type="curve"/>
      <point x="386" y="246" type="line"/>
    </contour>
  </outline>
</glyph>
<glyph name="uni0428" format="2">
  <advance width="600"/>
  <unicode hex="0428"/>
  <outline>
    <contour>
      <point x="-14" y="0" type="line"/>
      <point x="530" y="0" type="line"/>
      <point x="646" y="698" type="line"/>
      <point x="518" y="698" type="line"/>
      <point x="421" y="113" type="line"/>
      <point x="341" y="113" type="line"/>
      <point x="438" y="698" type="line"/>
      <point x="310" y="698" type="line"/>
      <point x="213" y="113" type="line"/>
      <point x="133" y="113" type="line"/>
      <point x="230" y="698" type="line"/>
      <point x="102" y="698" type="line"/>
    </contour>
  </outline>
</glyph>
<glyph name="uni0429" format="2">
  <advance width="600"/>
  <unicode hex="0429"/>
  <outline>
    <contour>
      <point x="422" y="-190" type="curve" smooth="yes"/>
      <point x="484" y="-190"/>
      <point x="522" y="-157"/>
      <point x="535" y="-78" type="curve" smooth="yes"/>
      <point x="568" y="113" type="line"/>
      <point x="511" y="113" type="line"/>
      <point x="608" y="698" type="line"/>
      <point x="488" y="698" type="line"/>
      <point x="391" y="113" type="line"/>
      <point x="318" y="113" type="line"/>
      <point x="415" y="698" type="line"/>
      <point x="295" y="698" type="line"/>
      <point x="198" y="113" type="line"/>
      <point x="125" y="113" type="line"/>
      <point x="222" y="698" type="line"/>
      <point x="102" y="698" type="line"/>
      <point x="-14" y="0" type="line"/>
      <point x="459" y="0" type="line"/>
      <point x="441" y="-74" type="line"/>
      <point x="430" y="-79" type="line"/>
      <point x="329" y="-49" type="line" smooth="yes"/>
      <point x="295" y="-39"/>
      <point x="281" y="-36"/>
      <point x="263" y="-36" type="curve" smooth="yes"/>
      <point x="199" y="-36"/>
      <point x="163" y="-74"/>
      <point x="151" y="-148" type="curve" smooth="yes"/>
      <point x="145" y="-186" type="line"/>
      <point x="256" y="-186" type="line"/>
      <point x="264" y="-139" type="line"/>
      <point x="275" y="-134" type="line"/>
      <point x="358" y="-180"/>
      <point x="382" y="-190"/>
    </contour>
  </outline>
</glyph>
<glyph name="uni042B" format="2">
  <advance width="600"/>
  <unicode hex="042B"/>
  <anchor x="373.0" y="698.0" name="top"/>
  <outline>
    <contour>
      <point x="132" y="112" type="line"/>
      <point x="169" y="334" type="line"/>
      <point x="197" y="334" type="line" smooth="yes"/>
      <point x="251" y="334"/>
      <point x="261" y="312"/>
      <point x="261" y="274" type="curve" smooth="yes"/>
      <point x="261" y="258"/>
      <point x="260" y="246"/>
      <point x="257" y="224" type="curve" smooth="yes"/>
      <point x="254" y="205" type="line" smooth="yes"/>
      <point x="243" y="138"/>
      <point x="215" y="112"/>
      <point x="161" y="112" type="curve" smooth="yes"/>
    </contour>
    <contour>
      <point x="-14" y="0" type="line"/>
      <point x="156" y="0" type="line" smooth="yes"/>
      <point x="302" y="0"/>
      <point x="395" y="99"/>
      <point x="395" y="274" type="curve" smooth="yes"/>
      <point x="395" y="379"/>
      <point x="333" y="446"/>
      <point x="215" y="446" type="curve" smooth="yes"/>
      <point x="188" y="446" type="line"/>
      <point x="230" y="698" type="line"/>
      <point x="102" y="698" type="line"/>
    </contour>
    <contour>
      <point x="402" y="0" type="line"/>
      <point x="530" y="0" type="line"/>
      <point x="646" y="698" type="line"/>
      <point x="518" y="698" type="line"/>
    </contour>
  </outline>
</glyph>
<glyph name="uni042C" format="2">
  <advance width="600"/>
  <unicode hex="042C"/>
  <outline>
    <contour>
      <point x="197" y="118" type="line"/>
      <point x="232" y="328" type="line"/>
      <point x="323" y="328" type="line" smooth="yes"/>
      <point x="382" y="328"/>
      <point x="405" y="307"/>
      <point x="405" y="262" type="curve" smooth="yes"/>
      <point x="405" y="249"/>
      <point x="403" y="235"/>
      <point x="401" y="222" type="curve" smooth="yes"/>
      <point x="398" y="205" type="line" smooth="yes"/>
      <point x="388" y="145"/>
      <point x="357" y="118"/>
      <point x="289" y="118" type="curve" smooth="yes"/>
    </contour>
    <contour>
      <point x="30" y="0" type="line"/>
      <point x="310" y="0" type="line" smooth="yes"/>
      <point x="461" y="0"/>
      <point x="559" y="100"/>
      <point x="559" y="262" type="curve" smooth="yes"/>
      <point x="559" y="367"/>
      <point x="493" y="446"/>
      <point x="369" y="446" type="curve" smooth="yes"/>
      <point x="252" y="446" type="line"/>
      <point x="294" y="698" type="line"/>
      <point x="146" y="698" type="line"/>
    </contour>
  </outline>
</glyph>
<glyph name="uni042D" format="2">
  <advance width="600"/>
  <unicode hex="042D"/>
  <outline>
    <contour>
      <point x="237" y="292" type="line"/>
      <point x="410" y="292" type="line"/>
      <point x="391" y="178"/>
      <point x="350" y="108"/>
      <point x="268" y="108" type="curve" smooth="yes"/>
      <point x="200" y="108"/>
      <point x="178" y="144"/>
      <point x="168" y="208" type="curve"/>
      <point x="25" y="176" type="line"/>
      <point x="44" y="64"/>
      <point x="106" y="-12"/>
      <point x="262" y="-12" type="curve" smooth="yes"/>
      <point x="459" y="-12"/>
      <point x="585" y="173"/>
      <point x="585" y="444" type="curve" smooth="yes"/>
      <point x="585" y="611"/>
      <point x="509" y="710"/>
      <point x="345" y="710" type="curve" smooth="yes"/>
      <point x="216" y="710"/>
      <point x="141" y="655"/>
      <point x="83" y="535" type="curve"/>
      <point x="206" y="490" type="line"/>
      <point x="236" y="550"/>
      <point x="271" y="590"/>
      <point x="335" y="590" type="curve" smooth="yes"/>
      <point x="408" y="590"/>
      <point x="436" y="547"/>
      <point x="436" y="477" type="curve" smooth="yes"/>
      <point x="436" y="451"/>
      <point x="433" y="433"/>
      <point x="430" y="414" type="curve"/>
      <point x="257" y="414" type="line"/>
    </contour>
  </outline>
</glyph>
<glyph name="uni042E" format="2">
  <advance width="600"/>
  <unicode hex="042E"/>
  <outline>
    <contour>
      <point x="356" y="-12" type="curve" smooth="yes"/>
      <point x="406" y="-12"/>
      <point x="445" y="5"/>
      <point x="479" y="39" type="curve" smooth="yes"/>
      <point x="559" y="119"/>
      <point x="608" y="378"/>
      <point x="608" y="508" type="curve" smooth="yes"/>
      <point x="608" y="653"/>
      <point x="556" y="710"/>
      <point x="458" y="710" type="curve" smooth="yes"/>
      <point x="408" y="710"/>
      <point x="369" y="693"/>
      <point x="335" y="659" type="curve" smooth="yes"/>
      <point x="290" y="614"/>
      <point x="254" y="513"/>
      <point x="232" y="410" type="curve"/>
      <point x="182" y="410" type="line"/>
      <point x="230" y="698" type="line"/>
      <point x="102" y="698" type="line"/>
      <point x="-14" y="0" type="line"/>
      <point x="115" y="0" type="line"/>
      <point x="164" y="297" type="line"/>
      <point x="213" y="297" type="line"/>
      <point x="208" y="257"/>
      <point x="206" y="220"/>
      <point x="206" y="190" type="curve" smooth="yes"/>
      <point x="206" y="45"/>
      <point x="258" y="-12"/>
    </contour>
    <contour>
      <point x="362" y="94" type="curve" smooth="yes"/>
      <point x="340" y="94"/>
      <point x="328" y="108"/>
      <point x="328" y="142" type="curve" smooth="yes"/>
      <point x="328" y="160"/>
      <point x="331" y="185"/>
      <point x="336" y="218" type="curve" smooth="yes"/>
      <point x="380" y="480" type="line" smooth="yes"/>
      <point x="397" y="582"/>
      <point x="415" y="604"/>
      <point x="452" y="604" type="curve" smooth="yes"/>
      <point x="474" y="604"/>
      <point x="486" y="590"/>
      <point x="486" y="556" type="curve" smooth="yes"/>
      <point x="486" y="538"/>
      <point x="483" y="513"/>
      <point x="478" y="480" type="curve" smooth="yes"/>
      <point x="434" y="218" type="line" smooth="yes"/>
      <point x="417" y="116"/>
      <point x="399" y="94"/>
    </contour>
  </outline>
</glyph>
<glyph name="uni0431" format="2">
  <advance width="600"/>
  <unicode hex="0431"/>
  <outline>
    <contour>
      <point x="265" y="-12" type="curve" smooth="yes"/>
      <point x="437" y="-12"/>
      <point x="554" y="109"/>
      <point x="554" y="306" type="curve" smooth="yes"/>
      <point x="554" y="428"/>
      <point x="480" y="502"/>
      <point x="383" y="502" type="curve" smooth="yes"/>
      <point x="314" y="502"/>
      <point x="267" y="469"/>
      <point x="231" y="403" type="curve"/>
      <point x="224" y="403" type="line"/>
      <point x="244" y="481"/>
      <point x="273" y="538"/>
      <point x="303" y="568" type="curve" smooth="yes"/>
      <point x="331" y="596"/>
      <point x="370" y="614"/>
      <point x="444" y="616" type="curve" smooth="yes"/>
      <point x="575" y="620" type="line"/>
      <point x="602" y="752" type="line"/>
      <point x="465" y="748" type="line" smooth="yes"/>
      <point x="331" y="744"/>
      <point x="259" y="713"/>
      <point x="197" y="651" type="curve" smooth="yes"/>
      <point x="109" y="563"/>
      <point x="46" y="348"/>
      <point x="46" y="210" type="curve" smooth="yes"/>
      <point x="46" y="74"/>
      <point x="126" y="-12"/>
    </contour>
    <contour>
      <point x="276" y="97" type="curve" smooth="yes"/>
      <point x="220" y="97"/>
      <point x="188" y="127"/>
      <point x="188" y="188" type="curve" smooth="yes"/>
      <point x="188" y="200"/>
      <point x="191" y="217"/>
      <point x="193" y="229" type="curve" smooth="yes"/>
      <point x="202" y="283" type="line" smooth="yes"/>
      <point x="214" y="353"/>
      <point x="252" y="393"/>
      <point x="320" y="393" type="curve" smooth="yes"/>
      <point x="373" y="393"/>
      <point x="409" y="363"/>
      <point x="409" y="302" type="curve" smooth="yes"/>
      <point x="409" y="290"/>
      <point x="406" y="273"/>
      <point x="404" y="261" type="curve" smooth="yes"/>
      <point x="394" y="209" type="line" smooth="yes"/>
      <point x="380" y="137"/>
      <point x="339" y="97"/>
    </contour>
  </outline>
</glyph>
<glyph name="uni0433" format="2">
  <advance width="600"/>
  <unicode hex="0433"/>
  <anchor x="338.0" y="516.0" name="top"/>
  <outline>
    <contour>
      <point x="252" y="-12" type="curve" smooth="yes"/>
      <point x="360" y="-12"/>
      <point x="440" y="24"/>
      <point x="496" y="75" type="curve"/>
      <point x="421" y="152" type="line"/>
      <point x="385" y="118"/>
      <point x="325" y="97"/>
      <point x="270" y="97" type="curve" smooth="yes"/>
      <point x="210" y="97"/>
      <point x="189" y="111"/>
      <point x="189" y="140" type="curve" smooth="yes"/>
      <point x="189" y="168"/>
      <point x="204" y="187"/>
      <point x="276" y="199" type="curve" smooth="yes"/>
      <point x="352" y="212" type="line" smooth="yes"/>
      <point x="480" y="234"/>
      <point x="534" y="301"/>
      <point x="534" y="384" type="curve" smooth="yes"/>
      <point x="534" y="476"/>
      <point x="463" y="528"/>
      <point x="343" y="528" type="curve" smooth="yes"/>
      <point x="237" y="528"/>
      <point x="166" y="491"/>
      <point x="109" y="441" type="curve"/>
      <point x="184" y="364" type="line"/>
      <point x="218" y="394"/>
      <point x="265" y="419"/>
      <point x="325" y="419" type="curve" smooth="yes"/>
      <point x="367" y="419"/>
      <point x="390" y="406"/>
      <point x="390" y="378" type="curve" smooth="yes"/>
      <point x="390" y="350"/>
      <point x="371" y="333"/>
      <point x="303" y="321" type="curve" smooth="yes"/>
      <point x="227" y="308" type="line" smooth="yes"/>
      <point x="99" y="287"/>
      <point x="45" y="219"/>
      <point x="45" y="134" type="curve" smooth="yes"/>
      <point x="45" y="40"/>
      <point x="116" y="-12"/>
    </contour>
  </outline>
</glyph>
<glyph name="uni043A" format="2">
  <advance width="600"/>
  <unicode hex="043A"/>
  <anchor x="330.0" y="516.0" name="top"/>
  <outline>
    <contour>
      <point x="30" y="0" type="line"/>
      <point x="176" y="0" type="line"/>
      <point x="210" y="206" type="line"/>
      <point x="281" y="206" type="line"/>
      <point x="329" y="79" type="line" smooth="yes"/>
      <point x="350" y="23"/>
      <point x="385" y="0"/>
      <point x="445" y="0" type="curve" smooth="yes"/>
      <point x="504" y="0" type="line"/>
      <point x="523" y="114" type="line"/>
      <point x="468" y="114" type="line"/>
      <point x="441" y="186" type="line" smooth="yes"/>
      <point x="422" y="237"/>
      <point x="403" y="254"/>
      <point x="371" y="262" type="curve"/>
      <point x="372" y="269" type="line"/>
      <point x="414" y="277"/>
      <point x="437" y="294"/>
      <point x="466" y="338" type="curve" smooth="yes"/>
      <point x="581" y="516" type="line"/>
      <point x="428" y="516" type="line"/>
      <point x="298" y="315" type="line"/>
      <point x="229" y="315" type="line"/>
      <point x="262" y="516" type="line"/>
      <point x="116" y="516" type="line"/>
    </contour>
  </outline>
</glyph>
<glyph name="uni043B" format="2">
  <advance width="600"/>
  <unicode hex="043B"/>
  <outline>
    <contour>
      <point x="-31" y="-6" type="line"/>
      <point x="16" y="-6" type="line" smooth="yes"/>
      <point x="88" y="-6"/>
      <point x="135" y="15"/>
      <point x="175" y="55" type="curve" smooth="yes"/>
      <point x="223" y="103"/>
      <point x="253" y="169"/>
      <point x="281" y="335" type="curve" smooth="yes"/>
      <point x="293" y="405" type="line"/>
      <point x="397" y="405" type="line"/>
      <point x="329" y="0" type="line"/>
      <point x="475" y="0" type="line"/>
      <point x="561" y="516" type="line"/>
      <point x="177" y="516" type="line"/>
      <point x="148" y="341" type="line" smooth="yes"/>
      <point x="129" y="227"/>
      <point x="106" y="164"/>
      <point x="62" y="114" type="curve"/>
      <point x="-11" y="114" type="line"/>
    </contour>
  </outline>
</glyph>
<glyph name="uni043C" format="2">
  <advance width="600"/>
  <unicode hex="043C"/>
  <outline>
    <contour>
      <point x="10" y="0" type="line"/>
      <point x="129" y="0" type="line"/>
      <point x="168" y="233" type="line"/>
      <point x="180" y="338" type="line"/>
      <point x="188" y="338" type="line"/>
      <point x="270" y="68" type="line"/>
      <point x="442" y="338" type="line"/>
      <point x="450" y="338" type="line"/>
      <point x="426" y="233" type="line"/>
      <point x="387" y="0" type="line"/>
      <point x="506" y="0" type="line"/>
      <point x="591" y="516" type="line"/>
      <point x="453" y="516" type="line"/>
      <point x="315" y="299" type="line"/>
      <point x="307" y="299" type="line"/>
      <point x="241" y="516" type="line"/>
      <point x="95" y="516" type="line"/>
    </contour>
  </outline>
</glyph>
<glyph name="uni043D" format="2">
  <advance width="600"/>
  <unicode hex="043D"/>
  <outline>
    <contour>
      <point x="23" y="0" type="line"/>
      <point x="169" y="0" type="line"/>
      <point x="203" y="205" type="line"/>
      <point x="378" y="205" type="line"/>
      <point x="344" y="0" type="line"/>
      <point x="490" y="0" type="line"/>
      <point x="576" y="516" type="line"/>
      <point x="430" y="516" type="line"/>
      <point x="397" y="316" type="line"/>
      <point x="222" y="316" type="line"/>
      <point x="255" y="516" type="line"/>
      <point x="109" y="516" type="line"/>
    </contour>
  </outline>
</glyph>
<glyph name="uni0447" format="2">
  <advance width="600"/>
  <unicode hex="0447"/>
  <anchor x="332.0" y="516.0" name="top"/>
  <outline>
    <contour>
      <point x="332" y="0" type="line"/>
      <point x="478" y="0" type="line"/>
      <point x="564" y="516" type="line"/>
      <point x="418" y="516" type="line"/>
      <point x="392" y="362" type="line" smooth="yes"/>
      <point x="380" y="292"/>
      <point x="344" y="261"/>
      <point x="282" y="261" type="curve" smooth="yes"/>
      <point x="240" y="261"/>
      <point x="217" y="282"/>
      <point x="217" y="316" type="curve" smooth="yes"/>
      <point x="217" y="332"/>
      <point x="218" y="343"/>
      <point x="222" y="367" type="curve" smooth="yes"/>
      <point x="247" y="516" type="line"/>
      <point x="101" y="516" type="line"/>
      <point x="73" y="348" type="line" smooth="yes"/>
      <point x="70" y="328"/>
      <point x="68" y="308"/>
      <point x="68" y="284" type="curve" smooth="yes"/>
      <point x="68" y="197"/>
      <point x="125" y="149"/>
      <point x="210" y="149" type="curve" smooth="yes"/>
      <point x="282" y="149"/>
      <point x="329" y="178"/>
      <point x="369" y="252" type="curve"/>
      <point x="374" y="252" type="line"/>
    </contour>
  </outline>
</glyph>
<glyph name="uni044A" format="2">
  <advance width="600"/>
  <unicode hex="044A"/>
  <outline>
    <contour>
      <point x="314" y="-12" type="curve" smooth="yes"/>
      <point x="456" y="-12"/>
      <point x="560" y="82"/>
      <point x="560" y="222" type="curve" smooth="yes"/>
      <point x="560" y="318"/>
      <point x="508" y="366"/>
      <point x="430" y="366" type="curve" smooth="yes"/>
      <point x="384" y="366"/>
      <point x="347" y="348"/>
      <point x="309" y="316" type="curve"/>
      <point x="299" y="324" type="line"/>
      <point x="405" y="450" type="line"/>
      <point x="415" y="516" type="line"/>
      <point x="296" y="516" type="line"/>
      <point x="289" y="474" type="line"/>
      <point x="283" y="469" type="line"/>
      <point x="225" y="511"/>
      <point x="189" y="528"/>
      <point x="149" y="528" type="curve" smooth="yes"/>
      <point x="86" y="528"/>
      <point x="46" y="492"/>
      <point x="33" y="416" type="curve" smooth="yes"/>
      <point x="25" y="369" type="line"/>
      <point x="133" y="369" type="line"/>
      <point x="139" y="407" type="line"/>
      <point x="150" y="412" type="line"/>
      <point x="243" y="395" type="line"/>
      <point x="209" y="361" type="line" smooth="yes"/>
      <point x="143" y="295"/>
      <point x="119" y="236"/>
      <point x="119" y="159" type="curve" smooth="yes"/>
      <point x="119" y="62"/>
      <point x="191" y="-12"/>
    </contour>
    <contour>
      <point x="329" y="94" type="curve" smooth="yes"/>
      <point x="286" y="94"/>
      <point x="261" y="116"/>
      <point x="261" y="158" type="curve" smooth="yes"/>
      <point x="261" y="169"/>
      <point x="262" y="177"/>
      <point x="264" y="188" type="curve" smooth="yes"/>
      <point x="272" y="233"/>
      <point x="303" y="267"/>
      <point x="354" y="267" type="curve" smooth="yes"/>
      <point x="393" y="267"/>
      <point x="418" y="248"/>
      <point x="418" y="208" type="curve" smooth="yes"/>
      <point x="418" y="199"/>
      <point x="417" y="190"/>
      <point x="414" y="175" type="curve" smooth="yes"/>
      <point x="404" y="121"/>
      <point x="369" y="94"/>
    </contour>
  </outline>
</glyph>
<glyph name="uni044C" format="2">
  <advance width="600"/>
  <unicode hex="044C"/>
  <outline>
    <contour>
      <point x="279" y="-12" type="curve" smooth="yes"/>
      <point x="426" y="-12"/>
      <point x="536" y="81"/>
      <point x="536" y="231" type="curve" smooth="yes"/>
      <point x="536" y="331"/>
      <point x="485" y="381"/>
      <point x="395" y="381" type="curve" smooth="yes"/>
      <point x="323" y="381"/>
      <point x="277" y="350"/>
      <point x="241" y="290" type="curve"/>
      <point x="235" y="290" type="line"/>
      <point x="273" y="516" type="line"/>
      <point x="127" y="516" type="line"/>
      <point x="84" y="259" type="line" smooth="yes"/>
      <point x="75" y="205"/>
      <point x="73" y="180"/>
      <point x="73" y="159" type="curve" smooth="yes"/>
      <point x="73" y="64"/>
      <point x="147" y="-12"/>
    </contour>
    <contour>
      <point x="294" y="97" type="curve" smooth="yes"/>
      <point x="242" y="97"/>
      <point x="218" y="121"/>
      <point x="218" y="159" type="curve" smooth="yes"/>
      <point x="218" y="173"/>
      <point x="219" y="181"/>
      <point x="221" y="191" type="curve" smooth="yes"/>
      <point x="229" y="239"/>
      <point x="258" y="272"/>
      <point x="325" y="272" type="curve" smooth="yes"/>
      <point x="367" y="272"/>
      <point x="391" y="253"/>
      <point x="391" y="211" type="curve" smooth="yes"/>
      <point x="391" y="203"/>
      <point x="390" y="190"/>
      <point x="387" y="175" type="curve" smooth="yes"/>
      <point x="377" y="125"/>
      <point x="340" y="97"/>
    </contour>
  </outline>
</glyph>
<glyph name="uni044D" format="2">
  <advance width="600"/>
  <unicode hex="044D"/>
  <outline>
    <contour>
      <point x="211" y="210" type="line"/>
      <point x="374" y="210" type="line"/>
      <point x="362" y="137"/>
      <point x="317" y="98"/>
      <point x="248" y="98" type="curve" smooth="yes"/>
      <point x="200" y="98"/>
      <point x="171" y="120"/>
      <point x="155" y="166" type="curve"/>
      <point x="41" y="111" type="line"/>
      <point x="67" y="37"/>
      <point x="126" y="-12"/>
      <point x="248" y="-12" type="curve" smooth="yes"/>
      <point x="432" y="-12"/>
      <point x="534" y="134"/>
      <point x="534" y="310" type="curve" smooth="yes"/>
      <point x="534" y="448"/>
      <point x="458" y="528"/>
      <point x="318" y="528" type="curve" smooth="yes"/>
      <point x="208" y="528"/>
      <point x="145" y="488"/>
      <point x="81" y="402" type="curve"/>
      <point x="172" y="344" type="line"/>
      <point x="216" y="398"/>
      <point x="244" y="418"/>
      <point x="294" y="418" type="curve" smooth="yes"/>
      <point x="363" y="418"/>
      <point x="389" y="380"/>
      <point x="389" y="325" type="curve" smooth="yes"/>
      <point x="389" y="319"/>
      <point x="389" y="313"/>
      <point x="388" y="307" type="curve"/>
      <point x="226" y="307" type="line"/>
    </contour>
  </outline>
</glyph>
<glyph name="uni0459" format="2">
  <advance width="600"/>
  <unicode hex="0459"/>
  <outline>
    <contour>
      <point x="388" y="-12" type="curve" smooth="yes"/>
      <point x="490" y="-12"/>
      <point x="588" y="74"/>
      <point x="588" y="250" type="curve" smooth="yes"/>
      <point x="588" y="340"/>
      <point x="551" y="381"/>
      <point x="493" y="381" type="curve" smooth="yes"/>
      <point x="437" y="381"/>
      <point x="405" y="352"/>
      <point x="381" y="304" type="curve"/>
      <point x="375" y="304" type="line"/>
      <point x="410" y="516" type="line"/>
      <point x="113" y="516" type="line"/>
      <point x="88" y="365" type="line" smooth="yes"/>
      <point x="60" y="198"/>
      <point x="36" y="140"/>
      <point x="4" y="104" type="curve"/>
      <point x="-38" y="104" type="line"/>
      <point x="-56" y="-6" type="line"/>
      <point x="-36" y="-6" type="line" smooth="yes"/>
      <point x="18" y="-6"/>
      <point x="59" y="8"/>
      <point x="97" y="46" type="curve" smooth="yes"/>
      <point x="139" y="88"/>
      <point x="168" y="149"/>
      <point x="201" y="361" type="curve" smooth="yes"/>
      <point x="209" y="412" type="line"/>
      <point x="274" y="412" type="line"/>
      <point x="249" y="260" type="line" smooth="yes"/>
      <point x="241" y="212"/>
      <point x="238" y="178"/>
      <point x="238" y="146" type="curve" smooth="yes"/>
      <point x="238" y="44"/>
      <point x="289" y="-12"/>
    </contour>
    <contour>
      <point x="393" y="85" type="curve" smooth="yes"/>
      <point x="369" y="85"/>
      <point x="353" y="102"/>
      <point x="353" y="143" type="curve" smooth="yes"/>
      <point x="353" y="161"/>
      <point x="356" y="183"/>
      <point x="359" y="200" type="curve" smooth="yes"/>
      <point x="367" y="248"/>
      <point x="392" y="284"/>
      <point x="428" y="284" type="curve" smooth="yes"/>
      <point x="450" y="284"/>
      <point x="464" y="269"/>
      <point x="464" y="235" type="curve" smooth="yes"/>
      <point x="464" y="217"/>
      <point x="462" y="197"/>
      <point x="459" y="181" type="curve" smooth="yes"/>
      <point x="446" y="110"/>
      <point x="423" y="85"/>
    </contour>
  </outline>
</glyph>
<glyph name="uni045A" format="2">
  <advance width="600"/>
  <unicode hex="045A"/>
  <outline>
    <contour>
      <point x="388" y="-12" type="curve" smooth="yes"/>
      <point x="490" y="-12"/>
      <point x="588" y="74"/>
      <point x="588" y="250" type="curve" smooth="yes"/>
      <point x="588" y="340"/>
      <point x="551" y="381"/>
      <point x="493" y="381" type="curve" smooth="yes"/>
      <point x="437" y="381"/>
      <point x="405" y="352"/>
      <point x="381" y="304" type="curve"/>
      <point x="375" y="304" type="line"/>
      <point x="410" y="516" type="line"/>
      <point x="292" y="516" type="line"/>
      <point x="258" y="313" type="line"/>
      <point x="158" y="313" type="line"/>
      <point x="192" y="516" type="line"/>
      <point x="74" y="516" type="line"/>
      <point x="-12" y="0" type="line"/>
      <point x="106" y="0" type="line"/>
      <point x="141" y="209" type="line"/>
      <point x="241" y="209" type="line"/>
      <point x="240" y="201" type="line" smooth="yes"/>
      <point x="238" y="184"/>
      <point x="237" y="167"/>
      <point x="237" y="148" type="curve" smooth="yes"/>
      <point x="237" y="46"/>
      <point x="289" y="-12"/>
    </contour>
    <contour>
      <point x="393" y="85" type="curve" smooth="yes"/>
      <point x="369" y="85"/>
      <point x="353" y="102"/>
      <point x="353" y="143" type="curve" smooth="yes"/>
      <point x="353" y="161"/>
      <point x="356" y="183"/>
      <point x="359" y="200" type="curve" smooth="yes"/>
      <point x="367" y="248"/>
      <point x="392" y="284"/>
      <point x="428" y="284" type="curve" smooth="yes"/>
      <point x="450" y="284"/>
      <point x="464" y="269"/>
      <point x="464" y="235" type="curve" smooth="yes"/>
      <point x="464" y="217"/>
      <point x="462" y="197"/>
      <point x="459" y="181" type="curve" smooth="yes"/>
      <point x="446" y="110"/>
      <point x="423" y="85"/>
    </contour>
  </outline>
</glyph>
<glyph name="uni045F" format="2">
  <advance width="600"/>
  <unicode hex="045F"/>
  <outline>
    <contour>
      <point x="189" y="-12" type="curve" smooth="yes"/>
      <point x="271" y="-12"/>
      <point x="318" y="39"/>
      <point x="357" y="123" type="curve"/>
      <point x="362" y="123" type="line"/>
      <point x="342" y="0" type="line"/>
      <point x="488" y="0" type="line"/>
      <point x="574" y="516" type="line"/>
      <point x="428" y="516" type="line"/>
      <point x="383" y="247" type="line" smooth="yes"/>
      <point x="376" y="205"/>
      <point x="351" y="167"/>
      <point x="336" y="147" type="curve" smooth="yes"/>
      <point x="313" y="117"/>
      <point x="289" y="100"/>
      <point x="255" y="100" type="curve" smooth="yes"/>
      <point x="210" y="100"/>
      <point x="195" y="134"/>
      <point x="195" y="161" type="curve" smooth="yes"/>
      <point x="195" y="186"/>
      <point x="199" y="206"/>
      <point x="202" y="224" type="curve" smooth="yes"/>
      <point x="251" y="516" type="line"/>
      <point x="105" y="516" type="line"/>
      <point x="59" y="241" type="line" smooth="yes"/>
      <point x="51" y="193"/>
      <point x="48" y="166"/>
      <point x="48" y="137" type="curve" smooth="yes"/>
      <point x="48" y="57"/>
      <point x="88" y="-12"/>
    </contour>
    <contour>
      <point x="155" y="-200" type="line"/>
      <point x="284" y="-200" type="line"/>
      <point x="311" y="-42" type="line"/>
      <point x="182" y="-42" type="line"/>
    </contour>
  </outline>
</glyph>
<glyph name="uni0462" format="2">
  <advance width="600"/>
  <unicode hex="0462"/>
  <outline>
    <contour>
      <point x="220" y="118" type="line"/>
      <point x="253" y="314" type="line"/>
      <point x="321" y="314" type="line" smooth="yes"/>
      <point x="380" y="314"/>
      <point x="404" y="297"/>
      <point x="404" y="252" type="curve" smooth="yes"/>
      <point x="404" y="239"/>
      <point x="403" y="233"/>
      <point x="401" y="220" type="curve" smooth="yes"/>
      <point x="397" y="199" type="line" smooth="yes"/>
      <point x="387" y="139"/>
      <point x="357" y="118"/>
      <point x="289" y="118" type="curve" smooth="yes"/>
    </contour>
    <contour>
      <point x="53" y="0" type="line"/>
      <point x="310" y="0" type="line" smooth="yes"/>
      <point x="461" y="0"/>
      <point x="557" y="92"/>
      <point x="557" y="248" type="curve" smooth="yes"/>
      <point x="557" y="353"/>
      <point x="491" y="432"/>
      <point x="367" y="432" type="curve" smooth="yes"/>
      <point x="273" y="432" type="line"/>
      <point x="285" y="505" type="line"/>
      <point x="458" y="505" type="line"/>
      <point x="479" y="630" type="line"/>
      <point x="306" y="630" type="line"/>
      <point x="317" y="698" type="line"/>
      <point x="169" y="698" type="line"/>
      <point x="158" y="630" type="line"/>
      <point x="85" y="630" type="line"/>
      <point x="64" y="505" type="line"/>
      <point x="137" y="505" type="line"/>
    </contour>
  </outline>
</glyph>
<glyph name="uni0463" format="2">
  <advance width="600"/>
  <unicode hex="0463"/>
  <outline>
    <contour>
      <point x="279" y="-12" type="curve" smooth="yes"/>
      <point x="426" y="-12"/>
      <point x="533" y="66"/>
      <point x="533" y="211" type="curve" smooth="yes"/>
      <point x="533" y="306"/>
      <point x="482" y="361"/>
      <point x="392" y="361" type="curve" smooth="yes"/>
      <point x="320" y="361"/>
      <point x="274" y="330"/>
      <point x="238" y="270" type="curve"/>
      <point x="232" y="270" type="line"/>
      <point x="255" y="407" type="line"/>
      <point x="397" y="407" type="line"/>
      <point x="415" y="516" type="line"/>
      <point x="272" y="516" type="line"/>
      <point x="304" y="709" type="line"/>
      <point x="159" y="709" type="line"/>
      <point x="127" y="516" type="line"/>
      <point x="54" y="516" type="line"/>
      <point x="36" y="407" type="line"/>
      <point x="110" y="407" type="line"/>
      <point x="84" y="259" type="line" smooth="yes"/>
      <point x="74" y="205"/>
      <point x="73" y="180"/>
      <point x="73" y="159" type="curve" smooth="yes"/>
      <point x="73" y="64"/>
      <point x="147" y="-12"/>
    </contour>
    <contour>
      <point x="292" y="97" type="curve" smooth="yes"/>
      <point x="241" y="97"/>
      <point x="217" y="118"/>
      <point x="217" y="151" type="curve" smooth="yes"/>
      <point x="217" y="162"/>
      <point x="219" y="174"/>
      <point x="221" y="183" type="curve" smooth="yes"/>
      <point x="231" y="227"/>
      <point x="268" y="252"/>
      <point x="313" y="252" type="curve" smooth="yes"/>
      <point x="364" y="252"/>
      <point x="388" y="231"/>
      <point x="388" y="198" type="curve" smooth="yes"/>
      <point x="388" y="187"/>
      <point x="386" y="175"/>
      <point x="384" y="166" type="curve" smooth="yes"/>
      <point x="374" y="122"/>
      <point x="337" y="97"/>
    </contour>
  </outline>
</glyph>
<glyph name="uni046A" format="2">
  <advance width="600"/>
  <unicode hex="046A"/>
  <outline>
    <contour>
      <point x="-38" y="0" type="line"/>
      <point x="95" y="0" type="line"/>
      <point x="199" y="298" type="line"/>
      <point x="244" y="298" type="line"/>
      <point x="195" y="0" type="line"/>
      <point x="321" y="0" type="line"/>
      <point x="370" y="298" type="line"/>
      <point x="413" y="298" type="line"/>
      <point x="424" y="0" type="line"/>
      <point x="551" y="0" type="line"/>
      <point x="541" y="250" type="line" smooth="yes"/>
      <point x="538" y="316"/>
      <point x="525" y="348"/>
      <point x="486" y="358" type="curve"/>
      <point x="487" y="364" type="line"/>
      <point x="640" y="587" type="line"/>
      <point x="659" y="698" type="line"/>
      <point x="87" y="698" type="line"/>
      <point x="68" y="587" type="line"/>
      <point x="146" y="364" type="line"/>
      <point x="145" y="358" type="line"/>
      <point x="104" y="348"/>
      <point x="73" y="316"/>
      <point x="50" y="250" type="curve" smooth="yes"/>
    </contour>
    <contour>
      <point x="260" y="401" type="line"/>
      <point x="201" y="583" type="line"/>
      <point x="201" y="588" type="line"/>
      <point x="495" y="588" type="line"/>
      <point x="495" y="583" type="line"/>
      <point x="374" y="401" type="line"/>
    </contour>
  </outline>
</glyph>
<glyph name="uni046B" format="2">
  <advance width="600"/>
  <unicode hex="046B"/>
  <outline>
    <contour>
      <point x="-26" y="0" type="line"/>
      <point x="101" y="0" type="line"/>
      <point x="186" y="202" type="line"/>
      <point x="232" y="202" type="line"/>
      <point x="198" y="0" type="line"/>
      <point x="316" y="0" type="line"/>
      <point x="350" y="202" type="line"/>
      <point x="396" y="202" type="line"/>
      <point x="412" y="0" type="line"/>
      <point x="540" y="0" type="line"/>
      <point x="525" y="162" type="line" smooth="yes"/>
      <point x="520" y="215"/>
      <point x="506" y="247"/>
      <point x="471" y="254" type="curve"/>
      <point x="473" y="261" type="line"/>
      <point x="591" y="413" type="line"/>
      <point x="608" y="516" type="line"/>
      <point x="77" y="516" type="line"/>
      <point x="60" y="413" type="line"/>
      <point x="129" y="261" type="line"/>
      <point x="127" y="254" type="line"/>
      <point x="90" y="247"/>
      <point x="66" y="215"/>
      <point x="43" y="162" type="curve" smooth="yes"/>
    </contour>
    <contour>
      <point x="248" y="296" type="line"/>
      <point x="198" y="407" type="line"/>
      <point x="199" y="413" type="line"/>
      <point x="447" y="413" type="line"/>
      <point x="446" y="407" type="line"/>
      <point x="359" y="296" type="line"/>
    </contour>
  </outline>
</glyph>
<glyph name="uni0472" format="2">
  <advance width="600"/>
  <unicode hex="0472"/>
  <outline>
    <contour>
      <point x="279" y="-12" type="curve" smooth="yes"/>
      <point x="501" y="-12"/>
      <point x="592" y="210"/>
      <point x="592" y="447" type="curve" smooth="yes"/>
      <point x="592" y="610"/>
      <point x="518" y="710"/>
      <point x="349" y="710" type="curve" smooth="yes"/>
      <point x="127" y="710"/>
      <point x="36" y="488"/>
      <point x="36" y="251" type="curve" smooth="yes"/>
      <point x="36" y="88"/>
      <point x="110" y="-12"/>
    </contour>
    <contour>
      <point x="278" y="96" type="curve" smooth="yes"/>
      <point x="207" y="96"/>
      <point x="175" y="136"/>
      <point x="175" y="211" type="curve" smooth="yes"/>
      <point x="175" y="238"/>
      <point x="177" y="266"/>
      <point x="182" y="294" type="curve"/>
      <point x="203" y="309"/>
      <point x="219" y="316"/>
      <point x="240" y="316" type="curve" smooth="yes"/>
      <point x="261" y="316"/>
      <point x="280" y="308"/>
      <point x="300" y="297" type="curve" smooth="yes"/>
      <point x="326" y="284"/>
      <point x="339" y="277"/>
      <point x="365" y="277" type="curve" smooth="yes"/>
      <point x="389" y="277"/>
      <point x="413" y="287"/>
      <point x="427" y="296" type="curve"/>
      <point x="425" y="286" type="line" smooth="yes"/>
      <point x="403" y="155"/>
      <point x="365" y="96"/>
    </contour>
    <contour>
      <point x="350" y="602" type="curve" smooth="yes"/>
      <point x="421" y="602"/>
      <point x="453" y="562"/>
      <point x="453" y="487" type="curve" smooth="yes"/>
      <point x="453" y="461"/>
      <point x="452" y="443"/>
      <point x="448" y="419" type="curve"/>
      <point x="427" y="404"/>
      <point x="411" y="397"/>
      <point x="390" y="397" type="curve" smooth="yes"/>
      <point x="369" y="397"/>
      <point x="350" y="405"/>
      <point x="330" y="416" type="curve" smooth="yes"/>
      <point x="304" y="429"/>
      <point x="291" y="436"/>
      <point x="265" y="436" type="curve" smooth="yes"/>
      <point x="241" y="436"/>
      <point x="217" y="426"/>
      <point x="204" y="417" type="curve"/>
      <point x="227" y="546"/>
      <point x="263" y="602"/>
    </contour>
  </outline>
</glyph>
<glyph name="uni0473" format="2">
  <advance width="600"/>
  <unicode hex="0473"/>
  <outline>
    <contour>
      <point x="265" y="-12" type="curve" smooth="yes"/>
      <point x="438" y="-12"/>
      <point x="557" y="109"/>
      <point x="557" y="306" type="curve" smooth="yes"/>
      <point x="557" y="442"/>
      <point x="475" y="528"/>
      <point x="335" y="528" type="curve" smooth="yes"/>
      <point x="162" y="528"/>
      <point x="43" y="407"/>
      <point x="43" y="210" type="curve" smooth="yes"/>
      <point x="43" y="74"/>
      <point x="125" y="-12"/>
    </contour>
    <contour>
      <point x="275" y="86" type="curve" smooth="yes"/>
      <point x="213" y="86"/>
      <point x="177" y="117"/>
      <point x="177" y="183" type="curve" smooth="yes"/>
      <point x="177" y="191"/>
      <point x="178" y="202"/>
      <point x="180" y="212" type="curve"/>
      <point x="200" y="223"/>
      <point x="213" y="227"/>
      <point x="232" y="227" type="curve" smooth="yes"/>
      <point x="253" y="227"/>
      <point x="267" y="222"/>
      <point x="287" y="213" type="curve" smooth="yes"/>
      <point x="309" y="203"/>
      <point x="326" y="197"/>
      <point x="353" y="197" type="curve" smooth="yes"/>
      <point x="372" y="197"/>
      <point x="392" y="204"/>
      <point x="405" y="212" type="curve"/>
      <point x="404" y="206" type="line" smooth="yes"/>
      <point x="391" y="129"/>
      <point x="347" y="86"/>
    </contour>
    <contour>
      <point x="325" y="430" type="curve" smooth="yes"/>
      <point x="387" y="430"/>
      <point x="423" y="399"/>
      <point x="423" y="333" type="curve" smooth="yes"/>
      <point x="423" y="326"/>
      <point x="422" y="319"/>
      <point x="420" y="309" type="curve"/>
      <point x="400" y="298"/>
      <point x="387" y="294"/>
      <point x="368" y="294" type="curve" smooth="yes"/>
      <point x="347" y="294"/>
      <point x="333" y="299"/>
      <point x="313" y="308" type="curve" smooth="yes"/>
      <point x="291" y="318"/>
      <point x="274" y="324"/>
      <point x="247" y="324" type="curve" smooth="yes"/>
      <point x="228" y="324"/>
      <point x="208" y="317"/>
      <point x="195" y="309" type="curve"/>
      <point x="210" y="388"/>
      <point x="253" y="430"/>
    </contour>
  </outline>
</glyph>
<glyph name="uni0474" format="2">
  <advance width="600"/>
  <unicode hex="0474"/>
  <outline>
    <contour>
      <point x="350" y="0" type="line"/>
      <point x="580" y="577" type="line"/>
      <point x="644" y="577" type="line"/>
      <point x="664" y="698" type="line"/>
      <point x="584" y="698" type="line" smooth="yes"/>
      <point x="514" y="698"/>
      <point x="458" y="667"/>
      <point x="428" y="587" type="curve" smooth="yes"/>
      <point x="339" y="343" type="line"/>
      <point x="272" y="142" type="line"/>
      <point x="264" y="142" type="line"/>
      <point x="261" y="343" type="line"/>
      <point x="246" y="698" type="line"/>
      <point x="84" y="698" type="line"/>
      <point x="140" y="0" type="line"/>
    </contour>
  </outline>
</glyph>
<glyph name="uni0475" format="2">
  <advance width="600"/>
  <unicode hex="0475"/>
  <outline>
    <contour>
      <point x="343" y="0" type="line"/>
      <point x="534" y="401" type="line"/>
      <point x="588" y="401" type="line"/>
      <point x="608" y="516" type="line"/>
      <point x="538" y="516" type="line" smooth="yes"/>
      <point x="462" y="516"/>
      <point x="432" y="497"/>
      <point x="394" y="415" type="curve" smooth="yes"/>
      <point x="345" y="295" type="line"/>
      <point x="277" y="125" type="line"/>
      <point x="269" y="125" type="line"/>
      <point x="253" y="295" type="line"/>
      <point x="224" y="516" type="line"/>
      <point x="73" y="516" type="line"/>
      <point x="169" y="0" type="line"/>
    </contour>
  </outline>
</glyph>
<glyph name="uni0491" format="2">
  <advance width="600"/>
  <unicode hex="0491"/>
  <outline>
    <contour>
      <point x="77" y="0" type="line"/>
      <point x="223" y="0" type="line"/>
      <point x="291" y="405" type="line"/>
      <point x="530" y="405" type="line"/>
      <point x="573" y="659" type="line"/>
      <point x="444" y="659" type="line"/>
      <point x="420" y="516" type="line"/>
      <point x="163" y="516" type="line"/>
    </contour>
  </outline>
</glyph>
<glyph name="uni0492" format="2">
  <advance width="600"/>
  <unicode hex="0492"/>
  <outline>
    <contour>
      <point x="46" y="284" type="line"/>
      <point x="129" y="284" type="line"/>
      <point x="82" y="0" type="line"/>
      <point x="230" y="0" type="line"/>
      <point x="277" y="284" type="line"/>
      <point x="444" y="284" type="line"/>
      <point x="463" y="396" type="line"/>
      <point x="295" y="396" type="line"/>
      <point x="325" y="576" type="line"/>
      <point x="597" y="576" type="line"/>
      <point x="618" y="698" type="line"/>
      <point x="198" y="698" type="line"/>
      <point x="147" y="396" type="line"/>
      <point x="65" y="396" type="line"/>
    </contour>
  </outline>
</glyph>
<glyph name="uni0493" format="2">
  <advance width="600"/>
  <unicode hex="0493"/>
  <outline>
    <contour>
      <point x="99" y="0" type="line"/>
      <point x="245" y="0" type="line"/>
      <point x="277" y="190" type="line"/>
      <point x="421" y="190" type="line"/>
      <point x="438" y="290" type="line"/>
      <point x="293" y="290" type="line"/>
      <point x="313" y="405" type="line"/>
      <point x="552" y="405" type="line"/>
      <point x="571" y="516" type="line"/>
      <point x="185" y="516" type="line"/>
      <point x="147" y="290" type="line"/>
      <point x="55" y="290" type="line"/>
      <point x="38" y="190" type="line"/>
      <point x="130" y="190" type="line"/>
    </contour>
  </outline>
</glyph>
<glyph name="uni0494" format="2">
  <advance width="600"/>
  <unicode hex="0494"/>
  <outline>
    <contour>
      <point x="344" y="-205" type="curve" smooth="yes"/>
      <point x="440" y="-205"/>
      <point x="493" y="-147"/>
      <point x="511" y="-46" type="curve" smooth="yes"/>
      <point x="536" y="92" type="line" smooth="yes"/>
      <point x="545" y="142"/>
      <point x="547" y="172"/>
      <point x="547" y="218" type="curve" smooth="yes"/>
      <point x="547" y="334"/>
      <point x="482" y="396"/>
      <point x="352" y="396" type="curve" smooth="yes"/>
      <point x="304" y="396"/>
      <point x="268" y="388"/>
      <point x="238" y="374" type="curve"/>
      <point x="232" y="374" type="line"/>
      <point x="265" y="576" type="line"/>
      <point x="537" y="576" type="line"/>
      <point x="558" y="698" type="line"/>
      <point x="138" y="698" type="line"/>
      <point x="22" y="0" type="line"/>
      <point x="170" y="0" type="line"/>
      <point x="213" y="259" type="line"/>
      <point x="245" y="271"/>
      <point x="281" y="276"/>
      <point x="318" y="276" type="curve" smooth="yes"/>
      <point x="374" y="276"/>
      <point x="402" y="248"/>
      <point x="402" y="204" type="curve" smooth="yes"/>
      <point x="402" y="182"/>
      <point x="399" y="156"/>
      <point x="394" y="126" type="curve" smooth="yes"/>
      <point x="356" y="-84" type="line"/>
      <point x="343" y="-89" type="line"/>
      <point x="275" y="-12" type="line"/>
      <point x="181" y="-83" type="line"/>
      <point x="205" y="-119" type="line" smooth="yes"/>
      <point x="237" y="-167"/>
      <point x="278" y="-205"/>
    </contour>
  </outline>
</glyph>
<glyph name="uni049A" format="2">
  <advance width="600"/>
  <unicode hex="049A"/>
  <outline>
    <contour>
      <point x="398" y="-150" type="line"/>
      <point x="531" y="-150" type="line"/>
      <point x="576" y="122" type="line"/>
      <point x="493" y="122" type="line"/>
      <point x="459" y="272" type="line" smooth="yes"/>
      <point x="447" y="324"/>
      <point x="430" y="347"/>
      <point x="395" y="357" type="curve"/>
      <point x="396" y="363" type="line"/>
      <point x="434" y="369"/>
      <point x="463" y="389"/>
      <point x="490" y="438" type="curve" smooth="yes"/>
      <point x="631" y="698" type="line"/>
      <point x="481" y="698" type="line"/>
      <point x="326" y="413" type="line"/>
      <point x="236" y="413" type="line"/>
      <point x="283" y="698" type="line"/>
      <point x="135" y="698" type="line"/>
      <point x="19" y="0" type="line"/>
      <point x="167" y="0" type="line"/>
      <point x="216" y="294" type="line"/>
      <point x="305" y="294" type="line"/>
      <point x="349" y="100" type="line" smooth="yes"/>
      <point x="362" y="41"/>
      <point x="388" y="13"/>
      <point x="423" y="1" type="curve"/>
    </contour>
  </outline>
</glyph>
<glyph name="uni049B" format="2">
  <advance width="600"/>
  <unicode hex="049B"/>
  <outline>
    <contour>
      <point x="370" y="-140" type="line"/>
      <point x="499" y="-140" type="line"/>
      <point x="541" y="114" type="line"/>
      <point x="458" y="114" type="line"/>
      <point x="431" y="186" type="line" smooth="yes"/>
      <point x="412" y="237"/>
      <point x="393" y="254"/>
      <point x="361" y="262" type="curve"/>
      <point x="362" y="269" type="line"/>
      <point x="404" y="277"/>
      <point x="427" y="294"/>
      <point x="456" y="338" type="curve" smooth="yes"/>
      <point x="571" y="516" type="line"/>
      <point x="418" y="516" type="line"/>
      <point x="288" y="315" type="line"/>
      <point x="219" y="315" type="line"/>
      <point x="252" y="516" type="line"/>
      <point x="106" y="516" type="line"/>
      <point x="20" y="0" type="line"/>
      <point x="166" y="0" type="line"/>
      <point x="200" y="206" type="line"/>
      <point x="271" y="206" type="line"/>
      <point x="319" y="79" type="line" smooth="yes"/>
      <point x="335" y="37"/>
      <point x="359" y="12"/>
      <point x="393" y="0" type="curve"/>
    </contour>
  </outline>
</glyph>
<glyph name="uni049C" format="2">
  <advance width="600"/>
  <unicode hex="049C"/>
  <outline>
    <contour>
      <point x="196" y="154" type="line"/>
      <point x="299" y="154" type="line"/>
      <point x="323" y="296" type="line"/>
      <point x="355" y="296" type="line"/>
      <point x="390" y="111" type="line" smooth="yes"/>
      <point x="406" y="26"/>
      <point x="441" y="0"/>
      <point x="506" y="0" type="curve" smooth="yes"/>
      <point x="559" y="0" type="line"/>
      <point x="579" y="122" type="line"/>
      <point x="523" y="122" type="line"/>
      <point x="494" y="275" type="line" smooth="yes"/>
      <point x="485" y="323"/>
      <point x="468" y="347"/>
      <point x="433" y="357" type="curve"/>
      <point x="434" y="363" type="line"/>
      <point x="472" y="369"/>
      <point x="502" y="390"/>
      <point x="526" y="436" type="curve" smooth="yes"/>
      <point x="661" y="698" type="line"/>
      <point x="524" y="698" type="line"/>
      <point x="376" y="411" type="line"/>
      <point x="342" y="411" type="line"/>
      <point x="366" y="554" type="line"/>
      <point x="263" y="554" type="line"/>
      <point x="239" y="411" type="line"/>
      <point x="197" y="411" type="line"/>
      <point x="245" y="698" type="line"/>
      <point x="110" y="698" type="line"/>
      <point x="-6" y="0" type="line"/>
      <point x="129" y="0" type="line"/>
      <point x="178" y="296" type="line"/>
      <point x="220" y="296" type="line"/>
    </contour>
  </outline>
</glyph>
<glyph name="uni049D" format="2">
  <advance width="600"/>
  <unicode hex="049D"/>
  <outline>
    <contour>
      <point x="181" y="99" type="line"/>
      <point x="276" y="99" type="line"/>
      <point x="294" y="208" type="line"/>
      <point x="325" y="208" type="line"/>
      <point x="368" y="79" type="line" smooth="yes"/>
      <point x="387" y="22"/>
      <point x="424" y="0"/>
      <point x="484" y="0" type="curve" smooth="yes"/>
      <point x="530" y="0" type="line"/>
      <point x="549" y="110" type="line"/>
      <point x="494" y="110" type="line"/>
      <point x="472" y="186" type="line" smooth="yes"/>
      <point x="457" y="236"/>
      <point x="436" y="256"/>
      <point x="402" y="262" type="curve"/>
      <point x="403" y="269" type="line"/>
      <point x="445" y="277"/>
      <point x="469" y="293"/>
      <point x="497" y="338" type="curve" smooth="yes"/>
      <point x="606" y="516" type="line"/>
      <point x="467" y="516" type="line"/>
      <point x="341" y="312" type="line"/>
      <point x="311" y="312" type="line"/>
      <point x="332" y="436" type="line"/>
      <point x="237" y="436" type="line"/>
      <point x="216" y="312" type="line"/>
      <point x="172" y="312" type="line"/>
      <point x="206" y="516" type="line"/>
      <point x="74" y="516" type="line"/>
      <point x="-12" y="0" type="line"/>
      <point x="120" y="0" type="line"/>
      <point x="155" y="208" type="line"/>
      <point x="199" y="208" type="line"/>
    </contour>
  </outline>
</glyph>
<glyph name="uni049E" format="2">
  <advance width="600"/>
  <unicode hex="049E"/>
  <outline>
    <contour>
      <point x="42" y="0" type="line"/>
      <point x="190" y="0" type="line"/>
      <point x="239" y="294" type="line"/>
      <point x="328" y="294" type="line"/>
      <point x="372" y="100" type="line" smooth="yes"/>
      <point x="389" y="27"/>
      <point x="421" y="0"/>
      <point x="486" y="0" type="curve" smooth="yes"/>
      <point x="552" y="0" type="line"/>
      <point x="572" y="122" type="line"/>
      <point x="516" y="122" type="line"/>
      <point x="482" y="272" type="line" smooth="yes"/>
      <point x="470" y="324"/>
      <point x="453" y="347"/>
      <point x="418" y="357" type="curve"/>
      <point x="419" y="363" type="line"/>
      <point x="457" y="369"/>
      <point x="486" y="389"/>
      <point x="513" y="438" type="curve" smooth="yes"/>
      <point x="654" y="698" type="line"/>
      <point x="504" y="698" type="line"/>
      <point x="349" y="413" type="line"/>
      <point x="259" y="413" type="line"/>
      <point x="279" y="534" type="line"/>
      <point x="373" y="534" type="line"/>
      <point x="393" y="648" type="line"/>
      <point x="298" y="648" type="line"/>
      <point x="306" y="698" type="line"/>
      <point x="158" y="698" type="line"/>
      <point x="150" y="648" type="line"/>
      <point x="65" y="648" type="line"/>
      <point x="45" y="534" type="line"/>
      <point x="131" y="534" type="line"/>
    </contour>
  </outline>
</glyph>
<glyph name="uni049F" format="2">
  <advance width="600"/>
  <unicode hex="049F"/>
  <outline>
    <contour>
      <point x="30" y="0" type="line"/>
      <point x="176" y="0" type="line"/>
      <point x="210" y="206" type="line"/>
      <point x="281" y="206" type="line"/>
      <point x="329" y="79" type="line" smooth="yes"/>
      <point x="350" y="23"/>
      <point x="385" y="0"/>
      <point x="445" y="0" type="curve" smooth="yes"/>
      <point x="504" y="0" type="line"/>
      <point x="523" y="114" type="line"/>
      <point x="468" y="114" type="line"/>
      <point x="441" y="186" type="line" smooth="yes"/>
      <point x="422" y="237"/>
      <point x="403" y="254"/>
      <point x="371" y="262" type="curve"/>
      <point x="372" y="269" type="line"/>
      <point x="414" y="277"/>
      <point x="437" y="294"/>
      <point x="466" y="338" type="curve" smooth="yes"/>
      <point x="581" y="516" type="line"/>
      <point x="428" y="516" type="line"/>
      <point x="298" y="315" type="line"/>
      <point x="229" y="315" type="line"/>
      <point x="266" y="535" type="line"/>
      <point x="384" y="535" type="line"/>
      <point x="401" y="635" type="line"/>
      <point x="283" y="635" type="line"/>
      <point x="300" y="740" type="line"/>
      <point x="154" y="740" type="line"/>
      <point x="137" y="635" type="line"/>
      <point x="75" y="635" type="line"/>
      <point x="58" y="535" type="line"/>
      <point x="120" y="535" type="line"/>
    </contour>
  </outline>
</glyph>
<glyph name="uni04A1" format="2">
  <advance width="600"/>
  <unicode hex="04A1"/>
  <outline>
    <contour>
      <point x="77" y="0" type="line"/>
      <point x="223" y="0" type="line"/>
      <point x="257" y="206" type="line"/>
      <point x="312" y="206" type="line"/>
      <point x="352" y="85" type="line" smooth="yes"/>
      <point x="372" y="25"/>
      <point x="406" y="0"/>
      <point x="470" y="0" type="curve" smooth="yes"/>
      <point x="529" y="0" type="line"/>
      <point x="548" y="114" type="line"/>
      <point x="493" y="114" type="line"/>
      <point x="469" y="186" type="line" smooth="yes"/>
      <point x="452" y="238"/>
      <point x="433" y="254"/>
      <point x="401" y="262" type="curve"/>
      <point x="402" y="269" type="line"/>
      <point x="440" y="276"/>
      <point x="468" y="292"/>
      <point x="496" y="338" type="curve" smooth="yes"/>
      <point x="606" y="516" type="line"/>
      <point x="453" y="516" type="line"/>
      <point x="329" y="315" type="line"/>
      <point x="276" y="315" type="line"/>
      <point x="309" y="516" type="line"/>
      <point x="49" y="516" type="line"/>
      <point x="31" y="405" type="line"/>
      <point x="145" y="405" type="line"/>
    </contour>
  </outline>
</glyph>
<glyph name="uni04A2" format="2">
  <advance width="600"/>
  <unicode hex="04A2"/>
  <outline>
    <contour>
      <point x="383" y="-150" type="line"/>
      <point x="516" y="-150" type="line"/>
      <point x="561" y="122" type="line"/>
      <point x="483" y="122" type="line"/>
      <point x="579" y="698" type="line"/>
      <point x="431" y="698" type="line"/>
      <point x="384" y="414" type="line"/>
      <point x="226" y="414" type="line"/>
      <point x="273" y="698" type="line"/>
      <point x="125" y="698" type="line"/>
      <point x="9" y="0" type="line"/>
      <point x="157" y="0" type="line"/>
      <point x="206" y="293" type="line"/>
      <point x="364" y="293" type="line"/>
      <point x="315" y="0" type="line"/>
      <point x="408" y="0" type="line"/>
    </contour>
  </outline>
</glyph>
<glyph name="uni04A3" format="2">
  <advance width="600"/>
  <unicode hex="04A3"/>
  <outline>
    <contour>
      <point x="385" y="-140" type="line"/>
      <point x="514" y="-140" type="line"/>
      <point x="556" y="114" type="line"/>
      <point x="477" y="114" type="line"/>
      <point x="544" y="516" type="line"/>
      <point x="398" y="516" type="line"/>
      <point x="365" y="316" type="line"/>
      <point x="214" y="316" type="line"/>
      <point x="247" y="516" type="line"/>
      <point x="101" y="516" type="line"/>
      <point x="15" y="0" type="line"/>
      <point x="161" y="0" type="line"/>
      <point x="195" y="205" type="line"/>
      <point x="346" y="205" type="line"/>
      <point x="312" y="0" type="line"/>
      <point x="408" y="0" type="line"/>
    </contour>
  </outline>
</glyph>
<glyph name="uni04A4" format="2">
  <advance width="600"/>
  <unicode hex="04A4"/>
  <outline>
    <contour>
      <point x="-14" y="0" type="line"/>
      <point x="124" y="0" type="line"/>
      <point x="173" y="297" type="line"/>
      <point x="297" y="297" type="line"/>
      <point x="248" y="0" type="line"/>
      <point x="386" y="0" type="line"/>
      <point x="483" y="584" type="line"/>
      <point x="635" y="584" type="line"/>
      <point x="654" y="698" type="line"/>
      <point x="364" y="698" type="line"/>
      <point x="316" y="411" type="line"/>
      <point x="192" y="411" type="line"/>
      <point x="240" y="698" type="line"/>
      <point x="102" y="698" type="line"/>
    </contour>
  </outline>
</glyph>
<glyph name="uni04A6" format="2">
  <advance width="600"/>
  <unicode hex="04A6"/>
  <outline>
    <contour>
      <point x="114" y="0" type="line"/>
      <point x="211" y="585" type="line"/>
      <point x="291" y="585" type="line"/>
      <point x="194" y="0" type="line"/>
      <point x="320" y="0" type="line"/>
      <point x="365" y="258" type="line"/>
      <point x="383" y="269"/>
      <point x="400" y="275"/>
      <point x="415" y="275" type="curve" smooth="yes"/>
      <point x="439" y="275"/>
      <point x="451" y="265"/>
      <point x="451" y="239" type="curve" smooth="yes"/>
      <point x="451" y="233"/>
      <point x="450" y="226"/>
      <point x="449" y="219" type="curve" smooth="yes"/>
      <point x="397" y="-86" type="line"/>
      <point x="384" y="-91" type="line"/>
      <point x="316" y="-34" type="line"/>
      <point x="241" y="-118" type="line"/>
      <point x="241" y="-118" type="line"/>
      <point x="314" y="-184"/>
      <point x="349" y="-205"/>
      <point x="401" y="-205" type="curve" smooth="yes"/>
      <point x="478" y="-205"/>
      <point x="509" y="-147"/>
      <point x="526" y="-44" type="curve" smooth="yes"/>
      <point x="571" y="228" type="line" smooth="yes"/>
      <point x="574" y="248"/>
      <point x="576" y="266"/>
      <point x="576" y="282" type="curve" smooth="yes"/>
      <point x="576" y="360"/>
      <point x="538" y="396"/>
      <point x="470" y="396" type="curve" smooth="yes"/>
      <point x="446" y="396"/>
      <point x="422" y="391"/>
      <point x="390" y="374" type="curve"/>
      <point x="385" y="374" type="line"/>
      <point x="438" y="698" type="line"/>
      <point x="102" y="698" type="line"/>
      <point x="-14" y="0" type="line"/>
    </contour>
  </outline>
</glyph>
<glyph name="uni04A7" format="2">
  <advance width="600"/>
  <unicode hex="04A7"/>
  <outline>
    <contour>
      <point x="106" y="0" type="line"/>
      <point x="160" y="324" type="line" smooth="yes"/>
      <point x="163" y="342"/>
      <point x="170" y="366"/>
      <point x="184" y="389" type="curve" smooth="yes"/>
      <point x="200" y="415"/>
      <point x="215" y="421"/>
      <point x="230" y="421" type="curve" smooth="yes"/>
      <point x="249" y="421"/>
      <point x="259" y="408"/>
      <point x="259" y="383" type="curve" smooth="yes"/>
      <point x="259" y="369"/>
      <point x="257" y="353"/>
      <point x="255" y="341" type="curve" smooth="yes"/>
      <point x="198" y="0" type="line"/>
      <point x="316" y="0" type="line"/>
      <point x="332" y="96" type="line" smooth="yes"/>
      <point x="338" y="132"/>
      <point x="345" y="153"/>
      <point x="357" y="173" type="curve" smooth="yes"/>
      <point x="372" y="198"/>
      <point x="387" y="205"/>
      <point x="404" y="205" type="curve" smooth="yes"/>
      <point x="419" y="205"/>
      <point x="434" y="190"/>
      <point x="434" y="166" type="curve" smooth="yes"/>
      <point x="434" y="153"/>
      <point x="432" y="137"/>
      <point x="430" y="125" type="curve" smooth="yes"/>
      <point x="393" y="-96" type="line"/>
      <point x="380" y="-101" type="line"/>
      <point x="320" y="-49" type="line"/>
      <point x="245" y="-131" type="line"/>
      <point x="245" y="-131" type="line"/>
      <point x="296" y="-178"/>
      <point x="334" y="-212"/>
      <point x="387" y="-212" type="curve" smooth="yes"/>
      <point x="467" y="-212"/>
      <point x="502" y="-151"/>
      <point x="521" y="-36" type="curve" smooth="yes"/>
      <point x="550" y="140" type="line" smooth="yes"/>
      <point x="554" y="164"/>
      <point x="557" y="193"/>
      <point x="557" y="216" type="curve" smooth="yes"/>
      <point x="557" y="278"/>
      <point x="523" y="312"/>
      <point x="471" y="312" type="curve" smooth="yes"/>
      <point x="411" y="312"/>
      <point x="381" y="270"/>
      <point x="356" y="210" type="curve"/>
      <point x="351" y="210" type="line"/>
      <point x="375" y="356" type="line" smooth="yes"/>
      <point x="379" y="380"/>
      <point x="382" y="409"/>
      <point x="382" y="432" type="curve" smooth="yes"/>
      <point x="382" y="496"/>
      <point x="353" y="528"/>
      <point x="297" y="528" type="curve" smooth="yes"/>
      <point x="243" y="528"/>
      <point x="206" y="486"/>
      <point x="183" y="426" type="curve"/>
      <point x="177" y="426" type="line"/>
      <point x="192" y="516" type="line"/>
      <point x="74" y="516" type="line"/>
      <point x="-12" y="0" type="line"/>
    </contour>
  </outline>
</glyph>
<glyph name="uni04A8" format="2">
  <advance width="600"/>
  <unicode hex="04A8"/>
  <outline>
    <contour>
      <point x="555" y="75" type="line"/>
      <point x="516" y="75" type="line" smooth="yes"/>
      <point x="498" y="75"/>
      <point x="477" y="79"/>
      <point x="465" y="85" type="curve"/>
      <point x="555" y="153"/>
      <point x="612" y="303"/>
      <point x="612" y="472" type="curve" smooth="yes"/>
      <point x="612" y="596"/>
      <point x="552" y="649"/>
      <point x="462" y="649" type="curve" smooth="yes"/>
      <point x="254" y="649"/>
      <point x="231" y="335"/>
      <point x="231" y="258" type="curve" smooth="yes"/>
      <point x="231" y="198"/>
      <point x="248" y="145"/>
      <point x="276" y="104" type="curve"/>
      <point x="271" y="103"/>
      <point x="265" y="103"/>
      <point x="259" y="103" type="curve" smooth="yes"/>
      <point x="200" y="103"/>
      <point x="154" y="146"/>
      <point x="154" y="211" type="curve" smooth="yes"/>
      <point x="154" y="231"/>
      <point x="156" y="253"/>
      <point x="159" y="271" type="curve" smooth="yes"/>
      <point x="184" y="424" type="line" smooth="yes"/>
      <point x="199" y="518"/>
      <point x="235" y="581"/>
      <point x="283" y="581" type="curve" smooth="yes"/>
      <point x="289" y="581"/>
      <point x="293" y="581"/>
      <point x="298" y="580" type="curve"/>
      <point x="328" y="708" type="line"/>
      <point x="322" y="709"/>
      <point x="307" y="710"/>
      <point x="292" y="710" type="curve" smooth="yes"/>
      <point x="100" y="710"/>
      <point x="25" y="442"/>
      <point x="25" y="227" type="curve" smooth="yes"/>
      <point x="25" y="76"/>
      <point x="109" y="-12"/>
      <point x="249" y="-12" type="curve" smooth="yes"/>
      <point x="287" y="-12"/>
      <point x="326" y="-3"/>
      <point x="350" y="9" type="curve"/>
      <point x="390" y="-25"/>
      <point x="447" y="-44"/>
      <point x="497" y="-44" type="curve" smooth="yes"/>
      <point x="534" y="-44" type="line"/>
    </contour>
    <contour>
      <point x="386" y="430" type="line" smooth="yes"/>
      <point x="398" y="500"/>
      <point x="416" y="534"/>
      <point x="449" y="534" type="curve" smooth="yes"/>
      <point x="472" y="534"/>
      <point x="485" y="519"/>
      <point x="485" y="487" type="curve" smooth="yes"/>
      <point x="485" y="469"/>
      <point x="483" y="452"/>
      <point x="480" y="434" type="curve" smooth="yes"/>
      <point x="458" y="300" type="line" smooth="yes"/>
      <point x="446" y="229"/>
      <point x="427" y="184"/>
      <point x="385" y="146" type="curve"/>
      <point x="369" y="168"/>
      <point x="359" y="207"/>
      <point x="359" y="243" type="curve" smooth="yes"/>
      <point x="359" y="261"/>
      <point x="361" y="278"/>
      <point x="364" y="296" type="curve" smooth="yes"/>
    </contour>
  </outline>
</glyph>
<glyph name="uni04A9" format="2">
  <advance width="600"/>
  <unicode hex="04A9"/>
  <outline>
    <contour>
      <point x="565" y="66" type="line"/>
      <point x="522" y="66" type="line" smooth="yes"/>
      <point x="494" y="66"/>
      <point x="472" y="69"/>
      <point x="457" y="74" type="curve"/>
      <point x="544" y="124"/>
      <point x="588" y="238"/>
      <point x="588" y="354" type="curve" smooth="yes"/>
      <point x="588" y="432"/>
      <point x="535" y="491"/>
      <point x="439" y="491" type="curve" smooth="yes"/>
      <point x="265" y="491"/>
      <point x="225" y="317"/>
      <point x="225" y="210" type="curve" smooth="yes"/>
      <point x="225" y="166"/>
      <point x="244" y="115"/>
      <point x="270" y="83" type="curve"/>
      <point x="265" y="81"/>
      <point x="258" y="80"/>
      <point x="250" y="80" type="curve" smooth="yes"/>
      <point x="182" y="80"/>
      <point x="145" y="121"/>
      <point x="145" y="179" type="curve" smooth="yes"/>
      <point x="145" y="188"/>
      <point x="146" y="201"/>
      <point x="148" y="213" type="curve" smooth="yes"/>
      <point x="165" y="312" type="line" smooth="yes"/>
      <point x="176" y="377"/>
      <point x="205" y="430"/>
      <point x="257" y="430" type="curve" smooth="yes"/>
      <point x="263" y="430"/>
      <point x="267" y="430"/>
      <point x="272" y="429" type="curve"/>
      <point x="303" y="535" type="line"/>
      <point x="297" y="536"/>
      <point x="286" y="537"/>
      <point x="270" y="537" type="curve" smooth="yes"/>
      <point x="95" y="537"/>
      <point x="18" y="357"/>
      <point x="18" y="200" type="curve" smooth="yes"/>
      <point x="18" y="49"/>
      <point x="111" y="-12"/>
      <point x="232" y="-12" type="curve" smooth="yes"/>
      <point x="268" y="-12"/>
      <point x="310" y="-4"/>
      <point x="340" y="8" type="curve"/>
      <point x="387" y="-28"/>
      <point x="445" y="-44"/>
      <point x="499" y="-44" type="curve" smooth="yes"/>
      <point x="546" y="-44" type="line"/>
    </contour>
    <contour>
      <point x="364" y="299" type="curve" smooth="yes"/>
      <point x="373" y="350"/>
      <point x="389" y="384"/>
      <point x="425" y="384" type="curve" smooth="yes"/>
      <point x="450" y="384"/>
      <point x="461" y="369"/>
      <point x="461" y="349" type="curve" smooth="yes"/>
      <point x="461" y="337"/>
      <point x="460" y="327"/>
      <point x="458" y="313" type="curve" smooth="yes"/>
      <point x="458" y="313"/>
      <point x="448" y="256"/>
      <point x="448" y="256" type="curve" smooth="yes"/>
      <point x="437" y="196"/>
      <point x="415" y="153"/>
      <point x="378" y="126" type="curve"/>
      <point x="358" y="149"/>
      <point x="351" y="176"/>
      <point x="351" y="206" type="curve" smooth="yes"/>
      <point x="351" y="218"/>
      <point x="352" y="228"/>
      <point x="354" y="242" type="curve" smooth="yes"/>
      <point x="354" y="242"/>
      <point x="364" y="299"/>
    </contour>
  </outline>
</glyph>
<glyph name="uni04AC" format="2">
  <advance width="600"/>
  <unicode hex="04AC"/>
  <outline>
    <contour>
      <point x="629" y="576" type="line"/>
      <point x="649" y="698" type="line"/>
      <point x="97" y="698" type="line"/>
      <point x="77" y="576" type="line"/>
      <point x="279" y="576" type="line"/>
      <point x="183" y="0" type="line"/>
      <point x="276" y="0" type="line"/>
      <point x="251" y="-150" type="line"/>
      <point x="384" y="-150" type="line"/>
      <point x="429" y="122" type="line"/>
      <point x="351" y="122" type="line"/>
      <point x="427" y="576" type="line"/>
    </contour>
  </outline>
</glyph>
<glyph name="uni04AD" format="2">
  <advance width="600"/>
  <unicode hex="04AD"/>
  <outline>
    <contour>
      <point x="98" y="0" type="line"/>
      <point x="152" y="324" type="line" smooth="yes"/>
      <point x="155" y="342"/>
      <point x="162" y="366"/>
      <point x="176" y="389" type="curve" smooth="yes"/>
      <point x="192" y="415"/>
      <point x="205" y="421"/>
      <point x="218" y="421" type="curve" smooth="yes"/>
      <point x="235" y="421"/>
      <point x="243" y="408"/>
      <point x="243" y="383" type="curve" smooth="yes"/>
      <point x="243" y="369"/>
      <point x="241" y="353"/>
      <point x="239" y="341" type="curve" smooth="yes"/>
      <point x="182" y="0" type="line"/>
      <point x="300" y="0" type="line"/>
      <point x="352" y="312" type="line" smooth="yes"/>
      <point x="358" y="348"/>
      <point x="365" y="369"/>
      <point x="377" y="389" type="curve" smooth="yes"/>
      <point x="392" y="414"/>
      <point x="405" y="421"/>
      <point x="420" y="421" type="curve" smooth="yes"/>
      <point x="436" y="421"/>
      <point x="445" y="406"/>
      <point x="445" y="382" type="curve" smooth="yes"/>
      <point x="445" y="369"/>
      <point x="443" y="353"/>
      <point x="441" y="341" type="curve" smooth="yes"/>
      <point x="384" y="0" type="line"/>
      <point x="445" y="0" type="line"/>
      <point x="422" y="-140" type="line"/>
      <point x="527" y="-140" type="line"/>
      <point x="568" y="108" type="line"/>
      <point x="520" y="108" type="line"/>
      <point x="561" y="356" type="line" smooth="yes"/>
      <point x="565" y="380"/>
      <point x="568" y="409"/>
      <point x="568" y="432" type="curve" smooth="yes"/>
      <point x="568" y="495"/>
      <point x="541" y="528"/>
      <point x="484" y="528" type="curve" smooth="yes"/>
      <point x="423" y="528"/>
      <point x="389" y="484"/>
      <point x="364" y="426" type="curve"/>
      <point x="359" y="426" type="line"/>
      <point x="366" y="494"/>
      <point x="336" y="528"/>
      <point x="285" y="528" type="curve" smooth="yes"/>
      <point x="233" y="528"/>
      <point x="198" y="486"/>
      <point x="175" y="426" type="curve"/>
      <point x="169" y="426" type="line"/>
      <point x="184" y="516" type="line"/>
      <point x="66" y="516" type="line"/>
      <point x="-20" y="0" type="line"/>
    </contour>
  </outline>
</glyph>
<glyph name="uni04AF" format="2">
  <advance width="600"/>
  <unicode hex="04AF"/>
  <outline>
    <contour>
      <point x="149" y="-200" type="line"/>
      <point x="295" y="-200" type="line"/>
      <point x="329" y="0" type="line"/>
      <point x="608" y="516" type="line"/>
      <point x="460" y="516" type="line"/>
      <point x="363" y="319" type="line"/>
      <point x="287" y="151" type="line"/>
      <point x="279" y="151" type="line"/>
      <point x="258" y="319" type="line"/>
      <point x="228" y="516" type="line"/>
      <point x="76" y="516" type="line"/>
      <point x="183" y="0" type="line"/>
    </contour>
  </outline>
</glyph>
<glyph name="uni04B0" format="2">
  <advance width="600"/>
  <unicode hex="04B0"/>
  <outline>
    <contour>
      <point x="81" y="136" type="line"/>
      <point x="206" y="136" type="line"/>
      <point x="184" y="0" type="line"/>
      <point x="332" y="0" type="line"/>
      <point x="354" y="136" type="line"/>
      <point x="479" y="136" type="line"/>
      <point x="498" y="248" type="line"/>
      <point x="373" y="248" type="line"/>
      <point x="668" y="698" type="line"/>
      <point x="503" y="698" type="line"/>
      <point x="403" y="534" type="line"/>
      <point x="325" y="397" type="line"/>
      <point x="316" y="397" type="line"/>
      <point x="285" y="534" type="line"/>
      <point x="236" y="698" type="line"/>
      <point x="78" y="698" type="line"/>
      <point x="225" y="248" type="line"/>
      <point x="100" y="248" type="line"/>
    </contour>
  </outline>
</glyph>
<glyph name="uni04B1" format="2">
  <advance width="600"/>
  <unicode hex="04B1"/>
  <outline>
    <contour>
      <point x="149" y="-200" type="line"/>
      <point x="295" y="-200" type="line"/>
      <point x="312" y="-100" type="line"/>
      <point x="432" y="-100" type="line"/>
      <point x="449" y="0" type="line"/>
      <point x="329" y="0" type="line"/>
      <point x="608" y="516" type="line"/>
      <point x="460" y="516" type="line"/>
      <point x="363" y="319" type="line"/>
      <point x="287" y="151" type="line"/>
      <point x="279" y="151" type="line"/>
      <point x="258" y="319" type="line"/>
      <point x="228" y="516" type="line"/>
      <point x="76" y="516" type="line"/>
      <point x="183" y="0" type="line"/>
      <point x="63" y="0" type="line"/>
      <point x="46" y="-100" type="line"/>
      <point x="166" y="-100" type="line"/>
    </contour>
  </outline>
</glyph>
<glyph name="uni04B4" format="2">
  <advance width="600"/>
  <unicode hex="04B4"/>
  <outline>
    <contour>
      <point x="418" y="-190" type="curve" smooth="yes"/>
      <point x="480" y="-190"/>
      <point x="518" y="-157"/>
      <point x="531" y="-78" type="curve" smooth="yes"/>
      <point x="565" y="122" type="line"/>
      <point x="487" y="122" type="line"/>
      <point x="583" y="698" type="line"/>
      <point x="435" y="698" type="line"/>
      <point x="339" y="122" type="line"/>
      <point x="219" y="122" type="line"/>
      <point x="294" y="576" type="line"/>
      <point x="380" y="576" type="line"/>
      <point x="400" y="698" type="line"/>
      <point x="81" y="698" type="line"/>
      <point x="61" y="576" type="line"/>
      <point x="146" y="576" type="line"/>
      <point x="50" y="0" type="line"/>
      <point x="455" y="0" type="line"/>
      <point x="437" y="-74" type="line"/>
      <point x="426" y="-79" type="line"/>
      <point x="307" y="-49" type="line"/>
      <point x="269" y="-39"/>
      <point x="251" y="-36"/>
      <point x="231" y="-36" type="curve" smooth="yes"/>
      <point x="167" y="-36"/>
      <point x="131" y="-74"/>
      <point x="119" y="-148" type="curve" smooth="yes"/>
      <point x="113" y="-186" type="line"/>
      <point x="224" y="-186" type="line"/>
      <point x="232" y="-139" type="line"/>
      <point x="243" y="-134" type="line"/>
      <point x="313" y="-170"/>
      <point x="362" y="-190"/>
    </contour>
  </outline>
</glyph>
<glyph name="uni04B6" format="2">
  <advance width="600"/>
  <unicode hex="04B6"/>
  <outline>
    <contour>
      <point x="383" y="-150" type="line"/>
      <point x="516" y="-150" type="line"/>
      <point x="561" y="122" type="line"/>
      <point x="483" y="122" type="line"/>
      <point x="579" y="698" type="line"/>
      <point x="431" y="698" type="line"/>
      <point x="375" y="361" type="line"/>
      <point x="345" y="349"/>
      <point x="313" y="344"/>
      <point x="281" y="344" type="curve" smooth="yes"/>
      <point x="227" y="344"/>
      <point x="201" y="372"/>
      <point x="201" y="416" type="curve" smooth="yes"/>
      <point x="201" y="438"/>
      <point x="202" y="454"/>
      <point x="209" y="496" type="curve" smooth="yes"/>
      <point x="243" y="698" type="line"/>
      <point x="95" y="698" type="line"/>
      <point x="66" y="524" type="line" smooth="yes"/>
      <point x="60" y="486"/>
      <point x="56" y="446"/>
      <point x="56" y="402" type="curve" smooth="yes"/>
      <point x="56" y="286"/>
      <point x="122" y="224"/>
      <point x="245" y="224" type="curve" smooth="yes"/>
      <point x="284" y="224"/>
      <point x="324" y="232"/>
      <point x="350" y="246" type="curve"/>
      <point x="356" y="246" type="line"/>
      <point x="315" y="0" type="line"/>
      <point x="408" y="0" type="line"/>
    </contour>
  </outline>
</glyph>
<glyph name="uni04B7" format="2">
  <advance width="600"/>
  <unicode hex="04B7"/>
  <outline>
    <contour>
      <point x="385" y="-140" type="line"/>
      <point x="514" y="-140" type="line"/>
      <point x="556" y="114" type="line"/>
      <point x="477" y="114" type="line"/>
      <point x="544" y="516" type="line"/>
      <point x="398" y="516" type="line"/>
      <point x="372" y="362" type="line" smooth="yes"/>
      <point x="360" y="292"/>
      <point x="324" y="261"/>
      <point x="269" y="261" type="curve" smooth="yes"/>
      <point x="234" y="261"/>
      <point x="211" y="282"/>
      <point x="211" y="316" type="curve" smooth="yes"/>
      <point x="211" y="332"/>
      <point x="212" y="343"/>
      <point x="216" y="367" type="curve" smooth="yes"/>
      <point x="241" y="516" type="line"/>
      <point x="95" y="516" type="line"/>
      <point x="67" y="348" type="line" smooth="yes"/>
      <point x="64" y="328"/>
      <point x="62" y="308"/>
      <point x="62" y="284" type="curve" smooth="yes"/>
      <point x="62" y="197"/>
      <point x="119" y="149"/>
      <point x="197" y="149" type="curve" smooth="yes"/>
      <point x="261" y="149"/>
      <point x="311" y="178"/>
      <point x="349" y="252" type="curve"/>
      <point x="354" y="252" type="line"/>
      <point x="312" y="0" type="line"/>
      <point x="408" y="0" type="line"/>
    </contour>
  </outline>
</glyph>
<glyph name="uni04B9" format="2">
  <advance width="600"/>
  <unicode hex="04B9"/>
  <outline>
    <contour>
      <point x="338" y="0" type="line"/>
      <point x="484" y="0" type="line"/>
      <point x="570" y="516" type="line"/>
      <point x="424" y="516" type="line"/>
      <point x="397" y="355" type="line" smooth="yes"/>
      <point x="389" y="309"/>
      <point x="370" y="281"/>
      <point x="338" y="267" type="curve"/>
      <point x="362" y="409" type="line"/>
      <point x="267" y="409" type="line"/>
      <point x="243" y="267" type="line"/>
      <point x="221" y="275"/>
      <point x="211" y="292"/>
      <point x="211" y="316" type="curve" smooth="yes"/>
      <point x="211" y="332"/>
      <point x="212" y="343"/>
      <point x="216" y="367" type="curve" smooth="yes"/>
      <point x="241" y="516" type="line"/>
      <point x="95" y="516" type="line"/>
      <point x="67" y="348" type="line" smooth="yes"/>
      <point x="64" y="328"/>
      <point x="62" y="308"/>
      <point x="62" y="284" type="curve" smooth="yes"/>
      <point x="62" y="197"/>
      <point x="115" y="149"/>
      <point x="224" y="149" type="curve"/>
      <point x="211" y="72" type="line"/>
      <point x="306" y="72" type="line"/>
      <point x="322" y="170" type="line"/>
      <point x="338" y="184"/>
      <point x="359" y="209"/>
      <point x="371" y="229" type="curve"/>
      <point x="376" y="229" type="line"/>
    </contour>
  </outline>
</glyph>
